STARTFONT 2.1
COMMENT
COMMENT Converted from OpenType font "P:\temp\incoming\font stuff\winfont\Racer Regular.ttf" by "otf2bdf 3.0".
COMMENT
FONT -FreeType-Racer-Medium-R-Normal--144-1020-102-102-P-748-ISO10646-1
SIZE 102 102 102
FONTBOUNDINGBOX 158 154 0 0
STARTPROPERTIES 19
FOUNDRY "FreeType"
FAMILY_NAME "Racer"
WEIGHT_NAME "Medium"
SLANT "R"
SETWIDTH_NAME "Normal"
ADD_STYLE_NAME ""
PIXEL_SIZE 110
POINT_SIZE 1020
RESOLUTION_X 102
RESOLUTION_Y 102
SPACING "P"
AVERAGE_WIDTH 748
CHARSET_REGISTRY "ISO10646"
CHARSET_ENCODING "1"
FONT_ASCENT 128
FONT_DESCENT 0
COPYRIGHT "design: onezero/\2512003onezero/contact: onezero@gmx.ch"
_OTF_FONTFILE "P:\temp\incoming\font stuff\winfont\Racer Regular.ttf"
_OTF_PSNAME "Racer"
ENDPROPERTIES
CHARS 120
STARTCHAR 0020
ENCODING 32
SWIDTH 332 0
DWIDTH 48 0
BBX 0 0 0 0
BITMAP
ENDCHAR
STARTCHAR 0021
ENCODING 33
SWIDTH 256 0
DWIDTH 37 0
BBX 22 111 0 -2
BITMAP
00FC00
07FF80
0FFFC0
1FFFE0
3FFFF0
7FFFF8
7FFFF8
7FFFF8
FFFFFC
FFFFFC
FFFFFC
FFFFFC
FFFFFC
FFFFFC
FFFFFC
FFFFFC
FFFFFC
FFFFFC
FFFFFC
FFFFFC
FFFFFC
FFFFFC
FFFFFC
FFFFFC
FFFFFC
FFFFFC
FFFFFC
FFFFFC
FFFFFC
FFFFFC
FFFFFC
FFFFFC
FFFFFC
FFFFFC
FFFFFC
FFFFFC
FFFFFC
FFFFFC
FFFFFC
FFFFFC
FFFFFC
FFFFFC
FFFFFC
FFFFFC
FFFFFC
FFFFFC
FFFFFC
FFFFFC
FFFFFC
FFFFFC
FFFFFC
FFFFFC
FFFFFC
FFFFFC
FFFFFC
FFFFFC
FFFFFC
FFFFFC
FFFFFC
FFFFFC
FFFFFC
FFFFFC
FFFFFC
FFFFFC
FFFFFC
FFFFFC
FFFFFC
FFFFFC
FFFFFC
FFFFFC
FFFFFC
FFFFFC
FFFFFC
FFFFFC
FFFFFC
FFFFFC
7FFFF8
7FFFF8
3FFFF0
1FFFE0
0FFFC0
07FF80
00FC00
000000
000000
000000
000000
00FC00
07FF80
0FFFC0
1FFFE0
3FFFF0
7FFFF8
7FFFF8
7FFFF8
FFFFFC
FFFFFC
FFFFFC
FFFFFC
FFFFFC
FFFFFC
FFFFFC
FFFFFC
7FFFFC
7FFFF8
7FFFF8
3FFFF0
1FFFE0
0FFFC0
07FF80
00FC00
ENDCHAR
STARTCHAR 0022
ENCODING 34
SWIDTH 442 0
DWIDTH 64 0
BBX 0 0 0 0
BITMAP
ENDCHAR
STARTCHAR 0023
ENCODING 35
SWIDTH 837 0
DWIDTH 121 0
BBX 0 0 0 0
BITMAP
ENDCHAR
STARTCHAR 0024
ENCODING 36
SWIDTH 768 0
DWIDTH 111 0
BBX 0 0 0 0
BITMAP
ENDCHAR
STARTCHAR 0025
ENCODING 37
SWIDTH 1321 0
DWIDTH 191 0
BBX 0 0 0 0
BITMAP
ENDCHAR
STARTCHAR 0026
ENCODING 38
SWIDTH 892 0
DWIDTH 129 0
BBX 112 108 0 0
BITMAP
000000000000FFFFFFFFFFF00000
00000000001FFFFFFFFFFFFF0000
00000000007FFFFFFFFFFFFFC000
0000000003FFFFFFFFFFFFFFF000
0000000007FFFFFFFFFFFFFFF800
000000001FFFFFFFFFFFFFFFFC00
000000003FFFFFFFFFFFFFFFFF00
00000000FFFFFFFFFFFFFFFFFF80
00000001FFFFFFFFFFFFFFFFFFC0
00000003FFFFFFFFFFFFFFFFFFC0
00000007FFFFFFFFFFFFFFFFFFE0
0000000FFFFFFFFFFFFFFFFFFFF0
0000000FFFFFFFFFFFFFFFFFFFF0
0000001FFFFFFFFFFFFFFFFFFFF8
0000003FFFFFFFFFFFFFFFFFFFFC
0000007FFFFFFFFFFFFFFFFFFFFC
0000007FFFFFFFFFFFFFFFFFFFFC
000000FFFFFFFFFFFFFFFFFFFFFE
000000FFFFFFFFFFFFFFFFFFFFFE
000001FFFFFFFFFFFFFFFFFFFFFE
000001FFFFFFFFFFFFFFFFFFFFFF
000003FFFFFFC0000000007FFFFF
000003FFFFFF00000000003FFFFF
000003FFFFFC00000000001FFFFF
000007FFFFF800000000001FFFFF
000007FFFFF000000000001FFFFF
000007FFFFE000000000001FFFFF
000007FFFFE000000000001FFFFF
00000FFFFFC000000000001FFFFF
00000FFFFFC000000000000FFFFF
00000FFFFF8000000000000FFFFE
00000FFFFF80000000000007FFFE
00000FFFFF80000000000007FFFC
00000FFFFF80000000000003FFF8
00000FFFFF80000000000001FFF0
00000FFFFF80000000000000FFE0
00000FFFFF800000000000003F80
00000FFFFFC00000000000000000
00000FFFFFC00000000000000000
000007FFFFC00000000000000000
000007FFFFE00000000000000000
000007FFFFF00000000000000000
000007FFFFF80000000000000000
000007FFFFF80000000000000000
000003FFFFFC0000000000000000
000003FFFFFE0000000000000000
000003FFFFFF0000000000000000
000001FFFFFF8000000000003F80
000001FFFFFFC00000000000FFE0
000000FFFFFFC00000000001FFF0
000000FFFFFFE00000000003FFF8
0000007FFFFFF00000000007FFFC
000000FFFFFFF8000000000FFFFE
000007FFFFFFFC000000000FFFFE
00003FFFFFFFFC000000000FFFFF
0000FFFFFFFFFE000000001FFFFF
0003FFFFFFFFFF000000001FFFFF
000FFFFFFFFFFF800000001FFFFF
001FFFFFFFFFFFC00000001FFFFF
003FFFFFFFFFFFE00000001FFFFF
00FFFFFFFFFFFFE00000001FFFFF
01FFFFFFFFFFFFF00000001FFFFF
01FFFFFFFFFFFFF80000001FFFFF
03FFFFFFFFFFFFFC0000001FFFFF
07FFFFFFFFFFFFFE0000001FFFFF
0FFFFFFFFFFFFFFF0000001FFFFF
0FFFFFFFFFFFFFFF0000001FFFFF
1FFFFFFFFFFFFFFF8000001FFFFF
1FFFFFFFFFFFFFFFC000001FFFFF
3FFFFFFFFFFFFFFFE000001FFFFF
3FFFFFFFFCFFFFFFF000001FFFFF
3FFFFFFFE07FFFFFF000001FFFFF
7FFFFFFF003FFFFFF800001FFFFF
7FFFFFF8001FFFFFFC00001FFFFF
7FFFFF80001FFFFFFE00001FFFFF
7FFFFE00000FFFFFFF00001FFFFF
FFFFFC000007FFFFFF80001FFFFF
FFFFFC000003FFFFFF80001FFFFF
FFFFF8000001FFFFFFC0001FFFFF
FFFFF8000000FFFFFFE0003FFFFF
FFFFF8000000FFFFFFF0003FFFFF
FFFFF80000007FFFFFF8007FFFFE
FFFFF80000003FFFFFF8007FFFFE
FFFFFC0000001FFFFFFC00FFFFFE
FFFFFC0000000FFFFFFE01FFFFFE
7FFFFE00000007FFFFFF07FFFFFC
7FFFFF80000007FFFFFF9FFFFFFC
7FFFFFFFFFFFFFFFFFFFFFFFFFFC
7FFFFFFFFFFFFFFFFFFFFFFFFFF8
3FFFFFFFFFFFFFFFFFFFFFFFFFF8
3FFFFFFFFFFFFFFFFFFFFFFFFFF0
3FFFFFFFFFFFFFFFFFFFFFFFFFF0
1FFFFFFFFFFFFFFFFFFFFFFFFFE0
1FFFFFFFFFFFFFFFFFFFFFFFFFC0
0FFFFFFFFFFFFFFFFFFFFFFFFFC0
07FFFFFFFFFFFFFFFFFFFFFFFF80
07FFFFFFFFFFFFFFFFFFFFFFFF00
03FFFFFFFFFFFFFFFFFFFFFFFE00
01FFFFFFFFFFFFFFFFFFFFFFFC00
00FFFFFFFFFFFFFFFFFFFFFFF800
007FFFFFFFFFFFFFFFFFFFFFF000
003FFFFFFFFFFFFFFFFFFFFFE000
001FFFFFFFFFFFFFFFFFFFFF8000
000FFFFFFFFFFFFFFFFFFFFF0000
0003FFFFFFFFFFFFFFFFFFFC0000
0000FFFFFFFFFFFFFFFFFFF00000
00003FFFFFFFFFFFFFFFFF800000
000003FFFFFFFFFFFFFFF8000000
ENDCHAR
STARTCHAR 0027
ENCODING 39
SWIDTH 262 0
DWIDTH 38 0
BBX 0 0 0 0
BITMAP
ENDCHAR
STARTCHAR 0028
ENCODING 40
SWIDTH 339 0
DWIDTH 49 0
BBX 37 110 0 -2
BITMAP
000007F800
00007FFF00
0001FFFF80
0007FFFFC0
001FFFFFE0
003FFFFFF0
007FFFFFF0
00FFFFFFF0
01FFFFFFF8
03FFFFFFF8
07FFFFFFF8
0FFFFFFFF8
0FFFFFFFF8
1FFFFFFFF8
1FFFFFFFF0
3FFFFFFFF0
3FFFFFFFF0
7FFFFFFFE0
7FFFFFFFC0
7FFFFFFF80
7FFFFFFF00
FFFFFFFC00
FFFFFF0000
FFFFFE0000
FFFFFC0000
FFFFFC0000
FFFFFC0000
FFFFFC0000
FFFFFC0000
FFFFFC0000
FFFFFC0000
FFFFFC0000
FFFFFC0000
FFFFFC0000
FFFFFC0000
FFFFFC0000
FFFFFC0000
FFFFFC0000
FFFFFC0000
FFFFFC0000
FFFFFC0000
FFFFFC0000
FFFFFC0000
FFFFFC0000
FFFFFC0000
FFFFFC0000
FFFFFC0000
FFFFFC0000
FFFFFC0000
FFFFFC0000
FFFFFC0000
FFFFFC0000
FFFFFC0000
FFFFFC0000
FFFFFC0000
FFFFFC0000
FFFFFC0000
FFFFFC0000
FFFFFC0000
FFFFFC0000
FFFFFC0000
FFFFFC0000
FFFFFC0000
FFFFFC0000
FFFFFC0000
FFFFFC0000
FFFFFC0000
FFFFFC0000
FFFFFC0000
FFFFFC0000
FFFFFC0000
FFFFFC0000
FFFFFC0000
FFFFFC0000
FFFFFC0000
FFFFFC0000
FFFFFC0000
FFFFFC0000
FFFFFC0000
FFFFFC0000
FFFFFC0000
FFFFFC0000
FFFFFC0000
FFFFFC0000
FFFFFC0000
FFFFFC0000
FFFFFE0000
FFFFFF0000
FFFFFFFC00
7FFFFFFF00
7FFFFFFF80
7FFFFFFFC0
7FFFFFFFE0
3FFFFFFFF0
3FFFFFFFF0
1FFFFFFFF0
1FFFFFFFF8
0FFFFFFFF8
0FFFFFFFF8
07FFFFFFF8
03FFFFFFF8
01FFFFFFF8
00FFFFFFF0
007FFFFFF0
003FFFFFF0
001FFFFFE0
0007FFFFC0
0001FFFF80
00007FFF00
000007F800
ENDCHAR
STARTCHAR 0029
ENCODING 41
SWIDTH 339 0
DWIDTH 49 0
BBX 37 110 0 -2
BITMAP
00FF000000
07FFF00000
0FFFFC0000
1FFFFF0000
3FFFFFC000
7FFFFFE000
7FFFFFF000
7FFFFFF800
FFFFFFFC00
FFFFFFFE00
FFFFFFFF00
FFFFFFFF80
FFFFFFFF80
FFFFFFFFC0
7FFFFFFFC0
7FFFFFFFE0
7FFFFFFFE0
3FFFFFFFF0
1FFFFFFFF0
0FFFFFFFF0
07FFFFFFF0
01FFFFFFF8
0007FFFFF8
0003FFFFF8
0001FFFFF8
0001FFFFF8
0001FFFFF8
0001FFFFF8
0001FFFFF8
0001FFFFF8
0001FFFFF8
0001FFFFF8
0001FFFFF8
0001FFFFF8
0001FFFFF8
0001FFFFF8
0001FFFFF8
0001FFFFF8
0001FFFFF8
0001FFFFF8
0001FFFFF8
0001FFFFF8
0001FFFFF8
0001FFFFF8
0001FFFFF8
0001FFFFF8
0001FFFFF8
0001FFFFF8
0001FFFFF8
0001FFFFF8
0001FFFFF8
0001FFFFF8
0001FFFFF8
0001FFFFF8
0001FFFFF8
0001FFFFF8
0001FFFFF8
0001FFFFF8
0001FFFFF8
0001FFFFF8
0001FFFFF8
0001FFFFF8
0001FFFFF8
0001FFFFF8
0001FFFFF8
0001FFFFF8
0001FFFFF8
0001FFFFF8
0001FFFFF8
0001FFFFF8
0001FFFFF8
0001FFFFF8
0001FFFFF8
0001FFFFF8
0001FFFFF8
0001FFFFF8
0001FFFFF8
0001FFFFF8
0001FFFFF8
0001FFFFF8
0001FFFFF8
0001FFFFF8
0001FFFFF8
0001FFFFF8
0001FFFFF8
0001FFFFF8
0003FFFFF8
0007FFFFF8
01FFFFFFF8
07FFFFFFF0
0FFFFFFFF0
1FFFFFFFF0
3FFFFFFFF0
7FFFFFFFE0
7FFFFFFFE0
FFFFFFFFC0
FFFFFFFFC0
FFFFFFFF80
FFFFFFFF80
FFFFFFFF00
FFFFFFFE00
FFFFFFFC00
7FFFFFF800
7FFFFFF000
7FFFFFE000
3FFFFFC000
1FFFFF0000
0FFFFC0000
07FFF00000
00FF000000
ENDCHAR
STARTCHAR 002A
ENCODING 42
SWIDTH 941 0
DWIDTH 136 0
BBX 0 0 0 0
BITMAP
ENDCHAR
STARTCHAR 002B
ENCODING 43
SWIDTH 622 0
DWIDTH 90 0
BBX 0 0 0 0
BITMAP
ENDCHAR
STARTCHAR 002C
ENCODING 44
SWIDTH 249 0
DWIDTH 36 0
BBX 25 35 0 -13
BITMAP
001F8000
007FF000
01FFF800
03FFFC00
07FFFE00
07FFFF00
0FFFFF00
0FFFFF00
0FFFFF80
1FFFFF80
1FFFFF80
1FFFFF80
1FFFFF80
3FFFFF80
3FFFFF00
3FFFFF00
3FFFFF00
7FFFFF00
7FFFFE00
7FFFFE00
7FFFFE00
FFFFFE00
FFFFFC00
FFFFFC00
FFFFFC00
FFFFFC00
FFFFF800
FFFFF800
7FFFF800
7FFFF000
3FFFF000
1FFFE000
0FFFC000
07FF0000
01FC0000
ENDCHAR
STARTCHAR 002D
ENCODING 45
SWIDTH 567 0
DWIDTH 82 0
BBX 69 23 0 36
BITMAP
01FFFFFFFFFFFFFC00
07FFFFFFFFFFFFFF00
0FFFFFFFFFFFFFFF80
1FFFFFFFFFFFFFFFC0
3FFFFFFFFFFFFFFFE0
3FFFFFFFFFFFFFFFF0
7FFFFFFFFFFFFFFFF0
7FFFFFFFFFFFFFFFF8
FFFFFFFFFFFFFFFFF8
FFFFFFFFFFFFFFFFF8
FFFFFFFFFFFFFFFFF8
FFFFFFFFFFFFFFFFF8
FFFFFFFFFFFFFFFFF8
FFFFFFFFFFFFFFFFF8
FFFFFFFFFFFFFFFFF8
7FFFFFFFFFFFFFFFF8
7FFFFFFFFFFFFFFFF0
7FFFFFFFFFFFFFFFF0
3FFFFFFFFFFFFFFFE0
1FFFFFFFFFFFFFFFC0
0FFFFFFFFFFFFFFF80
07FFFFFFFFFFFFFF00
01FFFFFFFFFFFFFC00
ENDCHAR
STARTCHAR 002E
ENCODING 46
SWIDTH 256 0
DWIDTH 37 0
BBX 22 24 0 -2
BITMAP
00FC00
07FF80
0FFFC0
1FFFE0
3FFFF0
7FFFF8
7FFFF8
7FFFF8
FFFFFC
FFFFFC
FFFFFC
FFFFFC
FFFFFC
FFFFFC
FFFFFC
FFFFFC
7FFFFC
7FFFF8
7FFFF8
3FFFF0
1FFFE0
0FFFC0
07FF80
00FC00
ENDCHAR
STARTCHAR 002F
ENCODING 47
SWIDTH 380 0
DWIDTH 55 0
BBX 43 111 0 -2
BITMAP
00000007E000
0000001FFC00
0000007FFE00
000000FFFF00
000001FFFF80
000001FFFFC0
000003FFFFC0
000003FFFFE0
000003FFFFE0
000007FFFFE0
000007FFFFE0
000007FFFFE0
000007FFFFE0
00000FFFFFE0
00000FFFFFC0
00000FFFFFC0
00000FFFFFC0
00001FFFFFC0
00001FFFFFC0
00001FFFFF80
00001FFFFF80
00003FFFFF80
00003FFFFF80
00003FFFFF00
00003FFFFF00
00003FFFFF00
00007FFFFF00
00007FFFFE00
00007FFFFE00
00007FFFFE00
0000FFFFFE00
0000FFFFFC00
0000FFFFFC00
0000FFFFFC00
0001FFFFFC00
0001FFFFF800
0001FFFFF800
0001FFFFF800
0003FFFFF800
0003FFFFF800
0003FFFFF000
0003FFFFF000
0007FFFFF000
0007FFFFF000
0007FFFFE000
0007FFFFE000
0007FFFFE000
000FFFFFE000
000FFFFFC000
000FFFFFC000
000FFFFFC000
001FFFFFC000
001FFFFF8000
001FFFFF8000
001FFFFF8000
003FFFFF8000
003FFFFF0000
003FFFFF0000
003FFFFF0000
007FFFFF0000
007FFFFE0000
007FFFFE0000
007FFFFE0000
00FFFFFE0000
00FFFFFE0000
00FFFFFC0000
00FFFFFC0000
00FFFFFC0000
01FFFFFC0000
01FFFFF80000
01FFFFF80000
01FFFFF80000
03FFFFF80000
03FFFFF00000
03FFFFF00000
03FFFFF00000
07FFFFF00000
07FFFFE00000
07FFFFE00000
07FFFFE00000
0FFFFFE00000
0FFFFFC00000
0FFFFFC00000
0FFFFFC00000
1FFFFFC00000
1FFFFFC00000
1FFFFF800000
1FFFFF800000
1FFFFF800000
3FFFFF800000
3FFFFF000000
3FFFFF000000
3FFFFF000000
7FFFFF000000
7FFFFE000000
7FFFFE000000
7FFFFE000000
FFFFFE000000
FFFFFC000000
FFFFFC000000
FFFFFC000000
FFFFFC000000
FFFFF8000000
FFFFF8000000
7FFFF8000000
7FFFF0000000
3FFFF0000000
1FFFE0000000
0FFFC0000000
07FF00000000
01FC00000000
ENDCHAR
STARTCHAR 0030
ENCODING 48
SWIDTH 892 0
DWIDTH 129 0
BBX 113 108 0 0
BITMAP
0000000007FFFFFFFFFFFFF8000000
00000000FFFFFFFFFFFFFFFF800000
00000003FFFFFFFFFFFFFFFFE00000
0000000FFFFFFFFFFFFFFFFFF80000
0000003FFFFFFFFFFFFFFFFFFC0000
000000FFFFFFFFFFFFFFFFFFFE0000
000001FFFFFFFFFFFFFFFFFFFF8000
000003FFFFFFFFFFFFFFFFFFFFC000
00000FFFFFFFFFFFFFFFFFFFFFE000
00001FFFFFFFFFFFFFFFFFFFFFE000
00003FFFFFFFFFFFFFFFFFFFFFF000
00007FFFFFFFFFFFFFFFFFFFFFF800
0000FFFFFFFFFFFFFFFFFFFFFFFC00
0000FFFFFFFFFFFFFFFFFFFFFFFC00
0001FFFFFFFFFFFFFFFFFFFFFFFE00
0003FFFFFFFFFFFFFFFFFFFFFFFE00
0003FFFFFFFFFFFFFFFFFFFFFFFE00
0007FFFFFFFFFFFFFFFFFFFFFFFF00
0007FFFFFFFFFFFFFFFFFFFFFFFF00
000FFFFFFFFFFFFFFFFFFFFFFFFF00
000FFFFFFFFFFFFFFFFFFFFFFFFF80
001FFFFFFE0000000000003FFFFF80
001FFFFFF80000000000001FFFFF80
003FFFFFE00000000000000FFFFF80
003FFFFFE00000000000000FFFFF80
003FFFFFC00000000000000FFFFF80
003FFFFFC00000000000000FFFFF80
007FFFFFC00000000000000FFFFF80
007FFFFFC00000000000000FFFFF80
007FFFFF800000000000000FFFFF80
007FFFFF800000000000000FFFFF80
007FFFFF800000000000000FFFFF80
00FFFFFF800000000000000FFFFF80
00FFFFFF000000000000000FFFFF80
00FFFFFF000000000000000FFFFF80
00FFFFFF000000000000000FFFFF80
00FFFFFF000000000000000FFFFF80
01FFFFFE000000000000000FFFFF80
01FFFFFE000000000000000FFFFF80
01FFFFFE000000000000000FFFFF80
01FFFFFC000000000000000FFFFF80
03FFFFFC000000000000000FFFFF80
03FFFFFC000000000000000FFFFF80
03FFFFFC000000000000000FFFFF80
03FFFFF8000000000000000FFFFF80
03FFFFF8000000000000000FFFFF80
07FFFFF8000000000000000FFFFF80
07FFFFF0000000000000000FFFFF80
07FFFFF0000000000000000FFFFF80
07FFFFF0000000000000000FFFFF80
0FFFFFF0000000000000000FFFFF80
0FFFFFE0000000000000000FFFFF80
0FFFFFE0000000000000000FFFFF80
0FFFFFE0000000000000000FFFFF80
0FFFFFC0000000000000000FFFFF80
1FFFFFC0000000000000000FFFFF80
1FFFFFC0000000000000000FFFFF80
1FFFFFC0000000000000000FFFFF80
1FFFFF80000000000000000FFFFF80
1FFFFF80000000000000000FFFFF80
3FFFFF80000000000000000FFFFF80
3FFFFF00000000000000000FFFFF80
3FFFFF00000000000000000FFFFF80
3FFFFF00000000000000000FFFFF80
7FFFFE00000000000000000FFFFF80
7FFFFE00000000000000000FFFFF80
7FFFFE00000000000000000FFFFF80
7FFFFE00000000000000000FFFFF80
7FFFFC00000000000000000FFFFF80
FFFFFC00000000000000000FFFFF80
FFFFFC00000000000000000FFFFF80
FFFFF800000000000000000FFFFF80
FFFFF800000000000000000FFFFF80
FFFFF800000000000000000FFFFF80
FFFFF800000000000000000FFFFF80
FFFFF800000000000000000FFFFF80
FFFFF800000000000000000FFFFF80
FFFFF800000000000000000FFFFF80
FFFFFC00000000000000000FFFFF80
FFFFFC00000000000000000FFFFF80
7FFFFC00000000000000000FFFFF80
7FFFFE00000000000000000FFFFF80
7FFFFF00000000000000000FFFFF80
7FFFFF80000000000000000FFFFF80
7FFFFFC0000000000000000FFFFF80
3FFFFFE0000000000000001FFFFF80
3FFFFFFC000000000000003FFFFF80
1FFFFFFFFFFFFFFFFFFFFFFFFFFF80
1FFFFFFFFFFFFFFFFFFFFFFFFFFF00
1FFFFFFFFFFFFFFFFFFFFFFFFFFF00
0FFFFFFFFFFFFFFFFFFFFFFFFFFF00
07FFFFFFFFFFFFFFFFFFFFFFFFFE00
07FFFFFFFFFFFFFFFFFFFFFFFFFE00
03FFFFFFFFFFFFFFFFFFFFFFFFFE00
01FFFFFFFFFFFFFFFFFFFFFFFFFC00
01FFFFFFFFFFFFFFFFFFFFFFFFFC00
00FFFFFFFFFFFFFFFFFFFFFFFFF800
007FFFFFFFFFFFFFFFFFFFFFFFF000
003FFFFFFFFFFFFFFFFFFFFFFFE000
001FFFFFFFFFFFFFFFFFFFFFFFE000
000FFFFFFFFFFFFFFFFFFFFFFFC000
0003FFFFFFFFFFFFFFFFFFFFFF8000
0001FFFFFFFFFFFFFFFFFFFFFE0000
00007FFFFFFFFFFFFFFFFFFFFC0000
00003FFFFFFFFFFFFFFFFFFFF80000
000007FFFFFFFFFFFFFFFFFFE00000
000001FFFFFFFFFFFFFFFFFF800000
0000000FFFFFFFFFFFFFFFF8000000
ENDCHAR
STARTCHAR 0031
ENCODING 49
SWIDTH 387 0
DWIDTH 56 0
BBX 45 110 0 -2
BITMAP
01FF80000000
07FFF8000000
0FFFFF000000
1FFFFFC00000
3FFFFFF00000
7FFFFFF80000
7FFFFFFE0000
7FFFFFFF0000
FFFFFFFF8000
FFFFFFFFC000
FFFFFFFFE000
FFFFFFFFF000
FFFFFFFFF800
7FFFFFFFFC00
7FFFFFFFFE00
7FFFFFFFFE00
3FFFFFFFFF00
1FFFFFFFFF80
0FFFFFFFFF80
07FFFFFFFFC0
00FFFFFFFFC0
0001FFFFFFE0
00007FFFFFE0
00001FFFFFE0
00000FFFFFF0
000007FFFFF0
000003FFFFF0
000003FFFFF0
000001FFFFF8
000001FFFFF8
000000FFFFF8
000000FFFFF8
000000FFFFF8
000000FFFFF8
000000FFFFF8
000000FFFFF8
000000FFFFF8
000000FFFFF8
000000FFFFF8
000000FFFFF8
000000FFFFF8
000000FFFFF8
000000FFFFF8
000000FFFFF8
000000FFFFF8
000000FFFFF8
000000FFFFF8
000000FFFFF8
000000FFFFF8
000000FFFFF8
000000FFFFF8
000000FFFFF8
000000FFFFF8
000000FFFFF8
000000FFFFF8
000000FFFFF8
000000FFFFF8
000000FFFFF8
000000FFFFF8
000000FFFFF8
000000FFFFF8
000000FFFFF8
000000FFFFF8
000000FFFFF8
000000FFFFF8
000000FFFFF8
000000FFFFF8
000000FFFFF8
000000FFFFF8
000000FFFFF8
000000FFFFF8
000000FFFFF8
000000FFFFF8
000000FFFFF8
000000FFFFF8
000000FFFFF8
000000FFFFF8
000000FFFFF8
000000FFFFF8
000000FFFFF8
000000FFFFF8
000000FFFFF8
000000FFFFF8
000000FFFFF8
000000FFFFF8
000000FFFFF8
000000FFFFF8
000000FFFFF8
000000FFFFF8
000000FFFFF8
000000FFFFF8
000000FFFFF8
000000FFFFF8
000000FFFFF8
000000FFFFF8
000000FFFFF8
000000FFFFF8
000000FFFFF8
000000FFFFF8
000000FFFFF8
000000FFFFF8
000000FFFFF8
000000FFFFF8
0000007FFFF0
0000007FFFF0
0000003FFFE0
0000001FFFC0
0000000FFF80
00000007FF00
00000001FC00
ENDCHAR
STARTCHAR 0032
ENCODING 50
SWIDTH 892 0
DWIDTH 129 0
BBX 113 108 0 0
BITMAP
00000FFFFFFFFFFFFFFFFF00000000
00007FFFFFFFFFFFFFFFFFF0000000
0003FFFFFFFFFFFFFFFFFFFE000000
0007FFFFFFFFFFFFFFFFFFFF800000
001FFFFFFFFFFFFFFFFFFFFFC00000
003FFFFFFFFFFFFFFFFFFFFFF00000
007FFFFFFFFFFFFFFFFFFFFFF80000
00FFFFFFFFFFFFFFFFFFFFFFFC0000
01FFFFFFFFFFFFFFFFFFFFFFFE0000
03FFFFFFFFFFFFFFFFFFFFFFFF0000
07FFFFFFFFFFFFFFFFFFFFFFFF8000
0FFFFFFFFFFFFFFFFFFFFFFFFFC000
0FFFFFFFFFFFFFFFFFFFFFFFFFE000
1FFFFFFFFFFFFFFFFFFFFFFFFFF000
1FFFFFFFFFFFFFFFFFFFFFFFFFF000
3FFFFFFFFFFFFFFFFFFFFFFFFFF800
3FFFFFFFFFFFFFFFFFFFFFFFFFF800
7FFFFFFFFFFFFFFFFFFFFFFFFFFC00
7FFFFFFFFFFFFFFFFFFFFFFFFFFC00
7FFFFFFFFFFFFFFFFFFFFFFFFFFE00
7FFFFFFFFFFFFFFFFFFFFFFFFFFE00
FFFFFFFFFFFFFFFFFFFFFFFFFFFF00
FFFFFE0000000000000003FFFFFF00
FFFFFC0000000000000000FFFFFF00
FFFFF800000000000000007FFFFF00
FFFFF800000000000000003FFFFF80
FFFFF800000000000000001FFFFF80
FFFFF800000000000000001FFFFF80
FFFFF800000000000000000FFFFF80
FFFFF000000000000000000FFFFF80
7FFFF000000000000000000FFFFF80
7FFFF000000000000000000FFFFF80
3FFFE000000000000000000FFFFF80
1FFFC000000000000000000FFFFF80
0FFF8000000000000000000FFFFF80
03FE0000000000000000001FFFFF80
00700000000000000000001FFFFF80
00000000000000000000003FFFFF00
00000000000000000000007FFFFF00
0000000000000000000000FFFFFF00
0000000000000000000003FFFFFF00
0000000FFFFFFFFFFFFFFFFFFFFE00
000001FFFFFFFFFFFFFFFFFFFFFE00
000007FFFFFFFFFFFFFFFFFFFFFE00
00003FFFFFFFFFFFFFFFFFFFFFFC00
00007FFFFFFFFFFFFFFFFFFFFFFC00
0001FFFFFFFFFFFFFFFFFFFFFFF800
0003FFFFFFFFFFFFFFFFFFFFFFF000
000FFFFFFFFFFFFFFFFFFFFFFFF000
001FFFFFFFFFFFFFFFFFFFFFFFE000
003FFFFFFFFFFFFFFFFFFFFFFFC000
007FFFFFFFFFFFFFFFFFFFFFFF8000
00FFFFFFFFFFFFFFFFFFFFFFFF0000
01FFFFFFFFFFFFFFFFFFFFFFFF0000
01FFFFFFFFFFFFFFFFFFFFFFFC0000
03FFFFFFFFFFFFFFFFFFFFFFF80000
07FFFFFFFFFFFFFFFFFFFFFFF00000
07FFFFFFFFFFFFFFFFFFFFFFC00000
0FFFFFFFFFFFFFFFFFFFFFFF800000
1FFFFFFFFFFFFFFFFFFFFFFE000000
1FFFFFFFFFFFFFFFFFFFFFF0000000
1FFFFFFFFFFFFFFFFFFFFF00000000
3FFFFFFC0000000000000000000000
3FFFFFE00000000000000000000000
7FFFFFC00000000000000000000000
7FFFFF800000000000000000000000
7FFFFF000000000000000000000000
7FFFFE000000000000000000000000
FFFFFC000000000000000000000000
FFFFFC000000000000000000000000
FFFFFC000000000000000000000000
FFFFF8000000000000000000000000
FFFFF8000000000000000000000000
FFFFF8000000000000000000000000
FFFFF8000000000000000000000000
FFFFF8000000000000000000000000
FFFFF8000000000000000000000000
FFFFF8000000000000000000000000
FFFFFC000000000000000000000000
FFFFFC000000000000000000000000
FFFFFC000000000000000000000000
7FFFFE000000000000000000000000
7FFFFF000000000000000000000000
7FFFFF800000000000000000000000
7FFFFFC00000000000000000000000
3FFFFFE00000000000000000000000
3FFFFFFC0000000000000000000000
1FFFFFFFFFFFFFFFFFFFFFFFFF8000
1FFFFFFFFFFFFFFFFFFFFFFFFFE000
1FFFFFFFFFFFFFFFFFFFFFFFFFF800
0FFFFFFFFFFFFFFFFFFFFFFFFFFC00
07FFFFFFFFFFFFFFFFFFFFFFFFFC00
07FFFFFFFFFFFFFFFFFFFFFFFFFE00
03FFFFFFFFFFFFFFFFFFFFFFFFFF00
01FFFFFFFFFFFFFFFFFFFFFFFFFF00
01FFFFFFFFFFFFFFFFFFFFFFFFFF00
00FFFFFFFFFFFFFFFFFFFFFFFFFF00
007FFFFFFFFFFFFFFFFFFFFFFFFF00
003FFFFFFFFFFFFFFFFFFFFFFFFF00
001FFFFFFFFFFFFFFFFFFFFFFFFF00
000FFFFFFFFFFFFFFFFFFFFFFFFF00
0003FFFFFFFFFFFFFFFFFFFFFFFF00
0001FFFFFFFFFFFFFFFFFFFFFFFE00
00007FFFFFFFFFFFFFFFFFFFFFFC00
00003FFFFFFFFFFFFFFFFFFFFFFC00
000007FFFFFFFFFFFFFFFFFFFFF800
000001FFFFFFFFFFFFFFFFFFFFE000
0000000FFFFFFFFFFFFFFFFFFF8000
ENDCHAR
STARTCHAR 0033
ENCODING 51
SWIDTH 892 0
DWIDTH 129 0
BBX 113 108 0 0
BITMAP
00000FFFFFFFFFFFFFFFF800000000
00007FFFFFFFFFFFFFFFFF80000000
0003FFFFFFFFFFFFFFFFFFF0000000
0007FFFFFFFFFFFFFFFFFFFC000000
001FFFFFFFFFFFFFFFFFFFFE000000
003FFFFFFFFFFFFFFFFFFFFF800000
007FFFFFFFFFFFFFFFFFFFFFC00000
00FFFFFFFFFFFFFFFFFFFFFFE00000
01FFFFFFFFFFFFFFFFFFFFFFF00000
03FFFFFFFFFFFFFFFFFFFFFFF80000
07FFFFFFFFFFFFFFFFFFFFFFFC0000
0FFFFFFFFFFFFFFFFFFFFFFFFE0000
0FFFFFFFFFFFFFFFFFFFFFFFFF0000
1FFFFFFFFFFFFFFFFFFFFFFFFF8000
1FFFFFFFFFFFFFFFFFFFFFFFFF8000
3FFFFFFFFFFFFFFFFFFFFFFFFFC000
3FFFFFFFFFFFFFFFFFFFFFFFFFE000
7FFFFFFFFFFFFFFFFFFFFFFFFFE000
7FFFFFFFFFFFFFFFFFFFFFFFFFE000
7FFFFFFFFFFFFFFFFFFFFFFFFFF000
7FFFFFFFFFFFFFFFFFFFFFFFFFF000
FFFFFFFFFFFFFFFFFFFFFFFFFFF800
FFFFFE000000000000001FFFFFF800
FFFFFC0000000000000007FFFFF800
FFFFF80000000000000003FFFFF800
FFFFF80000000000000001FFFFFC00
FFFFF80000000000000000FFFFFC00
FFFFF80000000000000000FFFFFC00
FFFFF800000000000000007FFFFC00
FFFFF000000000000000007FFFFC00
7FFFF000000000000000007FFFFC00
7FFFF000000000000000007FFFFC00
3FFFE000000000000000007FFFFC00
1FFFC000000000000000007FFFFC00
0FFF8000000000000000007FFFFC00
03FE000000000000000000FFFFFC00
0070000000000000000000FFFFFC00
0000000000000000000001FFFFF800
0000000000000000000003FFFFF800
0000000000000000000007FFFFF800
000000000000000000001FFFFFF800
000000000000000FFFFFFFFFFFF000
000000000000003FFFFFFFFFFFF000
000000000000007FFFFFFFFFFFE000
00000000000000FFFFFFFFFFFFE000
00000000000001FFFFFFFFFFFFC000
00000000000003FFFFFFFFFFFFC000
00000000000003FFFFFFFFFFFF8000
00000000000003FFFFFFFFFFFF8000
00000000000007FFFFFFFFFFFF0000
00000000000007FFFFFFFFFFFF0000
00000000000007FFFFFFFFFFFF8000
00000000000007FFFFFFFFFFFF8000
00000000000007FFFFFFFFFFFFC000
00000000000007FFFFFFFFFFFFE000
00000000000003FFFFFFFFFFFFF000
00000000000003FFFFFFFFFFFFF000
00000000000001FFFFFFFFFFFFF800
00000000000000FFFFFFFFFFFFF800
000000000000007FFFFFFFFFFFFC00
000000000000003FFFFFFFFFFFFC00
000000000000000FFFFFFFFFFFFE00
000000000000000000001FFFFFFE00
0000000000000000000007FFFFFE00
0000000000000000000001FFFFFF00
0000000000000000000000FFFFFF00
00000000000000000000007FFFFF00
00000000000000000000003FFFFF00
00000000000000000000003FFFFF80
00000000000000000000001FFFFF80
00000000000000000000001FFFFF80
00000000000000000000000FFFFF80
01F80000000000000000000FFFFF80
07FF0000000000000000000FFFFF80
0FFF8000000000000000000FFFFF80
1FFFC000000000000000000FFFFF80
3FFFE000000000000000000FFFFF80
7FFFF000000000000000000FFFFF80
7FFFF000000000000000001FFFFF80
FFFFF800000000000000001FFFFF80
FFFFF800000000000000001FFFFF00
FFFFF800000000000000003FFFFF00
FFFFF800000000000000007FFFFF00
FFFFF80000000000000000FFFFFF00
FFFFF80000000000000001FFFFFE00
FFFFFC0000000000000003FFFFFE00
FFFFFE000000000000001FFFFFFE00
FFFFFFFFFFFFFFFFFFFFFFFFFFFC00
7FFFFFFFFFFFFFFFFFFFFFFFFFFC00
7FFFFFFFFFFFFFFFFFFFFFFFFFF800
7FFFFFFFFFFFFFFFFFFFFFFFFFF800
7FFFFFFFFFFFFFFFFFFFFFFFFFF000
3FFFFFFFFFFFFFFFFFFFFFFFFFF000
3FFFFFFFFFFFFFFFFFFFFFFFFFE000
1FFFFFFFFFFFFFFFFFFFFFFFFFC000
1FFFFFFFFFFFFFFFFFFFFFFFFF8000
0FFFFFFFFFFFFFFFFFFFFFFFFF8000
07FFFFFFFFFFFFFFFFFFFFFFFF0000
03FFFFFFFFFFFFFFFFFFFFFFFE0000
03FFFFFFFFFFFFFFFFFFFFFFFC0000
01FFFFFFFFFFFFFFFFFFFFFFF80000
00FFFFFFFFFFFFFFFFFFFFFFE00000
003FFFFFFFFFFFFFFFFFFFFFC00000
001FFFFFFFFFFFFFFFFFFFFF000000
000FFFFFFFFFFFFFFFFFFFFE000000
0003FFFFFFFFFFFFFFFFFFF0000000
00007FFFFFFFFFFFFFFFFFC0000000
00000FFFFFFFFFFFFFFFF800000000
ENDCHAR
STARTCHAR 0034
ENCODING 52
SWIDTH 892 0
DWIDTH 129 0
BBX 116 111 0 -2
BITMAP
00FC0000000000000000000007F000
07FF000000000000000000001FFC00
0FFFC00000000000000000003FFF00
1FFFE00000000000000000007FFF80
3FFFF0000000000000000000FFFFC0
7FFFF0000000000000000001FFFFC0
7FFFF8000000000000000001FFFFE0
FFFFF8000000000000000003FFFFE0
FFFFFC000000000000000003FFFFF0
FFFFFC000000000000000003FFFFF0
FFFFFC000000000000000003FFFFF0
FFFFFC000000000000000003FFFFF0
FFFFFC000000000000000003FFFFF0
FFFFFC000000000000000003FFFFF0
FFFFFC000000000000000003FFFFF0
FFFFFC000000000000000003FFFFF0
FFFFFC000000000000000003FFFFF0
FFFFFC000000000000000003FFFFF0
FFFFFC000000000000000003FFFFF0
FFFFFC000000000000000003FFFFF0
FFFFFC000000000000000003FFFFF0
FFFFFC000000000000000003FFFFF0
FFFFFC000000000000000003FFFFF0
FFFFFC000000000000000003FFFFF0
FFFFFC000000000000000003FFFFF0
FFFFFC000000000000000003FFFFF0
FFFFFC000000000000000003FFFFF0
FFFFFC000000000000000003FFFFF0
FFFFFC000000000000000003FFFFF0
FFFFFC000000000000000003FFFFF0
FFFFFC000000000000000003FFFFF0
FFFFFC000000000000000003FFFFF0
FFFFFC000000000000000003FFFFF0
FFFFFC000000000000000003FFFFF0
FFFFFC000000000000000003FFFFF0
FFFFFC000000000000000003FFFFF0
FFFFFC000000000000000003FFFFF0
FFFFFC000000000000000003FFFFF0
FFFFFC000000000000000003FFFFF0
FFFFFC000000000000000003FFFFF0
FFFFFC000000000000000003FFFFF0
FFFFFC000000000000000003FFFFF0
FFFFFC000000000000000003FFFFF0
FFFFFC000000000000000003FFFFF0
FFFFFC000000000000000003FFFFF0
FFFFFC000000000000000003FFFFF0
FFFFFC000000000000000003FFFFF0
FFFFFC000000000000000003FFFFF0
FFFFFC000000000000000003FFFFF0
FFFFFC000000000000000003FFFFF0
FFFFFC000000000000000003FFFFF0
FFFFFC000000000000000003FFFFF0
FFFFFC000000000000000003FFFFF0
FFFFFE000000000000000003FFFFF0
FFFFFE000000000000000003FFFFF0
FFFFFF000000000000000003FFFFF0
7FFFFF000000000000000003FFFFF0
7FFFFF800000000000000003FFFFF0
7FFFFFC00000000000000003FFFFF0
7FFFFFF00000000000000003FFFFF0
3FFFFFFC0000000000000003FFFFF0
3FFFFFFFFFFFFFFFFFFFFFFFFFFFF0
1FFFFFFFFFFFFFFFFFFFFFFFFFFFF0
1FFFFFFFFFFFFFFFFFFFFFFFFFFFF0
0FFFFFFFFFFFFFFFFFFFFFFFFFFFF0
0FFFFFFFFFFFFFFFFFFFFFFFFFFFF0
07FFFFFFFFFFFFFFFFFFFFFFFFFFF0
07FFFFFFFFFFFFFFFFFFFFFFFFFFF0
03FFFFFFFFFFFFFFFFFFFFFFFFFFF0
01FFFFFFFFFFFFFFFFFFFFFFFFFFF0
00FFFFFFFFFFFFFFFFFFFFFFFFFFF0
007FFFFFFFFFFFFFFFFFFFFFFFFFF0
007FFFFFFFFFFFFFFFFFFFFFFFFFF0
003FFFFFFFFFFFFFFFFFFFFFFFFFF0
000FFFFFFFFFFFFFFFFFFFFFFFFFF0
0007FFFFFFFFFFFFFFFFFFFFFFFFF0
0003FFFFFFFFFFFFFFFFFFFFFFFFF0
0001FFFFFFFFFFFFFFFFFFFFFFFFF0
00007FFFFFFFFFFFFFFFFFFFFFFFF0
00001FFFFFFFFFFFFFFFFFFFFFFFF0
000007FFFFFFFFFFFFFFFFFFFFFFF0
000000FFFFFFFFFFFFFFFFFFFFFFF0
0000000FFFFFFFFFFFFFFFFFFFFFF0
000000000000000000000003FFFFF0
000000000000000000000003FFFFF0
000000000000000000000003FFFFF0
000000000000000000000003FFFFF0
000000000000000000000003FFFFF0
000000000000000000000003FFFFF0
000000000000000000000003FFFFF0
000000000000000000000003FFFFF0
000000000000000000000003FFFFF0
000000000000000000000003FFFFF0
000000000000000000000003FFFFF0
000000000000000000000003FFFFF0
000000000000000000000003FFFFF0
000000000000000000000003FFFFF0
000000000000000000000003FFFFF0
000000000000000000000003FFFFF0
000000000000000000000003FFFFF0
000000000000000000000003FFFFF0
000000000000000000000003FFFFF0
000000000000000000000003FFFFF0
000000000000000000000003FFFFE0
000000000000000000000001FFFFE0
000000000000000000000001FFFFC0
000000000000000000000000FFFFC0
0000000000000000000000007FFF80
0000000000000000000000003FFF00
0000000000000000000000001FFC00
00000000000000000000000007F000
ENDCHAR
STARTCHAR 0035
ENCODING 53
SWIDTH 892 0
DWIDTH 129 0
BBX 113 108 0 0
BITMAP
0000007FFFFFFFFFFFFFFFFFFF8000
000007FFFFFFFFFFFFFFFFFFFFE000
00003FFFFFFFFFFFFFFFFFFFFFF000
0000FFFFFFFFFFFFFFFFFFFFFFF800
0001FFFFFFFFFFFFFFFFFFFFFFFC00
0007FFFFFFFFFFFFFFFFFFFFFFFE00
000FFFFFFFFFFFFFFFFFFFFFFFFE00
001FFFFFFFFFFFFFFFFFFFFFFFFF00
003FFFFFFFFFFFFFFFFFFFFFFFFF00
007FFFFFFFFFFFFFFFFFFFFFFFFF00
00FFFFFFFFFFFFFFFFFFFFFFFFFF00
01FFFFFFFFFFFFFFFFFFFFFFFFFF00
03FFFFFFFFFFFFFFFFFFFFFFFFFF00
07FFFFFFFFFFFFFFFFFFFFFFFFFF00
07FFFFFFFFFFFFFFFFFFFFFFFFFF00
0FFFFFFFFFFFFFFFFFFFFFFFFFFE00
1FFFFFFFFFFFFFFFFFFFFFFFFFFE00
1FFFFFFFFFFFFFFFFFFFFFFFFFFC00
3FFFFFFFFFFFFFFFFFFFFFFFFFF800
3FFFFFFFFFFFFFFFFFFFFFFFFFF000
3FFFFFFFFFFFFFFFFFFFFFFFFFE000
7FFFFFFFFFFFFFFFFFFFFFFFFF8000
7FFFFFE00000000000000000000000
7FFFFF800000000000000000000000
FFFFFF000000000000000000000000
FFFFFE000000000000000000000000
FFFFFC000000000000000000000000
FFFFFC000000000000000000000000
FFFFF8000000000000000000000000
FFFFF8000000000000000000000000
FFFFF8000000000000000000000000
FFFFF8000000000000000000000000
FFFFF8000000000000000000000000
FFFFF8000000000000000000000000
FFFFF8000000000000000000000000
FFFFFC000000000000000000000000
FFFFFC000000000000000000000000
FFFFFE000000000000000000000000
7FFFFF000000000000000000000000
7FFFFF800000000000000000000000
7FFFFFE00000000000000000000000
7FFFFFFFFFFFFFFFFFFFF800000000
3FFFFFFFFFFFFFFFFFFFFF80000000
3FFFFFFFFFFFFFFFFFFFFFF0000000
1FFFFFFFFFFFFFFFFFFFFFFC000000
1FFFFFFFFFFFFFFFFFFFFFFF000000
0FFFFFFFFFFFFFFFFFFFFFFFC00000
0FFFFFFFFFFFFFFFFFFFFFFFE00000
07FFFFFFFFFFFFFFFFFFFFFFF00000
03FFFFFFFFFFFFFFFFFFFFFFFC0000
01FFFFFFFFFFFFFFFFFFFFFFFE0000
01FFFFFFFFFFFFFFFFFFFFFFFF0000
00FFFFFFFFFFFFFFFFFFFFFFFF8000
007FFFFFFFFFFFFFFFFFFFFFFF8000
003FFFFFFFFFFFFFFFFFFFFFFFC000
000FFFFFFFFFFFFFFFFFFFFFFFE000
0007FFFFFFFFFFFFFFFFFFFFFFF000
0003FFFFFFFFFFFFFFFFFFFFFFF000
0000FFFFFFFFFFFFFFFFFFFFFFF800
00003FFFFFFFFFFFFFFFFFFFFFF800
000007FFFFFFFFFFFFFFFFFFFFFC00
0000007FFFFFFFFFFFFFFFFFFFFC00
000000000000000000001FFFFFFE00
0000000000000000000007FFFFFE00
0000000000000000000001FFFFFE00
0000000000000000000000FFFFFF00
00000000000000000000007FFFFF00
00000000000000000000003FFFFF00
00000000000000000000003FFFFF00
00000000000000000000001FFFFF80
00000000000000000000001FFFFF80
00000000000000000000001FFFFF80
01F80000000000000000000FFFFF80
07FF0000000000000000000FFFFF80
0FFF8000000000000000000FFFFF80
1FFFC000000000000000000FFFFF80
3FFFE000000000000000000FFFFF80
7FFFF000000000000000000FFFFF80
7FFFF000000000000000001FFFFF80
FFFFF000000000000000001FFFFF80
FFFFF800000000000000003FFFFF00
FFFFF800000000000000003FFFFF00
FFFFF800000000000000007FFFFF00
FFFFF80000000000000000FFFFFF00
FFFFF80000000000000001FFFFFE00
FFFFFC0000000000000007FFFFFE00
FFFFFE000000000000001FFFFFFE00
FFFFFFFFFFFFFFFFFFFFFFFFFFFC00
FFFFFFFFFFFFFFFFFFFFFFFFFFFC00
7FFFFFFFFFFFFFFFFFFFFFFFFFF800
7FFFFFFFFFFFFFFFFFFFFFFFFFF800
7FFFFFFFFFFFFFFFFFFFFFFFFFF000
3FFFFFFFFFFFFFFFFFFFFFFFFFF000
3FFFFFFFFFFFFFFFFFFFFFFFFFE000
1FFFFFFFFFFFFFFFFFFFFFFFFFC000
1FFFFFFFFFFFFFFFFFFFFFFFFF8000
0FFFFFFFFFFFFFFFFFFFFFFFFF8000
07FFFFFFFFFFFFFFFFFFFFFFFF0000
07FFFFFFFFFFFFFFFFFFFFFFFE0000
03FFFFFFFFFFFFFFFFFFFFFFFC0000
01FFFFFFFFFFFFFFFFFFFFFFF00000
00FFFFFFFFFFFFFFFFFFFFFFE00000
007FFFFFFFFFFFFFFFFFFFFFC00000
001FFFFFFFFFFFFFFFFFFFFF000000
000FFFFFFFFFFFFFFFFFFFFC000000
0003FFFFFFFFFFFFFFFFFFF0000000
0000FFFFFFFFFFFFFFFFFFC0000000
00000FFFFFFFFFFFFFFFF800000000
ENDCHAR
STARTCHAR 0036
ENCODING 54
SWIDTH 892 0
DWIDTH 129 0
BBX 113 109 0 -1
BITMAP
0000000FFFFFFFFFFFFFFFF8000000
000001FFFFFFFFFFFFFFFFFF000000
000007FFFFFFFFFFFFFFFFFFE00000
00001FFFFFFFFFFFFFFFFFFFF00000
00007FFFFFFFFFFFFFFFFFFFFC0000
0001FFFFFFFFFFFFFFFFFFFFFE0000
0003FFFFFFFFFFFFFFFFFFFFFF0000
0007FFFFFFFFFFFFFFFFFFFFFF8000
001FFFFFFFFFFFFFFFFFFFFFFFC000
003FFFFFFFFFFFFFFFFFFFFFFFE000
007FFFFFFFFFFFFFFFFFFFFFFFF000
00FFFFFFFFFFFFFFFFFFFFFFFFF800
00FFFFFFFFFFFFFFFFFFFFFFFFF800
01FFFFFFFFFFFFFFFFFFFFFFFFFC00
03FFFFFFFFFFFFFFFFFFFFFFFFFC00
07FFFFFFFFFFFFFFFFFFFFFFFFFE00
07FFFFFFFFFFFFFFFFFFFFFFFFFE00
0FFFFFFFFFFFFFFFFFFFFFFFFFFF00
0FFFFFFFFFFFFFFFFFFFFFFFFFFF00
1FFFFFFFFFFFFFFFFFFFFFFFFFFF00
1FFFFFFFFFFFFFFFFFFFFFFFFFFF00
3FFFFFFFFFFFFFFFFFFFFFFFFFFF80
3FFFFFFC000000000000003FFFFF80
3FFFFFE0000000000000001FFFFF80
7FFFFFC0000000000000000FFFFF80
7FFFFF80000000000000000FFFFF80
7FFFFF00000000000000000FFFFF80
7FFFFE00000000000000000FFFFF80
FFFFFC00000000000000000FFFFF80
FFFFFC00000000000000000FFFFF00
FFFFFC000000000000000007FFFF00
FFFFF8000000000000000007FFFF00
FFFFF8000000000000000003FFFE00
FFFFF8000000000000000001FFFC00
FFFFF8000000000000000000FFF800
FFFFF80000000000000000007FF000
FFFFF80000000000000000000F8000
FFFFF8000000000000000000000000
FFFFF8000000000000000000000000
FFFFF8000000000000000000000000
FFFFF8000000000000000000000000
FFFFFFFFFFFFFFFFFFFFF800000000
FFFFFFFFFFFFFFFFFFFFFFC0000000
FFFFFFFFFFFFFFFFFFFFFFF0000000
FFFFFFFFFFFFFFFFFFFFFFFC000000
FFFFFFFFFFFFFFFFFFFFFFFF000000
FFFFFFFFFFFFFFFFFFFFFFFFC00000
FFFFFFFFFFFFFFFFFFFFFFFFE00000
FFFFFFFFFFFFFFFFFFFFFFFFF00000
FFFFFFFFFFFFFFFFFFFFFFFFFC0000
FFFFFFFFFFFFFFFFFFFFFFFFFE0000
FFFFFFFFFFFFFFFFFFFFFFFFFF0000
FFFFFFFFFFFFFFFFFFFFFFFFFF8000
FFFFFFFFFFFFFFFFFFFFFFFFFF8000
FFFFFFFFFFFFFFFFFFFFFFFFFFC000
FFFFFFFFFFFFFFFFFFFFFFFFFFE000
FFFFFFFFFFFFFFFFFFFFFFFFFFF000
FFFFFFFFFFFFFFFFFFFFFFFFFFF000
FFFFFFFFFFFFFFFFFFFFFFFFFFF800
FFFFFFFFFFFFFFFFFFFFFFFFFFF800
FFFFFFFFFFFFFFFFFFFFFFFFFFFC00
FFFFFFFFFFFFFFFFFFFFFFFFFFFC00
FFFFF8000000000000001FFFFFFE00
FFFFF80000000000000007FFFFFE00
FFFFF80000000000000001FFFFFE00
FFFFF80000000000000000FFFFFF00
FFFFF800000000000000007FFFFF00
FFFFF800000000000000003FFFFF00
FFFFF800000000000000003FFFFF00
FFFFF800000000000000001FFFFF80
FFFFF800000000000000001FFFFF80
FFFFF800000000000000000FFFFF80
FFFFF800000000000000000FFFFF80
FFFFF800000000000000000FFFFF80
FFFFF800000000000000000FFFFF80
FFFFF800000000000000000FFFFF80
FFFFF800000000000000000FFFFF80
FFFFF800000000000000000FFFFF80
FFFFFC00000000000000001FFFFF80
FFFFFC00000000000000001FFFFF80
FFFFFC00000000000000003FFFFF80
7FFFFE00000000000000003FFFFF00
7FFFFF00000000000000007FFFFF00
7FFFFF8000000000000000FFFFFF00
7FFFFFC000000000000001FFFFFF00
3FFFFFE000000000000007FFFFFE00
3FFFFFFC0000000000001FFFFFFE00
3FFFFFFFFFFFFFFFFFFFFFFFFFFE00
1FFFFFFFFFFFFFFFFFFFFFFFFFFC00
1FFFFFFFFFFFFFFFFFFFFFFFFFFC00
0FFFFFFFFFFFFFFFFFFFFFFFFFF800
0FFFFFFFFFFFFFFFFFFFFFFFFFF800
07FFFFFFFFFFFFFFFFFFFFFFFFF000
07FFFFFFFFFFFFFFFFFFFFFFFFF000
03FFFFFFFFFFFFFFFFFFFFFFFFE000
01FFFFFFFFFFFFFFFFFFFFFFFFC000
00FFFFFFFFFFFFFFFFFFFFFFFFC000
00FFFFFFFFFFFFFFFFFFFFFFFF8000
007FFFFFFFFFFFFFFFFFFFFFFF0000
003FFFFFFFFFFFFFFFFFFFFFFE0000
001FFFFFFFFFFFFFFFFFFFFFFC0000
000FFFFFFFFFFFFFFFFFFFFFF80000
0003FFFFFFFFFFFFFFFFFFFFE00000
0001FFFFFFFFFFFFFFFFFFFFC00000
00007FFFFFFFFFFFFFFFFFFF000000
00003FFFFFFFFFFFFFFFFFFE000000
000007FFFFFFFFFFFFFFFFF0000000
000001FFFFFFFFFFFFFFFFC0000000
0000000FFFFFFFFFFFFFF800000000
ENDCHAR
STARTCHAR 0037
ENCODING 55
SWIDTH 892 0
DWIDTH 129 0
BBX 115 110 0 -2
BITMAP
00000FFFFFFFFFFFFFFFFE00000000
00007FFFFFFFFFFFFFFFFFE0000000
0003FFFFFFFFFFFFFFFFFFFC000000
000FFFFFFFFFFFFFFFFFFFFF000000
001FFFFFFFFFFFFFFFFFFFFFC00000
007FFFFFFFFFFFFFFFFFFFFFE00000
00FFFFFFFFFFFFFFFFFFFFFFF80000
01FFFFFFFFFFFFFFFFFFFFFFFC0000
03FFFFFFFFFFFFFFFFFFFFFFFE0000
07FFFFFFFFFFFFFFFFFFFFFFFF0000
07FFFFFFFFFFFFFFFFFFFFFFFF8000
0FFFFFFFFFFFFFFFFFFFFFFFFFC000
1FFFFFFFFFFFFFFFFFFFFFFFFFE000
1FFFFFFFFFFFFFFFFFFFFFFFFFF000
3FFFFFFFFFFFFFFFFFFFFFFFFFF800
3FFFFFFFFFFFFFFFFFFFFFFFFFF800
7FFFFFFFFFFFFFFFFFFFFFFFFFFC00
7FFFFFFFFFFFFFFFFFFFFFFFFFFE00
7FFFFFFFFFFFFFFFFFFFFFFFFFFE00
FFFFFFFFFFFFFFFFFFFFFFFFFFFF00
FFFFFFFFFFFFFFFFFFFFFFFFFFFF00
FFFFFE0000000000000007FFFFFF00
FFFFFC0000000000000001FFFFFF80
FFFFF80000000000000000FFFFFF80
FFFFF800000000000000003FFFFFC0
FFFFF800000000000000001FFFFFC0
FFFFF800000000000000001FFFFFC0
FFFFF800000000000000000FFFFFC0
FFFFF0000000000000000007FFFFC0
7FFFF0000000000000000007FFFFE0
7FFFF0000000000000000007FFFFE0
3FFFE0000000000000000003FFFFE0
1FFFC0000000000000000003FFFFE0
0FFF80000000000000000003FFFFE0
07FF00000000000000000003FFFFE0
01F800000000000000000003FFFFE0
000000000000000000000003FFFFE0
000000000000000000000007FFFFE0
000000000000000000000007FFFFE0
000000000000000000000007FFFFC0
00000000000000000000000FFFFFC0
00000000000000000000001FFFFFC0
00000000000000000000001FFFFFC0
00000000000000000000003FFFFFC0
00000000000000000000007FFFFF80
0000000000000000000000FFFFFF80
0000000000000000000001FFFFFF80
0000000000000000000003FFFFFF00
0000000000000000000003FFFFFF00
0000000000000000000007FFFFFE00
000000000000000000000FFFFFFE00
000000000000000000001FFFFFFC00
000000000000000000003FFFFFFC00
000000000000000000007FFFFFF800
000000000000000000007FFFFFF000
00000000000000000000FFFFFFF000
00000000000000000001FFFFFFE000
00000000000000000003FFFFFFC000
00000000000000000007FFFFFF8000
0000000000000000000FFFFFFF0000
0000000000000000000FFFFFFF0000
0000000000000000001FFFFFFE0000
0000000000000000003FFFFFFC0000
0000000000000000007FFFFFF80000
000000000000000000FFFFFFF00000
000000000000000001FFFFFFE00000
000000000000000001FFFFFFE00000
000000000000000003FFFFFFC00000
000000000000000007FFFFFF800000
00000000000000000FFFFFFF000000
00000000000000001FFFFFFE000000
00000000000000003FFFFFFC000000
00000000000000003FFFFFFC000000
00000000000000007FFFFFF8000000
0000000000000000FFFFFFF0000000
0000000000000001FFFFFFE0000000
0000000000000003FFFFFFC0000000
0000000000000007FFFFFF80000000
0000000000000007FFFFFF80000000
000000000000000FFFFFFF00000000
000000000000001FFFFFFE00000000
000000000000003FFFFFFC00000000
000000000000007FFFFFF800000000
00000000000000FFFFFFF000000000
00000000000000FFFFFFF000000000
00000000000001FFFFFFE000000000
00000000000003FFFFFFC000000000
00000000000007FFFFFF8000000000
0000000000000FFFFFFF0000000000
0000000000001FFFFFFE0000000000
0000000000001FFFFFFE0000000000
0000000000003FFFFFFC0000000000
0000000000007FFFFFF80000000000
000000000000FFFFFFF00000000000
000000000000FFFFFFE00000000000
000000000001FFFFFFE00000000000
000000000001FFFFFFC00000000000
000000000001FFFFFF800000000000
000000000001FFFFFF000000000000
000000000001FFFFFE000000000000
000000000001FFFFFC000000000000
000000000001FFFFFC000000000000
000000000001FFFFF8000000000000
000000000000FFFFF0000000000000
000000000000FFFFE0000000000000
0000000000007FFFC0000000000000
0000000000003FFF80000000000000
0000000000001FFF00000000000000
0000000000000FFE00000000000000
00000000000003F800000000000000
ENDCHAR
STARTCHAR 0038
ENCODING 56
SWIDTH 892 0
DWIDTH 129 0
BBX 113 108 0 0
BITMAP
0000000FFFFFFFFFFFFFF800000000
000000FFFFFFFFFFFFFFFF80000000
000007FFFFFFFFFFFFFFFFF0000000
00001FFFFFFFFFFFFFFFFFFC000000
00003FFFFFFFFFFFFFFFFFFE000000
0000FFFFFFFFFFFFFFFFFFFF800000
0001FFFFFFFFFFFFFFFFFFFFC00000
0003FFFFFFFFFFFFFFFFFFFFE00000
0007FFFFFFFFFFFFFFFFFFFFF00000
000FFFFFFFFFFFFFFFFFFFFFF80000
001FFFFFFFFFFFFFFFFFFFFFFC0000
003FFFFFFFFFFFFFFFFFFFFFFE0000
007FFFFFFFFFFFFFFFFFFFFFFF0000
00FFFFFFFFFFFFFFFFFFFFFFFF8000
00FFFFFFFFFFFFFFFFFFFFFFFF8000
01FFFFFFFFFFFFFFFFFFFFFFFFC000
03FFFFFFFFFFFFFFFFFFFFFFFFE000
03FFFFFFFFFFFFFFFFFFFFFFFFE000
07FFFFFFFFFFFFFFFFFFFFFFFFE000
07FFFFFFFFFFFFFFFFFFFFFFFFF000
07FFFFFFFFFFFFFFFFFFFFFFFFF000
0FFFFFFFFFFFFFFFFFFFFFFFFFF800
0FFFFFFC0000000000001FFFFFF800
0FFFFFF000000000000007FFFFF800
0FFFFFE000000000000003FFFFF800
1FFFFFC000000000000001FFFFFC00
1FFFFF8000000000000000FFFFFC00
1FFFFF8000000000000000FFFFFC00
1FFFFF00000000000000007FFFFC00
1FFFFF00000000000000007FFFFC00
1FFFFF00000000000000007FFFFC00
1FFFFF00000000000000007FFFFC00
1FFFFF00000000000000007FFFFC00
1FFFFF00000000000000007FFFFC00
1FFFFF00000000000000007FFFFC00
1FFFFF8000000000000000FFFFFC00
1FFFFF8000000000000000FFFFFC00
0FFFFFC000000000000001FFFFF800
0FFFFFE000000000000003FFFFF800
0FFFFFF000000000000007FFFFF800
0FFFFFFC0000000000001FFFFFF800
07FFFFFFFFFFFFFFFFFFFFFFFFF000
07FFFFFFFFFFFFFFFFFFFFFFFFF000
03FFFFFFFFFFFFFFFFFFFFFFFFE000
03FFFFFFFFFFFFFFFFFFFFFFFFE000
01FFFFFFFFFFFFFFFFFFFFFFFFC000
01FFFFFFFFFFFFFFFFFFFFFFFFC000
00FFFFFFFFFFFFFFFFFFFFFFFF8000
00FFFFFFFFFFFFFFFFFFFFFFFF8000
007FFFFFFFFFFFFFFFFFFFFFFF0000
003FFFFFFFFFFFFFFFFFFFFFFF0000
007FFFFFFFFFFFFFFFFFFFFFFF8000
00FFFFFFFFFFFFFFFFFFFFFFFF8000
01FFFFFFFFFFFFFFFFFFFFFFFFC000
03FFFFFFFFFFFFFFFFFFFFFFFFE000
03FFFFFFFFFFFFFFFFFFFFFFFFF000
07FFFFFFFFFFFFFFFFFFFFFFFFF000
0FFFFFFFFFFFFFFFFFFFFFFFFFF800
0FFFFFFFFFFFFFFFFFFFFFFFFFF800
1FFFFFFFFFFFFFFFFFFFFFFFFFFC00
1FFFFFFFFFFFFFFFFFFFFFFFFFFC00
3FFFFFFFFFFFFFFFFFFFFFFFFFFE00
3FFFFFFC0000000000001FFFFFFE00
3FFFFFF000000000000007FFFFFE00
7FFFFFC000000000000001FFFFFF00
7FFFFF8000000000000000FFFFFF00
7FFFFF00000000000000007FFFFF00
7FFFFE00000000000000003FFFFF00
FFFFFC00000000000000003FFFFF80
FFFFFC00000000000000001FFFFF80
FFFFFC00000000000000001FFFFF80
FFFFF800000000000000000FFFFF80
FFFFF800000000000000000FFFFF80
FFFFF800000000000000000FFFFF80
FFFFF800000000000000000FFFFF80
FFFFF800000000000000000FFFFF80
FFFFF800000000000000000FFFFF80
FFFFF800000000000000000FFFFF80
FFFFFC00000000000000001FFFFF80
FFFFFC00000000000000001FFFFF80
7FFFFC00000000000000001FFFFF00
7FFFFE00000000000000003FFFFF00
7FFFFF00000000000000007FFFFF00
7FFFFF8000000000000000FFFFFF00
7FFFFFC000000000000001FFFFFE00
3FFFFFE000000000000003FFFFFE00
3FFFFFFC0000000000001FFFFFFE00
1FFFFFFFFFFFFFFFFFFFFFFFFFFC00
1FFFFFFFFFFFFFFFFFFFFFFFFFFC00
0FFFFFFFFFFFFFFFFFFFFFFFFFF800
0FFFFFFFFFFFFFFFFFFFFFFFFFF800
07FFFFFFFFFFFFFFFFFFFFFFFFF000
07FFFFFFFFFFFFFFFFFFFFFFFFF000
03FFFFFFFFFFFFFFFFFFFFFFFFE000
01FFFFFFFFFFFFFFFFFFFFFFFFC000
01FFFFFFFFFFFFFFFFFFFFFFFF8000
00FFFFFFFFFFFFFFFFFFFFFFFF8000
007FFFFFFFFFFFFFFFFFFFFFFF0000
003FFFFFFFFFFFFFFFFFFFFFFE0000
001FFFFFFFFFFFFFFFFFFFFFFC0000
000FFFFFFFFFFFFFFFFFFFFFF80000
0003FFFFFFFFFFFFFFFFFFFFE00000
0001FFFFFFFFFFFFFFFFFFFFC00000
00007FFFFFFFFFFFFFFFFFFF000000
00003FFFFFFFFFFFFFFFFFFE000000
000007FFFFFFFFFFFFFFFFF0000000
000001FFFFFFFFFFFFFFFFC0000000
0000000FFFFFFFFFFFFFF800000000
ENDCHAR
STARTCHAR 0039
ENCODING 57
SWIDTH 892 0
DWIDTH 129 0
BBX 113 109 0 -1
BITMAP
0000000FFFFFFFFFFFFFF800000000
000000FFFFFFFFFFFFFFFFC0000000
000007FFFFFFFFFFFFFFFFF0000000
00001FFFFFFFFFFFFFFFFFFE000000
00007FFFFFFFFFFFFFFFFFFF000000
0001FFFFFFFFFFFFFFFFFFFFC00000
0003FFFFFFFFFFFFFFFFFFFFE00000
000FFFFFFFFFFFFFFFFFFFFFF80000
001FFFFFFFFFFFFFFFFFFFFFFC0000
003FFFFFFFFFFFFFFFFFFFFFFE0000
007FFFFFFFFFFFFFFFFFFFFFFF0000
00FFFFFFFFFFFFFFFFFFFFFFFF8000
01FFFFFFFFFFFFFFFFFFFFFFFF8000
01FFFFFFFFFFFFFFFFFFFFFFFFC000
03FFFFFFFFFFFFFFFFFFFFFFFFE000
07FFFFFFFFFFFFFFFFFFFFFFFFF000
07FFFFFFFFFFFFFFFFFFFFFFFFF000
0FFFFFFFFFFFFFFFFFFFFFFFFFF800
0FFFFFFFFFFFFFFFFFFFFFFFFFF800
1FFFFFFFFFFFFFFFFFFFFFFFFFFC00
1FFFFFFFFFFFFFFFFFFFFFFFFFFC00
3FFFFFFFFFFFFFFFFFFFFFFFFFFE00
3FFFFFFC0000000000001FFFFFFE00
7FFFFFF000000000000007FFFFFE00
7FFFFFC000000000000001FFFFFF00
7FFFFF8000000000000000FFFFFF00
7FFFFF00000000000000007FFFFF00
7FFFFE00000000000000003FFFFF00
FFFFFE00000000000000003FFFFF80
FFFFFC00000000000000001FFFFF80
FFFFFC00000000000000001FFFFF80
FFFFF800000000000000000FFFFF80
FFFFF800000000000000000FFFFF80
FFFFF800000000000000000FFFFF80
FFFFF800000000000000000FFFFF80
FFFFF800000000000000000FFFFF80
FFFFF800000000000000000FFFFF80
FFFFF800000000000000000FFFFF80
FFFFFC00000000000000000FFFFF80
FFFFFC00000000000000000FFFFF80
7FFFFC00000000000000000FFFFF80
7FFFFE00000000000000000FFFFF80
7FFFFF00000000000000000FFFFF80
7FFFFF80000000000000000FFFFF80
3FFFFFC0000000000000000FFFFF80
3FFFFFE0000000000000000FFFFF80
3FFFFFFC000000000000000FFFFF80
1FFFFFFFFFFFFFFFFFFFFFFFFFFF80
1FFFFFFFFFFFFFFFFFFFFFFFFFFF80
0FFFFFFFFFFFFFFFFFFFFFFFFFFF80
0FFFFFFFFFFFFFFFFFFFFFFFFFFF80
07FFFFFFFFFFFFFFFFFFFFFFFFFF80
07FFFFFFFFFFFFFFFFFFFFFFFFFF80
03FFFFFFFFFFFFFFFFFFFFFFFFFF80
01FFFFFFFFFFFFFFFFFFFFFFFFFF80
00FFFFFFFFFFFFFFFFFFFFFFFFFF80
00FFFFFFFFFFFFFFFFFFFFFFFFFF80
007FFFFFFFFFFFFFFFFFFFFFFFFF80
003FFFFFFFFFFFFFFFFFFFFFFFFF80
001FFFFFFFFFFFFFFFFFFFFFFFFF80
000FFFFFFFFFFFFFFFFFFFFFFFFF80
0003FFFFFFFFFFFFFFFFFFFFFFFF80
0001FFFFFFFFFFFFFFFFFFFFFFFF80
00007FFFFFFFFFFFFFFFFFFFFFFF80
00003FFFFFFFFFFFFFFFFFFFFFFF80
000007FFFFFFFFFFFFFFFFFFFFFF80
000001FFFFFFFFFFFFFFFFFFFFFF80
0000000FFFFFFFFFFFFFFFFFFFFF80
00000000000000000000000FFFFF80
00000000000000000000000FFFFF80
00000000000000000000000FFFFF80
00000000000000000000000FFFFF80
01FC0000000000000000000FFFFF80
07FF0000000000000000000FFFFF80
0FFF8000000000000000000FFFFF80
1FFFC000000000000000000FFFFF80
3FFFE000000000000000000FFFFF80
7FFFF000000000000000000FFFFF80
7FFFF000000000000000001FFFFF80
7FFFF800000000000000001FFFFF80
FFFFF800000000000000001FFFFF80
FFFFF800000000000000003FFFFF00
FFFFF800000000000000007FFFFF00
FFFFF80000000000000000FFFFFF00
FFFFF80000000000000001FFFFFF00
FFFFFC0000000000000003FFFFFE00
FFFFFE000000000000001FFFFFFE00
FFFFFFFFFFFFFFFFFFFFFFFFFFFE00
7FFFFFFFFFFFFFFFFFFFFFFFFFFC00
7FFFFFFFFFFFFFFFFFFFFFFFFFFC00
7FFFFFFFFFFFFFFFFFFFFFFFFFF800
7FFFFFFFFFFFFFFFFFFFFFFFFFF800
3FFFFFFFFFFFFFFFFFFFFFFFFFF000
3FFFFFFFFFFFFFFFFFFFFFFFFFF000
3FFFFFFFFFFFFFFFFFFFFFFFFFE000
1FFFFFFFFFFFFFFFFFFFFFFFFFC000
0FFFFFFFFFFFFFFFFFFFFFFFFF8000
0FFFFFFFFFFFFFFFFFFFFFFFFF8000
07FFFFFFFFFFFFFFFFFFFFFFFF0000
03FFFFFFFFFFFFFFFFFFFFFFFE0000
01FFFFFFFFFFFFFFFFFFFFFFFC0000
01FFFFFFFFFFFFFFFFFFFFFFF00000
00FFFFFFFFFFFFFFFFFFFFFFE00000
003FFFFFFFFFFFFFFFFFFFFFC00000
001FFFFFFFFFFFFFFFFFFFFF000000
000FFFFFFFFFFFFFFFFFFFFC000000
0003FFFFFFFFFFFFFFFFFFF0000000
0000FFFFFFFFFFFFFFFFFFC0000000
00000FFFFFFFFFFFFFFFF800000000
ENDCHAR
STARTCHAR 003A
ENCODING 58
SWIDTH 256 0
DWIDTH 37 0
BBX 22 84 0 -2
BITMAP
00FC00
07FF80
0FFFC0
1FFFE0
3FFFF0
7FFFF8
7FFFF8
7FFFF8
FFFFFC
FFFFFC
FFFFFC
FFFFFC
FFFFFC
FFFFFC
FFFFFC
FFFFFC
7FFFFC
7FFFF8
7FFFF8
3FFFF0
1FFFE0
0FFFC0
07FF80
00FC00
000000
000000
000000
000000
000000
000000
000000
000000
000000
000000
000000
000000
000000
000000
000000
000000
000000
000000
000000
000000
000000
000000
000000
000000
000000
000000
000000
000000
000000
000000
000000
000000
000000
000000
000000
000000
00FC00
07FF80
0FFFC0
1FFFE0
3FFFF0
7FFFF8
7FFFF8
7FFFF8
FFFFFC
FFFFFC
FFFFFC
FFFFFC
FFFFFC
FFFFFC
FFFFFC
FFFFFC
7FFFFC
7FFFF8
7FFFF8
3FFFF0
1FFFE0
0FFFC0
07FF80
00FC00
ENDCHAR
STARTCHAR 003B
ENCODING 59
SWIDTH 249 0
DWIDTH 36 0
BBX 25 94 0 -12
BITMAP
001F8000
00FFF000
01FFF800
03FFFC00
07FFFE00
0FFFFF00
0FFFFF00
1FFFFF00
1FFFFF80
1FFFFF80
1FFFFF80
1FFFFF80
1FFFFF80
1FFFFF80
1FFFFF80
1FFFFF80
1FFFFF80
0FFFFF00
0FFFFF00
07FFFE00
03FFFC00
01FFF800
00FFF000
001FC000
00000000
00000000
00000000
00000000
00000000
00000000
00000000
00000000
00000000
00000000
00000000
00000000
00000000
00000000
00000000
00000000
00000000
00000000
00000000
00000000
00000000
00000000
00000000
00000000
00000000
00000000
00000000
00000000
00000000
00000000
00000000
00000000
00000000
00000000
00000000
001FC000
007FF000
01FFF800
03FFFC00
03FFFE00
07FFFF00
0FFFFF00
0FFFFF80
0FFFFF80
1FFFFF80
1FFFFF80
1FFFFF80
1FFFFF80
1FFFFF80
3FFFFF80
3FFFFF00
3FFFFF00
3FFFFF00
7FFFFF00
7FFFFE00
7FFFFE00
7FFFFE00
FFFFFE00
FFFFFC00
FFFFFC00
FFFFFC00
FFFFFC00
7FFFF800
7FFFF800
7FFFF000
3FFFF000
1FFFE000
0FFFC000
07FF0000
00FC0000
ENDCHAR
STARTCHAR 003C
ENCODING 60
SWIDTH 283 0
DWIDTH 41 0
BBX 0 0 0 0
BITMAP
ENDCHAR
STARTCHAR 003D
ENCODING 61
SWIDTH 608 0
DWIDTH 88 0
BBX 0 0 0 0
BITMAP
ENDCHAR
STARTCHAR 003E
ENCODING 62
SWIDTH 283 0
DWIDTH 41 0
BBX 0 0 0 0
BITMAP
ENDCHAR
STARTCHAR 003F
ENCODING 63
SWIDTH 892 0
DWIDTH 129 0
BBX 115 110 0 -2
BITMAP
00000FFFFFFFFFFFFFFFFE00000000
00007FFFFFFFFFFFFFFFFFE0000000
0003FFFFFFFFFFFFFFFFFFFC000000
000FFFFFFFFFFFFFFFFFFFFF000000
001FFFFFFFFFFFFFFFFFFFFFC00000
003FFFFFFFFFFFFFFFFFFFFFE00000
00FFFFFFFFFFFFFFFFFFFFFFF80000
01FFFFFFFFFFFFFFFFFFFFFFFC0000
03FFFFFFFFFFFFFFFFFFFFFFFE0000
03FFFFFFFFFFFFFFFFFFFFFFFF0000
07FFFFFFFFFFFFFFFFFFFFFFFF8000
0FFFFFFFFFFFFFFFFFFFFFFFFFC000
1FFFFFFFFFFFFFFFFFFFFFFFFFE000
1FFFFFFFFFFFFFFFFFFFFFFFFFF000
3FFFFFFFFFFFFFFFFFFFFFFFFFF800
3FFFFFFFFFFFFFFFFFFFFFFFFFF800
7FFFFFFFFFFFFFFFFFFFFFFFFFFC00
7FFFFFFFFFFFFFFFFFFFFFFFFFFC00
7FFFFFFFFFFFFFFFFFFFFFFFFFFE00
7FFFFFFFFFFFFFFFFFFFFFFFFFFF00
FFFFFFFFFFFFFFFFFFFFFFFFFFFF00
FFFFFE0000000000000007FFFFFF00
FFFFFC0000000000000001FFFFFF80
FFFFF800000000000000007FFFFF80
FFFFF800000000000000003FFFFFC0
FFFFF800000000000000001FFFFFC0
FFFFF800000000000000001FFFFFC0
FFFFF800000000000000000FFFFFC0
FFFFF8000000000000000007FFFFC0
7FFFF0000000000000000007FFFFE0
7FFFF0000000000000000007FFFFE0
3FFFE0000000000000000003FFFFE0
1FFFC0000000000000000003FFFFE0
0FFF80000000000000000003FFFFE0
07FF00000000000000000003FFFFE0
01F800000000000000000003FFFFE0
000000000000000000000003FFFFE0
000000000000000000000003FFFFE0
000000000000000000000007FFFFE0
000000000000000000000007FFFFE0
00000000000000000000000FFFFFE0
00000000000000000000000FFFFFC0
00000000000000000000001FFFFFC0
00000000000000000000003FFFFFC0
00000000000000000000007FFFFFC0
0000000000000000000000FFFFFF80
0000000000000000000003FFFFFF80
000000000000000000003FFFFFFF80
00000000000000000003FFFFFFFF00
0000000000000000007FFFFFFFFF00
000000000000000007FFFFFFFFFF00
00000000000000007FFFFFFFFFFE00
0000000000000007FFFFFFFFFFFC00
00000000000000FFFFFFFFFFFFFC00
0000000000000FFFFFFFFFFFFFF800
000000000000FFFFFFFFFFFFFFF800
00000000001FFFFFFFFFFFFFFFF000
0000000001FFFFFFFFFFFFFFFFE000
000000000FFFFFFFFFFFFFFFFFC000
000000003FFFFFFFFFFFFFFFFF8000
000000007FFFFFFFFFFFFFFFFF0000
00000000FFFFFFFFFFFFFFFFFE0000
00000001FFFFFFFFFFFFFFFFFC0000
00000003FFFFFFFFFFFFFFFFF80000
00000003FFFFFFFFFFFFFFFFE00000
00000007FFFFFFFFFFFFFFFFC00000
00000007FFFFFFFFFFFFFFFF000000
00000007FFFFFFFFFFFFFFFC000000
00000007FFFFFFFFFFFFFFE0000000
00000007FFFFFFFFFFFFFE00000000
00000007FFFFFFFFFFFFE000000000
00000007FFFFFFFFFFFE0000000000
00000003FFFFFFFFFFC00000000000
00000003FFFFFFFFFC000000000000
00000003FFFFFFFFC0000000000000
00000001FFFFFFFC00000000000000
00000000FFFFFF8000000000000000
000000007FFFF80000000000000000
000000003FFF800000000000000000
000000000FF0000000000000000000
000000000000000000000000000000
000000000000000000000000000000
000000000000000000000000000000
000000000000000000000000000000
000000000000000000000000000000
000000000000000000000000000000
000000000000000000000000000000
0000000007E0000000000000000000
000000003FFC000000000000000000
000000007FFE000000000000000000
00000000FFFF000000000000000000
00000001FFFF800000000000000000
00000003FFFFC00000000000000000
00000003FFFFC00000000000000000
00000007FFFFE00000000000000000
00000007FFFFE00000000000000000
00000007FFFFE00000000000000000
00000007FFFFE00000000000000000
00000007FFFFE00000000000000000
00000007FFFFE00000000000000000
00000007FFFFE00000000000000000
00000007FFFFE00000000000000000
00000007FFFFE00000000000000000
00000003FFFFC00000000000000000
00000003FFFFC00000000000000000
00000001FFFF800000000000000000
00000000FFFF000000000000000000
000000007FFE000000000000000000
000000003FFC000000000000000000
0000000007E0000000000000000000
ENDCHAR
STARTCHAR 0040
ENCODING 64
SWIDTH 892 0
DWIDTH 129 0
BBX 113 109 0 -1
BITMAP
0000000FFFFFFFFFFFFFF800000000
000001FFFFFFFFFFFFFFFFC0000000
000007FFFFFFFFFFFFFFFFF0000000
00001FFFFFFFFFFFFFFFFFFC000000
00007FFFFFFFFFFFFFFFFFFF000000
0001FFFFFFFFFFFFFFFFFFFFC00000
0003FFFFFFFFFFFFFFFFFFFFE00000
0007FFFFFFFFFFFFFFFFFFFFF00000
001FFFFFFFFFFFFFFFFFFFFFFC0000
003FFFFFFFFFFFFFFFFFFFFFFE0000
007FFFFFFFFFFFFFFFFFFFFFFF0000
00FFFFFFFFFFFFFFFFFFFFFFFF0000
00FFFFF80000000000000FFFFF8000
01FFFFC000000000000001FFFFC000
03FFFF00000000000000007FFFE000
07FFFC00000000000000001FFFF000
07FFF800000000000000000FFFF000
0FFFE0000000000000000007FFF800
0FFFC0000000000000000001FFF800
1FFFC0000000000000000001FFFC00
1FFF80000000000000000000FFFC00
3FFF000000000000000000007FFE00
3FFE000000000000000000003FFE00
3FFE00000003FFFFF00000003FFE00
7FFC0000003FFFFFFE0000001FFF00
7FFC000000FFFFFFFF8000001FFF00
7FF8000001FFFFFFFFE000000FFF00
7FF8000003FFFFFFFFF000000FFF00
FFF800000FFFFFFFFFF800000FFF80
FFF000000FFFFFFFFFFC00000FFF80
FFF000001FFFFFFFFFFE000007FF80
FFF000003FFFFFFFFFFF000007FF80
FFF000007FFFFFFFFFFF000007FF80
FFF000007FFFFFFFFFFF800007FF80
FFF00000FFFFFFFFFFFF800007FF80
FFF00000FFFFFFFFFFFFC00007FF80
FFF00001FFFFFFFFFFFFC00007FF80
FFF00001FFFE00003FFFC00007FF80
FFF00001FFFC00000FFFE00007FF80
FFF00001FFF800000FFFE00007FF80
FFF00003FFF0000007FFE00007FF80
FFF00003FFF0000007FFE00007FF80
FFF00003FFF0000003FFF00007FF80
FFF00003FFF0000003FFF00007FF80
FFF00003FFE0000003FFF00007FF80
FFF00007FFE0000003FFF00007FF80
FFF00007FFE0000003FFF00007FF80
FFF00007FFE0000001FFF80007FF80
FFF00007FFE0000001FFF80007FF80
FFF00007FFC0000001FFF80007FF80
FFF0000FFFC0000001FFF80007FF80
FFF0000FFFC0000000FFF80007FF80
FFF0000FFFC0000000FFFC0007FF80
FFF0000FFFFFFFFFFFFFFC0007FF80
FFF0001FFFFFFFFFFFFFFC0007FF80
FFF0001FFFFFFFFFFFFFFC0007FF80
FFF0001FFFFFFFFFFFFFFE0007FF80
FFF0001FFFFFFFFFFFFFFE0007FF80
FFF0001FFFFFFFFFFFFFFE0007FF80
FFF0003FFFFFFFFFFFFFFE0007FF80
FFF0003FFFFFFFFFFFFFFE0007FF80
FFF0003FFFFFFFFFFFFFFF0007FF80
FFF0003FFFFFFFFFFFFFFF0007FF80
FFF0007FFFFFFFFFFFFFFF0007FF80
FFF0007FFFFFFFFFFFFFFF0007FF80
FFF0007FFFFFFFFFFFFFFF8007FF80
FFF0007FFC000000001FFF8007FF80
FFF0007FFC000000001FFF8007FF80
FFF000FFFC000000000FFF8007FF80
FFF000FFFC000000000FFF8007FF80
FFF000FFF8000000000FFFC007FF80
FFF000FFF8000000000FFFC007FF80
FFF000FFF8000000000FFFC007FF80
FFF001FFF80000000007FFC007FF80
FFF001FFF80000000007FFE007FF80
FFF001FFF00000000007FFE007FF80
FFF001FFF00000000007FFE007FF80
FFF003FFF00000000007FFE007FF80
FFF003FFF00000000003FFE007FF80
FFF001FFF00000000003FFE007FF80
FFF801FFE00000000003FFC00FFF80
7FF801FFE00000000001FFC00FFF00
7FF800FFC00000000000FF800FFF00
7FFC007F8000000000001C001FFF00
7FFC003F00000000000000001FFF00
3FFE000000000000000000003FFE00
3FFE000000000000000000003FFE00
3FFF000000000000000000007FFE00
1FFF80000000000000000000FFFC00
1FFF80000000000000000000FFFC00
0FFFC0000000000000000001FFF800
0FFFE0000000000000000003FFF800
07FFF800000000000000000FFFF000
07FFFC00000000000000001FFFF000
03FFFF00000000000000007FFFE000
01FFFFC000000000000001FFFFC000
00FFFFF80000000000000FFFFF8000
00FFFFFFFFFFFFFFFFFFFFFFFF8000
007FFFFFFFFFFFFFFFFFFFFFFF0000
003FFFFFFFFFFFFFFFFFFFFFFE0000
001FFFFFFFFFFFFFFFFFFFFFFC0000
000FFFFFFFFFFFFFFFFFFFFFF00000
0003FFFFFFFFFFFFFFFFFFFFE00000
0001FFFFFFFFFFFFFFFFFFFFC00000
00007FFFFFFFFFFFFFFFFFFF000000
00003FFFFFFFFFFFFFFFFFFC000000
000007FFFFFFFFFFFFFFFFF0000000
000001FFFFFFFFFFFFFFFFC0000000
0000000FFFFFFFFFFFFFF800000000
ENDCHAR
STARTCHAR 0041
ENCODING 65
SWIDTH 892 0
DWIDTH 129 0
BBX 124 110 0 -2
BITMAP
00000000001FFFFFFFFF000000000000
0000000001FFFFFFFFFFF00000000000
000000000FFFFFFFFFFFFE0000000000
000000003FFFFFFFFFFFFF8000000000
00000000FFFFFFFFFFFFFFE000000000
00000001FFFFFFFFFFFFFFF800000000
00000007FFFFFFFFFFFFFFFC00000000
0000000FFFFFFFFFFFFFFFFF00000000
0000001FFFFFFFFFFFFFFFFF80000000
0000003FFFFFFFFFFFFFFFFFC0000000
0000007FFFFFFFFFFFFFFFFFE0000000
000000FFFFFFFFFFFFFFFFFFF0000000
000001FFFFFFFFFFFFFFFFFFF8000000
000003FFFFFFFFFFFFFFFFFFF8000000
000007FFFFFFFFFFFFFFFFFFFC000000
00000FFFFFFFFFFFFFFFFFFFFE000000
00000FFFFFFFFFFFFFFFFFFFFF000000
00001FFFFFFFFFFFFFFFFFFFFF000000
00001FFFFFFFFFFFFFFFFFFFFF800000
00003FFFFFFFFFFFFFFFFFFFFF800000
00003FFFFFFFFFFFFFFFFFFFFFC00000
00007FFFFFFC00000003FFFFFFC00000
00007FFFFFE000000000FFFFFFC00000
00007FFFFFC0000000003FFFFFE00000
0000FFFFFF80000000001FFFFFE00000
0000FFFFFF00000000000FFFFFE00000
0000FFFFFE000000000007FFFFF00000
0000FFFFFC000000000007FFFFF00000
0001FFFFFC000000000003FFFFF00000
0001FFFFF8000000000003FFFFF00000
0001FFFFF8000000000003FFFFF80000
0001FFFFF8000000000001FFFFF80000
0003FFFFF0000000000001FFFFF80000
0003FFFFF0000000000001FFFFF80000
0003FFFFF0000000000001FFFFF80000
0003FFFFF0000000000000FFFFFC0000
0003FFFFF0000000000000FFFFFC0000
0007FFFFE0000000000000FFFFFC0000
0007FFFFE0000000000000FFFFFC0000
0007FFFFE0000000000000FFFFFE0000
0007FFFFE00000000000007FFFFE0000
000FFFFFE00000000000007FFFFE0000
000FFFFFC00000000000007FFFFE0000
000FFFFFC00000000000007FFFFE0000
000FFFFFC00000000000007FFFFF0000
000FFFFFC00000000000003FFFFF0000
001FFFFF800000000000003FFFFF0000
001FFFFF800000000000003FFFFF0000
001FFFFF800000000000003FFFFF8000
001FFFFF800000000000001FFFFF8000
003FFFFF800000000000001FFFFF8000
003FFFFF000000000000001FFFFF8000
003FFFFF000000000000001FFFFF8000
003FFFFF000000000000001FFFFFC000
003FFFFF000000000000000FFFFFC000
007FFFFF000000000000000FFFFFC000
007FFFFFFFFFFFFFFFFFFFFFFFFFC000
007FFFFFFFFFFFFFFFFFFFFFFFFFE000
007FFFFFFFFFFFFFFFFFFFFFFFFFE000
00FFFFFFFFFFFFFFFFFFFFFFFFFFE000
00FFFFFFFFFFFFFFFFFFFFFFFFFFE000
00FFFFFFFFFFFFFFFFFFFFFFFFFFE000
00FFFFFFFFFFFFFFFFFFFFFFFFFFF000
00FFFFFFFFFFFFFFFFFFFFFFFFFFF000
01FFFFFFFFFFFFFFFFFFFFFFFFFFF000
01FFFFFFFFFFFFFFFFFFFFFFFFFFF000
01FFFFFFFFFFFFFFFFFFFFFFFFFFF800
01FFFFFFFFFFFFFFFFFFFFFFFFFFF800
03FFFFFFFFFFFFFFFFFFFFFFFFFFF800
03FFFFFFFFFFFFFFFFFFFFFFFFFFF800
03FFFFFFFFFFFFFFFFFFFFFFFFFFF800
03FFFFFFFFFFFFFFFFFFFFFFFFFFFC00
03FFFFFFFFFFFFFFFFFFFFFFFFFFFC00
07FFFFFFFFFFFFFFFFFFFFFFFFFFFC00
07FFFFFFFFFFFFFFFFFFFFFFFFFFFC00
07FFFFFFFFFFFFFFFFFFFFFFFFFFFE00
07FFFFFFFFFFFFFFFFFFFFFFFFFFFE00
0FFFFFC000000000000000007FFFFE00
0FFFFFC000000000000000007FFFFE00
0FFFFFC000000000000000007FFFFE00
0FFFFFC000000000000000007FFFFF00
0FFFFFC000000000000000003FFFFF00
1FFFFF8000000000000000003FFFFF00
1FFFFF8000000000000000003FFFFF00
1FFFFF8000000000000000003FFFFF80
1FFFFF8000000000000000001FFFFF80
3FFFFF0000000000000000001FFFFF80
3FFFFF0000000000000000001FFFFF80
3FFFFF0000000000000000001FFFFF80
3FFFFF0000000000000000001FFFFFC0
3FFFFF0000000000000000000FFFFFC0
7FFFFE0000000000000000000FFFFFC0
7FFFFE0000000000000000000FFFFFC0
7FFFFE0000000000000000000FFFFFE0
7FFFFE00000000000000000007FFFFE0
FFFFFC00000000000000000007FFFFE0
FFFFFC00000000000000000007FFFFE0
FFFFFC00000000000000000007FFFFE0
FFFFFC00000000000000000003FFFFE0
FFFFFC00000000000000000003FFFFF0
FFFFF800000000000000000003FFFFE0
FFFFF800000000000000000003FFFFE0
FFFFF800000000000000000003FFFFE0
7FFFF800000000000000000001FFFFE0
7FFFF000000000000000000001FFFFC0
3FFFE000000000000000000000FFFF80
1FFFE0000000000000000000007FFF80
0FFF80000000000000000000003FFF00
07FF00000000000000000000001FFC00
01FC000000000000000000000007F000
ENDCHAR
STARTCHAR 0042
ENCODING 66
SWIDTH 892 0
DWIDTH 129 0
BBX 113 109 0 -1
BITMAP
00000FFFFFFFFFFFFFFFF800000000
00007FFFFFFFFFFFFFFFFF80000000
0003FFFFFFFFFFFFFFFFFFF0000000
000FFFFFFFFFFFFFFFFFFFFC000000
001FFFFFFFFFFFFFFFFFFFFE000000
003FFFFFFFFFFFFFFFFFFFFF800000
00FFFFFFFFFFFFFFFFFFFFFFC00000
01FFFFFFFFFFFFFFFFFFFFFFE00000
03FFFFFFFFFFFFFFFFFFFFFFF00000
03FFFFFFFFFFFFFFFFFFFFFFF80000
07FFFFFFFFFFFFFFFFFFFFFFFC0000
0FFFFFFFFFFFFFFFFFFFFFFFFE0000
1FFFFFFFFFFFFFFFFFFFFFFFFF0000
1FFFFFFFFFFFFFFFFFFFFFFFFF8000
3FFFFFFFFFFFFFFFFFFFFFFFFF8000
3FFFFFFFFFFFFFFFFFFFFFFFFFC000
3FFFFFFFFFFFFFFFFFFFFFFFFFC000
7FFFFFFFFFFFFFFFFFFFFFFFFFE000
7FFFFFFFFFFFFFFFFFFFFFFFFFE000
7FFFFFFFFFFFFFFFFFFFFFFFFFF000
FFFFFFFFFFFFFFFFFFFFFFFFFFF000
FFFFFFFFFFFFFFFFFFFFFFFFFFF800
FFFFFE000000000000001FFFFFF800
FFFFFC0000000000000007FFFFF800
FFFFF80000000000000003FFFFF800
FFFFF80000000000000001FFFFFC00
FFFFF80000000000000000FFFFFC00
FFFFF80000000000000000FFFFFC00
FFFFF800000000000000007FFFFC00
FFFFF800000000000000007FFFFC00
FFFFF800000000000000007FFFFC00
FFFFF800000000000000007FFFFC00
FFFFF800000000000000007FFFFC00
FFFFF800000000000000007FFFFC00
FFFFF800000000000000007FFFFC00
FFFFF80000000000000000FFFFFC00
FFFFF80000000000000000FFFFFC00
FFFFF80000000000000001FFFFF800
FFFFF80000000000000003FFFFF800
FFFFF80000000000000007FFFFF800
FFFFF8000000000000001FFFFFF800
FFFFFFFFFFFFFFFFFFFFFFFFFFF000
FFFFFFFFFFFFFFFFFFFFFFFFFFF000
FFFFFFFFFFFFFFFFFFFFFFFFFFF000
FFFFFFFFFFFFFFFFFFFFFFFFFFE000
FFFFFFFFFFFFFFFFFFFFFFFFFFE000
FFFFFFFFFFFFFFFFFFFFFFFFFFC000
FFFFFFFFFFFFFFFFFFFFFFFFFFC000
FFFFFFFFFFFFFFFFFFFFFFFFFF8000
FFFFFFFFFFFFFFFFFFFFFFFFFF0000
FFFFFFFFFFFFFFFFFFFFFFFFFF0000
FFFFFFFFFFFFFFFFFFFFFFFFFF0000
FFFFFFFFFFFFFFFFFFFFFFFFFF8000
FFFFFFFFFFFFFFFFFFFFFFFFFFC000
FFFFFFFFFFFFFFFFFFFFFFFFFFE000
FFFFFFFFFFFFFFFFFFFFFFFFFFE000
FFFFFFFFFFFFFFFFFFFFFFFFFFF000
FFFFFFFFFFFFFFFFFFFFFFFFFFF800
FFFFFFFFFFFFFFFFFFFFFFFFFFF800
FFFFFFFFFFFFFFFFFFFFFFFFFFFC00
FFFFFFFFFFFFFFFFFFFFFFFFFFFC00
FFFFFFFFFFFFFFFFFFFFFFFFFFFE00
FFFFF8000000000000001FFFFFFE00
FFFFF80000000000000003FFFFFE00
FFFFF80000000000000001FFFFFF00
FFFFF80000000000000000FFFFFF00
FFFFF800000000000000007FFFFF00
FFFFF800000000000000003FFFFF00
FFFFF800000000000000001FFFFF00
FFFFF800000000000000001FFFFF80
FFFFF800000000000000001FFFFF80
FFFFF800000000000000000FFFFF80
FFFFF800000000000000000FFFFF80
FFFFF800000000000000000FFFFF80
FFFFF800000000000000000FFFFF80
FFFFF800000000000000000FFFFF80
FFFFF800000000000000000FFFFF80
FFFFF800000000000000000FFFFF80
FFFFF800000000000000001FFFFF80
FFFFF800000000000000001FFFFF80
FFFFF800000000000000001FFFFF80
FFFFF800000000000000003FFFFF00
FFFFF800000000000000007FFFFF00
FFFFF80000000000000000FFFFFF00
FFFFF80000000000000001FFFFFF00
FFFFFC0000000000000003FFFFFE00
FFFFFE000000000000001FFFFFFE00
FFFFFFFFFFFFFFFFFFFFFFFFFFFE00
FFFFFFFFFFFFFFFFFFFFFFFFFFFC00
7FFFFFFFFFFFFFFFFFFFFFFFFFFC00
7FFFFFFFFFFFFFFFFFFFFFFFFFF800
7FFFFFFFFFFFFFFFFFFFFFFFFFF800
3FFFFFFFFFFFFFFFFFFFFFFFFFF000
3FFFFFFFFFFFFFFFFFFFFFFFFFF000
3FFFFFFFFFFFFFFFFFFFFFFFFFE000
1FFFFFFFFFFFFFFFFFFFFFFFFFC000
1FFFFFFFFFFFFFFFFFFFFFFFFF8000
0FFFFFFFFFFFFFFFFFFFFFFFFF8000
07FFFFFFFFFFFFFFFFFFFFFFFF0000
03FFFFFFFFFFFFFFFFFFFFFFFE0000
03FFFFFFFFFFFFFFFFFFFFFFFC0000
01FFFFFFFFFFFFFFFFFFFFFFF00000
00FFFFFFFFFFFFFFFFFFFFFFE00000
003FFFFFFFFFFFFFFFFFFFFFC00000
001FFFFFFFFFFFFFFFFFFFFF000000
000FFFFFFFFFFFFFFFFFFFFC000000
0003FFFFFFFFFFFFFFFFFFF0000000
0000FFFFFFFFFFFFFFFFFFC0000000
00000FFFFFFFFFFFFFFFF800000000
ENDCHAR
STARTCHAR 0043
ENCODING 67
SWIDTH 892 0
DWIDTH 129 0
BBX 113 109 0 -1
BITMAP
0000000FFFFFFFFFFFFFFFF8000000
000001FFFFFFFFFFFFFFFFFF800000
000007FFFFFFFFFFFFFFFFFFE00000
00001FFFFFFFFFFFFFFFFFFFF80000
00007FFFFFFFFFFFFFFFFFFFFC0000
0001FFFFFFFFFFFFFFFFFFFFFF0000
0003FFFFFFFFFFFFFFFFFFFFFF8000
0007FFFFFFFFFFFFFFFFFFFFFFC000
001FFFFFFFFFFFFFFFFFFFFFFFE000
003FFFFFFFFFFFFFFFFFFFFFFFF000
007FFFFFFFFFFFFFFFFFFFFFFFF000
00FFFFFFFFFFFFFFFFFFFFFFFFF800
00FFFFFFFFFFFFFFFFFFFFFFFFFC00
01FFFFFFFFFFFFFFFFFFFFFFFFFC00
03FFFFFFFFFFFFFFFFFFFFFFFFFE00
07FFFFFFFFFFFFFFFFFFFFFFFFFE00
07FFFFFFFFFFFFFFFFFFFFFFFFFF00
0FFFFFFFFFFFFFFFFFFFFFFFFFFF00
0FFFFFFFFFFFFFFFFFFFFFFFFFFF00
1FFFFFFFFFFFFFFFFFFFFFFFFFFF00
1FFFFFFFFFFFFFFFFFFFFFFFFFFF80
3FFFFFFC000000000000003FFFFF80
3FFFFFE0000000000000001FFFFF80
3FFFFFC0000000000000000FFFFF80
7FFFFF80000000000000000FFFFF80
7FFFFF00000000000000000FFFFF80
7FFFFE00000000000000000FFFFF80
7FFFFE00000000000000000FFFFF80
FFFFFC00000000000000000FFFFF00
FFFFFC000000000000000007FFFF00
FFFFF8000000000000000007FFFF00
FFFFF8000000000000000003FFFE00
FFFFF8000000000000000001FFFC00
FFFFF8000000000000000000FFF800
FFFFF80000000000000000003FE000
FFFFF8000000000000000000070000
FFFFF8000000000000000000000000
FFFFF8000000000000000000000000
FFFFF8000000000000000000000000
FFFFF8000000000000000000000000
FFFFF8000000000000000000000000
FFFFF8000000000000000000000000
FFFFF8000000000000000000000000
FFFFF8000000000000000000000000
FFFFF8000000000000000000000000
FFFFF8000000000000000000000000
FFFFF8000000000000000000000000
FFFFF8000000000000000000000000
FFFFF8000000000000000000000000
FFFFF8000000000000000000000000
FFFFF8000000000000000000000000
FFFFF8000000000000000000000000
FFFFF8000000000000000000000000
FFFFF8000000000000000000000000
FFFFF8000000000000000000000000
FFFFF8000000000000000000000000
FFFFF8000000000000000000000000
FFFFF8000000000000000000000000
FFFFF8000000000000000000000000
FFFFF8000000000000000000000000
FFFFF8000000000000000000000000
FFFFF8000000000000000000000000
FFFFF8000000000000000000000000
FFFFF8000000000000000000000000
FFFFF8000000000000000000000000
FFFFF8000000000000000000000000
FFFFF8000000000000000000000000
FFFFF8000000000000000000000000
FFFFF8000000000000000000000000
FFFFF8000000000000000000000000
FFFFF8000000000000000000000000
FFFFF8000000000000000000000000
FFFFF80000000000000000000F8000
FFFFF80000000000000000007FE000
FFFFF8000000000000000000FFF800
FFFFF8000000000000000001FFFC00
FFFFF8000000000000000003FFFE00
FFFFF8000000000000000003FFFF00
FFFFF8000000000000000007FFFF00
FFFFFC000000000000000007FFFF00
FFFFFC00000000000000000FFFFF80
7FFFFE00000000000000000FFFFF80
7FFFFE00000000000000000FFFFF80
7FFFFF00000000000000000FFFFF80
7FFFFF80000000000000000FFFFF80
3FFFFFC0000000000000000FFFFF80
3FFFFFE0000000000000001FFFFF80
3FFFFFFC000000000000003FFFFF80
1FFFFFFFFFFFFFFFFFFFFFFFFFFF00
1FFFFFFFFFFFFFFFFFFFFFFFFFFF00
0FFFFFFFFFFFFFFFFFFFFFFFFFFF00
0FFFFFFFFFFFFFFFFFFFFFFFFFFF00
07FFFFFFFFFFFFFFFFFFFFFFFFFE00
07FFFFFFFFFFFFFFFFFFFFFFFFFE00
03FFFFFFFFFFFFFFFFFFFFFFFFFC00
01FFFFFFFFFFFFFFFFFFFFFFFFFC00
00FFFFFFFFFFFFFFFFFFFFFFFFF800
00FFFFFFFFFFFFFFFFFFFFFFFFF800
007FFFFFFFFFFFFFFFFFFFFFFFF000
003FFFFFFFFFFFFFFFFFFFFFFFE000
001FFFFFFFFFFFFFFFFFFFFFFFC000
000FFFFFFFFFFFFFFFFFFFFFFFC000
0003FFFFFFFFFFFFFFFFFFFFFF0000
0001FFFFFFFFFFFFFFFFFFFFFE0000
00007FFFFFFFFFFFFFFFFFFFFC0000
00003FFFFFFFFFFFFFFFFFFFF80000
000007FFFFFFFFFFFFFFFFFFE00000
000001FFFFFFFFFFFFFFFFFF800000
0000000FFFFFFFFFFFFFFFF8000000
ENDCHAR
STARTCHAR 0044
ENCODING 68
SWIDTH 892 0
DWIDTH 129 0
BBX 113 109 0 -1
BITMAP
00000FFFFFFFFFFFFFF00000000000
00007FFFFFFFFFFFFFFF8000000000
0003FFFFFFFFFFFFFFFFE000000000
000FFFFFFFFFFFFFFFFFF800000000
001FFFFFFFFFFFFFFFFFFE00000000
003FFFFFFFFFFFFFFFFFFF80000000
00FFFFFFFFFFFFFFFFFFFFC0000000
01FFFFFFFFFFFFFFFFFFFFE0000000
03FFFFFFFFFFFFFFFFFFFFF8000000
03FFFFFFFFFFFFFFFFFFFFFC000000
07FFFFFFFFFFFFFFFFFFFFFE000000
0FFFFFFFFFFFFFFFFFFFFFFF000000
1FFFFFFFFFFFFFFFFFFFFFFF000000
1FFFFFFFFFFFFFFFFFFFFFFF800000
3FFFFFFFFFFFFFFFFFFFFFFFC00000
3FFFFFFFFFFFFFFFFFFFFFFFE00000
3FFFFFFFFFFFFFFFFFFFFFFFE00000
7FFFFFFFFFFFFFFFFFFFFFFFF00000
7FFFFFFFFFFFFFFFFFFFFFFFF00000
7FFFFFFFFFFFFFFFFFFFFFFFF80000
FFFFFFFFFFFFFFFFFFFFFFFFF80000
FFFFFE0000000000003FFFFFFC0000
FFFFFC00000000000007FFFFFC0000
FFFFF800000000000003FFFFFC0000
FFFFF800000000000001FFFFFE0000
FFFFF800000000000000FFFFFE0000
FFFFF8000000000000007FFFFE0000
FFFFF8000000000000003FFFFE0000
FFFFF8000000000000003FFFFF0000
FFFFF8000000000000001FFFFF0000
FFFFF8000000000000001FFFFF0000
FFFFF8000000000000001FFFFF0000
FFFFF8000000000000001FFFFF8000
FFFFF8000000000000001FFFFF8000
FFFFF8000000000000000FFFFF8000
FFFFF8000000000000000FFFFF8000
FFFFF8000000000000000FFFFF8000
FFFFF8000000000000000FFFFFC000
FFFFF80000000000000007FFFFC000
FFFFF80000000000000007FFFFC000
FFFFF80000000000000007FFFFC000
FFFFF80000000000000007FFFFE000
FFFFF80000000000000007FFFFE000
FFFFF80000000000000003FFFFE000
FFFFF80000000000000003FFFFE000
FFFFF80000000000000003FFFFE000
FFFFF80000000000000003FFFFF000
FFFFF80000000000000001FFFFF000
FFFFF80000000000000001FFFFF000
FFFFF80000000000000001FFFFF000
FFFFF80000000000000001FFFFF800
FFFFF80000000000000001FFFFF800
FFFFF80000000000000000FFFFF800
FFFFF80000000000000000FFFFF800
FFFFF80000000000000000FFFFF800
FFFFF80000000000000000FFFFFC00
FFFFF800000000000000007FFFFC00
FFFFF800000000000000007FFFFC00
FFFFF800000000000000007FFFFC00
FFFFF800000000000000007FFFFE00
FFFFF800000000000000007FFFFE00
FFFFF800000000000000003FFFFE00
FFFFF800000000000000003FFFFE00
FFFFF800000000000000003FFFFE00
FFFFF800000000000000003FFFFF00
FFFFF800000000000000003FFFFF00
FFFFF800000000000000001FFFFF00
FFFFF800000000000000001FFFFF00
FFFFF800000000000000001FFFFF00
FFFFF800000000000000001FFFFF80
FFFFF800000000000000000FFFFF80
FFFFF800000000000000000FFFFF80
FFFFF800000000000000000FFFFF80
FFFFF800000000000000000FFFFF80
FFFFF800000000000000000FFFFF80
FFFFF800000000000000000FFFFF80
FFFFF800000000000000000FFFFF80
FFFFF800000000000000000FFFFF80
FFFFF800000000000000000FFFFF80
FFFFF800000000000000001FFFFF80
FFFFF800000000000000001FFFFF80
FFFFF800000000000000003FFFFF00
FFFFF800000000000000003FFFFF00
FFFFF800000000000000007FFFFF00
FFFFF80000000000000000FFFFFF00
FFFFF80000000000000001FFFFFE00
FFFFFC0000000000000007FFFFFE00
FFFFFE000000000000001FFFFFFE00
FFFFFFFFFFFFFFFFFFFFFFFFFFFC00
7FFFFFFFFFFFFFFFFFFFFFFFFFFC00
7FFFFFFFFFFFFFFFFFFFFFFFFFF800
7FFFFFFFFFFFFFFFFFFFFFFFFFF800
3FFFFFFFFFFFFFFFFFFFFFFFFFF000
3FFFFFFFFFFFFFFFFFFFFFFFFFF000
3FFFFFFFFFFFFFFFFFFFFFFFFFE000
1FFFFFFFFFFFFFFFFFFFFFFFFFC000
0FFFFFFFFFFFFFFFFFFFFFFFFF8000
0FFFFFFFFFFFFFFFFFFFFFFFFF0000
07FFFFFFFFFFFFFFFFFFFFFFFF0000
03FFFFFFFFFFFFFFFFFFFFFFFE0000
01FFFFFFFFFFFFFFFFFFFFFFFC0000
00FFFFFFFFFFFFFFFFFFFFFFF00000
007FFFFFFFFFFFFFFFFFFFFFE00000
003FFFFFFFFFFFFFFFFFFFFFC00000
001FFFFFFFFFFFFFFFFFFFFF000000
0007FFFFFFFFFFFFFFFFFFFC000000
0003FFFFFFFFFFFFFFFFFFF0000000
00007FFFFFFFFFFFFFFFFFC0000000
00000FFFFFFFFFFFFFFFF800000000
ENDCHAR
STARTCHAR 0045
ENCODING 69
SWIDTH 892 0
DWIDTH 129 0
BBX 113 108 0 0
BITMAP
0000000FFFFFFFFFFFFFFFF8000000
000001FFFFFFFFFFFFFFFFFF000000
000007FFFFFFFFFFFFFFFFFFC00000
00003FFFFFFFFFFFFFFFFFFFF00000
00007FFFFFFFFFFFFFFFFFFFFC0000
0001FFFFFFFFFFFFFFFFFFFFFE0000
0003FFFFFFFFFFFFFFFFFFFFFF0000
000FFFFFFFFFFFFFFFFFFFFFFF8000
001FFFFFFFFFFFFFFFFFFFFFFFC000
003FFFFFFFFFFFFFFFFFFFFFFFE000
007FFFFFFFFFFFFFFFFFFFFFFFF000
00FFFFFFFFFFFFFFFFFFFFFFFFF000
01FFFFFFFFFFFFFFFFFFFFFFFFF800
01FFFFFFFFFFFFFFFFFFFFFFFFFC00
03FFFFFFFFFFFFFFFFFFFFFFFFFC00
07FFFFFFFFFFFFFFFFFFFFFFFFFE00
07FFFFFFFFFFFFFFFFFFFFFFFFFE00
0FFFFFFFFFFFFFFFFFFFFFFFFFFE00
1FFFFFFFFFFFFFFFFFFFFFFFFFFF00
1FFFFFFFFFFFFFFFFFFFFFFFFFFF00
3FFFFFFFFFFFFFFFFFFFFFFFFFFF00
3FFFFFFFFFFFFFFFFFFFFFFFFFFF00
3FFFFFFC000000000000003FFFFF80
7FFFFFE0000000000000001FFFFF80
7FFFFFC0000000000000000FFFFF80
7FFFFF80000000000000000FFFFF80
7FFFFF00000000000000000FFFFF80
FFFFFE00000000000000000FFFFF80
FFFFFC00000000000000000FFFFF80
FFFFFC00000000000000000FFFFF00
FFFFF8000000000000000007FFFF00
FFFFF8000000000000000007FFFE00
FFFFF8000000000000000003FFFE00
FFFFF8000000000000000001FFFC00
FFFFF8000000000000000000FFF800
FFFFF80000000000000000007FE000
FFFFF80000000000000000000F8000
FFFFF8000000000000000000000000
FFFFF8000000000000000000000000
FFFFF8000000000000000000000000
FFFFF8000000000000000000000000
FFFFFFFFFFFFE00000000000000000
FFFFFFFFFFFFF80000000000000000
FFFFFFFFFFFFFC0000000000000000
FFFFFFFFFFFFFE0000000000000000
FFFFFFFFFFFFFF0000000000000000
FFFFFFFFFFFFFF8000000000000000
FFFFFFFFFFFFFF8000000000000000
FFFFFFFFFFFFFF8000000000000000
FFFFFFFFFFFFFFC000000000000000
FFFFFFFFFFFFFFC000000000000000
FFFFFFFFFFFFFFC000000000000000
FFFFFFFFFFFFFFC000000000000000
FFFFFFFFFFFFFFC000000000000000
FFFFFFFFFFFFFF8000000000000000
FFFFFFFFFFFFFF8000000000000000
FFFFFFFFFFFFFF8000000000000000
FFFFFFFFFFFFFF0000000000000000
FFFFFFFFFFFFFE0000000000000000
FFFFFFFFFFFFFC0000000000000000
FFFFFFFFFFFFF80000000000000000
FFFFFFFFFFFFE00000000000000000
FFFFF8000000000000000000000000
FFFFF8000000000000000000000000
FFFFF8000000000000000000000000
FFFFF8000000000000000000000000
FFFFF8000000000000000000000000
FFFFF8000000000000000000000000
FFFFF8000000000000000000000000
FFFFF8000000000000000000000000
FFFFF8000000000000000000000000
FFFFF8000000000000000000000000
FFFFF80000000000000000001FC000
FFFFF80000000000000000007FF000
FFFFF8000000000000000000FFF800
FFFFF8000000000000000001FFFC00
FFFFF8000000000000000003FFFE00
FFFFF8000000000000000007FFFF00
FFFFF8000000000000000007FFFF00
FFFFFC00000000000000000FFFFF00
FFFFFC00000000000000000FFFFF80
7FFFFE00000000000000000FFFFF80
7FFFFF00000000000000000FFFFF80
7FFFFF80000000000000000FFFFF80
7FFFFFC0000000000000000FFFFF80
3FFFFFE0000000000000001FFFFF80
3FFFFFFC000000000000003FFFFF80
3FFFFFFFFFFFFFFFFFFFFFFFFFFF00
1FFFFFFFFFFFFFFFFFFFFFFFFFFF00
1FFFFFFFFFFFFFFFFFFFFFFFFFFF00
0FFFFFFFFFFFFFFFFFFFFFFFFFFF00
0FFFFFFFFFFFFFFFFFFFFFFFFFFE00
07FFFFFFFFFFFFFFFFFFFFFFFFFE00
03FFFFFFFFFFFFFFFFFFFFFFFFFC00
01FFFFFFFFFFFFFFFFFFFFFFFFFC00
01FFFFFFFFFFFFFFFFFFFFFFFFF800
00FFFFFFFFFFFFFFFFFFFFFFFFF800
007FFFFFFFFFFFFFFFFFFFFFFFF000
003FFFFFFFFFFFFFFFFFFFFFFFE000
001FFFFFFFFFFFFFFFFFFFFFFFC000
000FFFFFFFFFFFFFFFFFFFFFFFC000
0003FFFFFFFFFFFFFFFFFFFFFF0000
0001FFFFFFFFFFFFFFFFFFFFFE0000
00007FFFFFFFFFFFFFFFFFFFFC0000
00003FFFFFFFFFFFFFFFFFFFF80000
000007FFFFFFFFFFFFFFFFFFE00000
000001FFFFFFFFFFFFFFFFFF000000
0000000FFFFFFFFFFFFFFFF8000000
ENDCHAR
STARTCHAR 0046
ENCODING 70
SWIDTH 892 0
DWIDTH 129 0
BBX 115 110 0 -2
BITMAP
0000000FFFFFFFFFFFFFFFFE000000
000000FFFFFFFFFFFFFFFFFFC00000
000007FFFFFFFFFFFFFFFFFFF00000
00001FFFFFFFFFFFFFFFFFFFFC0000
00007FFFFFFFFFFFFFFFFFFFFF0000
0000FFFFFFFFFFFFFFFFFFFFFF8000
0003FFFFFFFFFFFFFFFFFFFFFFC000
0007FFFFFFFFFFFFFFFFFFFFFFE000
000FFFFFFFFFFFFFFFFFFFFFFFF000
001FFFFFFFFFFFFFFFFFFFFFFFF800
003FFFFFFFFFFFFFFFFFFFFFFFFC00
007FFFFFFFFFFFFFFFFFFFFFFFFC00
00FFFFFFFFFFFFFFFFFFFFFFFFFE00
01FFFFFFFFFFFFFFFFFFFFFFFFFF00
03FFFFFFFFFFFFFFFFFFFFFFFFFF00
03FFFFFFFFFFFFFFFFFFFFFFFFFF80
07FFFFFFFFFFFFFFFFFFFFFFFFFF80
0FFFFFFFFFFFFFFFFFFFFFFFFFFF80
0FFFFFFFFFFFFFFFFFFFFFFFFFFFC0
1FFFFFFFFFFFFFFFFFFFFFFFFFFFC0
1FFFFFFFFFFFFFFFFFFFFFFFFFFFC0
1FFFFFFFFFFFFFFFFFFFFFFFFFFFE0
3FFFFFFFFFFFFFFFFFFFFFFFFFFFE0
3FFFFFFC000000000000000FFFFFE0
7FFFFFF00000000000000007FFFFE0
7FFFFFC00000000000000003FFFFE0
7FFFFF800000000000000003FFFFE0
7FFFFF000000000000000003FFFFE0
7FFFFE000000000000000003FFFFE0
FFFFFE000000000000000003FFFFE0
FFFFFC000000000000000001FFFFE0
FFFFFC000000000000000001FFFFC0
FFFFF8000000000000000001FFFFC0
FFFFF8000000000000000000FFFF80
FFFFF80000000000000000007FFF00
FFFFF80000000000000000003FFE00
FFFFF80000000000000000001FFC00
FFFFF800000000000000000003F000
FFFFF8000000000000000000000000
FFFFF8000000000000000000000000
FFFFF8000000000000000000000000
FFFFF8000000000000000000000000
FFFFF8000000000000000000000000
FFFFF8000000000000000000000000
FFFFF8000000000000000000000000
FFFFF8000000000000000000000000
FFFFF8000000000000000000000000
FFFFF8000000000000000000000000
FFFFFFFFFFFFFFFFF8000000000000
FFFFFFFFFFFFFFFFFE000000000000
FFFFFFFFFFFFFFFFFF800000000000
FFFFFFFFFFFFFFFFFFC00000000000
FFFFFFFFFFFFFFFFFFC00000000000
FFFFFFFFFFFFFFFFFFE00000000000
FFFFFFFFFFFFFFFFFFF00000000000
FFFFFFFFFFFFFFFFFFF00000000000
FFFFFFFFFFFFFFFFFFF00000000000
FFFFFFFFFFFFFFFFFFF80000000000
FFFFFFFFFFFFFFFFFFF80000000000
FFFFFFFFFFFFFFFFFFF80000000000
FFFFFFFFFFFFFFFFFFF00000000000
FFFFFFFFFFFFFFFFFFF00000000000
FFFFFFFFFFFFFFFFFFF00000000000
FFFFFFFFFFFFFFFFFFE00000000000
FFFFFFFFFFFFFFFFFFE00000000000
FFFFFFFFFFFFFFFFFFC00000000000
FFFFFFFFFFFFFFFFFF800000000000
FFFFFFFFFFFFFFFFFF000000000000
FFFFFFFFFFFFFFFFFC000000000000
FFFFF8000000000000000000000000
FFFFF8000000000000000000000000
FFFFF8000000000000000000000000
FFFFF8000000000000000000000000
FFFFF8000000000000000000000000
FFFFF8000000000000000000000000
FFFFF8000000000000000000000000
FFFFF8000000000000000000000000
FFFFF8000000000000000000000000
FFFFF8000000000000000000000000
FFFFF8000000000000000000000000
FFFFF8000000000000000000000000
FFFFF8000000000000000000000000
FFFFF8000000000000000000000000
FFFFF8000000000000000000000000
FFFFF8000000000000000000000000
FFFFF8000000000000000000000000
FFFFF8000000000000000000000000
FFFFF8000000000000000000000000
FFFFF8000000000000000000000000
FFFFF8000000000000000000000000
FFFFF8000000000000000000000000
FFFFF8000000000000000000000000
FFFFF8000000000000000000000000
FFFFF8000000000000000000000000
FFFFF8000000000000000000000000
FFFFF8000000000000000000000000
FFFFF8000000000000000000000000
FFFFF8000000000000000000000000
FFFFF8000000000000000000000000
FFFFF8000000000000000000000000
FFFFF8000000000000000000000000
FFFFF8000000000000000000000000
7FFFF8000000000000000000000000
7FFFF0000000000000000000000000
7FFFF0000000000000000000000000
3FFFE0000000000000000000000000
1FFFC0000000000000000000000000
0FFF80000000000000000000000000
07FF00000000000000000000000000
01FC00000000000000000000000000
ENDCHAR
STARTCHAR 0047
ENCODING 71
SWIDTH 892 0
DWIDTH 129 0
BBX 113 108 0 0
BITMAP
0000000FFFFFFFFFFFFFFFF8000000
000001FFFFFFFFFFFFFFFFFF000000
000007FFFFFFFFFFFFFFFFFFE00000
00003FFFFFFFFFFFFFFFFFFFF80000
00007FFFFFFFFFFFFFFFFFFFFC0000
0001FFFFFFFFFFFFFFFFFFFFFE0000
0003FFFFFFFFFFFFFFFFFFFFFF8000
000FFFFFFFFFFFFFFFFFFFFFFFC000
001FFFFFFFFFFFFFFFFFFFFFFFC000
003FFFFFFFFFFFFFFFFFFFFFFFE000
007FFFFFFFFFFFFFFFFFFFFFFFF000
00FFFFFFFFFFFFFFFFFFFFFFFFF800
01FFFFFFFFFFFFFFFFFFFFFFFFF800
01FFFFFFFFFFFFFFFFFFFFFFFFFC00
03FFFFFFFFFFFFFFFFFFFFFFFFFE00
07FFFFFFFFFFFFFFFFFFFFFFFFFE00
07FFFFFFFFFFFFFFFFFFFFFFFFFE00
0FFFFFFFFFFFFFFFFFFFFFFFFFFF00
1FFFFFFFFFFFFFFFFFFFFFFFFFFF00
1FFFFFFFFFFFFFFFFFFFFFFFFFFF00
3FFFFFFFFFFFFFFFFFFFFFFFFFFF00
3FFFFFFC000000000000003FFFFF80
3FFFFFE0000000000000001FFFFF80
7FFFFFC0000000000000000FFFFF80
7FFFFF80000000000000000FFFFF80
7FFFFF00000000000000000FFFFF80
7FFFFE00000000000000000FFFFF80
FFFFFC00000000000000000FFFFF80
FFFFFC00000000000000000FFFFF00
FFFFF8000000000000000007FFFF00
FFFFF8000000000000000007FFFE00
FFFFF8000000000000000003FFFE00
FFFFF8000000000000000001FFFC00
FFFFF8000000000000000000FFF800
FFFFF80000000000000000007FE000
FFFFF80000000000000000000F8000
FFFFF8000000000000000000000000
FFFFF8000000000000000000000000
FFFFF8000000000000000000000000
FFFFF8000000000000000000000000
FFFFF8000000000000000000000000
FFFFF8000000000000000000000000
FFFFF8000000000000000000000000
FFFFF8000000000000000000000000
FFFFF8000000000000000000000000
FFFFF8000000000000000000000000
FFFFF8000000000000000000000000
FFFFF8000000000000000000000000
FFFFF8000000000000000000000000
FFFFF8000000000000000000000000
FFFFF8000000000000000000000000
FFFFF8000000000000000000000000
FFFFF8000000000000000000000000
FFFFF8000000000000000000000000
FFFFF8000000000000000FFC000000
FFFFF8000000000000003FFF800000
FFFFF8000000000000007FFFC00000
FFFFF800000000000000FFFFF00000
FFFFF800000000000001FFFFF80000
FFFFF800000000000001FFFFFC0000
FFFFF800000000000003FFFFFE0000
FFFFF800000000000003FFFFFF0000
FFFFF800000000000003FFFFFF8000
FFFFF800000000000003FFFFFFC000
FFFFF800000000000003FFFFFFC000
FFFFF800000000000003FFFFFFE000
FFFFF800000000000003FFFFFFF000
FFFFF800000000000003FFFFFFF000
FFFFF800000000000001FFFFFFF800
FFFFF800000000000001FFFFFFF800
FFFFF800000000000000FFFFFFFC00
FFFFF8000000000000007FFFFFFC00
FFFFF8000000000000003FFFFFFE00
FFFFF8000000000000000FFFFFFE00
FFFFF80000000000000003FFFFFE00
FFFFF800000000000000007FFFFE00
FFFFF800000000000000003FFFFF00
FFFFF800000000000000003FFFFF00
FFFFF800000000000000001FFFFF00
FFFFFC00000000000000001FFFFF00
FFFFFC00000000000000001FFFFF00
7FFFFE00000000000000001FFFFF00
7FFFFF00000000000000001FFFFF00
7FFFFF80000000000000003FFFFF00
7FFFFFC0000000000000003FFFFF00
3FFFFFE0000000000000007FFFFE00
3FFFFFFC00000000000001FFFFFE00
3FFFFFFFFFFFFFFFFFFFFFFFFFFE00
1FFFFFFFFFFFFFFFFFFFFFFFFFFE00
1FFFFFFFFFFFFFFFFFFFFFFFFFFC00
0FFFFFFFFFFFFFFFFFFFFFFFFFFC00
0FFFFFFFFFFFFFFFFFFFFFFFFFFC00
07FFFFFFFFFFFFFFFFFFFFFFFFF800
03FFFFFFFFFFFFFFFFFFFFFFFFF800
01FFFFFFFFFFFFFFFFFFFFFFFFF000
01FFFFFFFFFFFFFFFFFFFFFFFFF000
00FFFFFFFFFFFFFFFFFFFFFFFFE000
007FFFFFFFFFFFFFFFFFFFFFFFC000
003FFFFFFFFFFFFFFFFFFFFFFF8000
001FFFFFFFFFFFFFFFFFFFFFFF0000
000FFFFFFFFFFFFFFFFFFFFFFE0000
0003FFFFFFFFFFFFFFFFFFFFFC0000
0001FFFFFFFFFFFFFFFFFFFFF80000
0000FFFFFFFFFFFFFFFFFFFFF00000
00003FFFFFFFFFFFFFFFFFFFC00000
00000FFFFFFFFFFFFFFFFFFF000000
000001FFFFFFFFFFFFFFFFFC000000
0000001FFFFFFFFFFFFFFFC0000000
ENDCHAR
STARTCHAR 0048
ENCODING 72
SWIDTH 892 0
DWIDTH 129 0
BBX 116 111 0 -2
BITMAP
00FC0000000000000000000003F000
07FF800000000000000000001FFE00
0FFFC00000000000000000003FFF00
1FFFE00000000000000000007FFF80
3FFFF0000000000000000000FFFFC0
7FFFF8000000000000000001FFFFE0
7FFFF8000000000000000001FFFFE0
FFFFF8000000000000000001FFFFE0
FFFFFC000000000000000003FFFFF0
FFFFFC000000000000000003FFFFF0
FFFFFC000000000000000003FFFFF0
FFFFFC000000000000000003FFFFF0
FFFFFC000000000000000003FFFFF0
FFFFFC000000000000000003FFFFF0
FFFFFC000000000000000003FFFFF0
FFFFFC000000000000000003FFFFF0
FFFFFC000000000000000003FFFFF0
FFFFFC000000000000000003FFFFF0
FFFFFC000000000000000003FFFFF0
FFFFFC000000000000000003FFFFF0
FFFFFC000000000000000003FFFFF0
FFFFFC000000000000000003FFFFF0
FFFFFC000000000000000003FFFFF0
FFFFFC000000000000000003FFFFF0
FFFFFC000000000000000003FFFFF0
FFFFFC000000000000000003FFFFF0
FFFFFC000000000000000003FFFFF0
FFFFFC000000000000000003FFFFF0
FFFFFC000000000000000003FFFFF0
FFFFFC000000000000000003FFFFF0
FFFFFC000000000000000003FFFFF0
FFFFFC000000000000000003FFFFF0
FFFFFC000000000000000003FFFFF0
FFFFFC000000000000000003FFFFF0
FFFFFC000000000000000003FFFFF0
FFFFFC000000000000000003FFFFF0
FFFFFC000000000000000003FFFFF0
FFFFFC000000000000000003FFFFF0
FFFFFC000000000000000003FFFFF0
FFFFFC000000000000000003FFFFF0
FFFFFC000000000000000003FFFFF0
FFFFFC000000000000000003FFFFF0
FFFFFC000000000000000003FFFFF0
FFFFFC000000000000000003FFFFF0
FFFFFC000000000000000003FFFFF0
FFFFFC000000000000000003FFFFF0
FFFFFC000000000000000003FFFFF0
FFFFFC000000000000000003FFFFF0
FFFFFFFFFFFFFFFFFFFFFFFFFFFFF0
FFFFFFFFFFFFFFFFFFFFFFFFFFFFF0
FFFFFFFFFFFFFFFFFFFFFFFFFFFFF0
FFFFFFFFFFFFFFFFFFFFFFFFFFFFF0
FFFFFFFFFFFFFFFFFFFFFFFFFFFFF0
FFFFFFFFFFFFFFFFFFFFFFFFFFFFF0
FFFFFFFFFFFFFFFFFFFFFFFFFFFFF0
FFFFFFFFFFFFFFFFFFFFFFFFFFFFF0
FFFFFFFFFFFFFFFFFFFFFFFFFFFFF0
FFFFFFFFFFFFFFFFFFFFFFFFFFFFF0
FFFFFFFFFFFFFFFFFFFFFFFFFFFFF0
FFFFFFFFFFFFFFFFFFFFFFFFFFFFF0
FFFFFFFFFFFFFFFFFFFFFFFFFFFFF0
FFFFFFFFFFFFFFFFFFFFFFFFFFFFF0
FFFFFFFFFFFFFFFFFFFFFFFFFFFFF0
FFFFFFFFFFFFFFFFFFFFFFFFFFFFF0
FFFFFFFFFFFFFFFFFFFFFFFFFFFFF0
FFFFFFFFFFFFFFFFFFFFFFFFFFFFF0
FFFFFFFFFFFFFFFFFFFFFFFFFFFFF0
FFFFFFFFFFFFFFFFFFFFFFFFFFFFF0
FFFFFFFFFFFFFFFFFFFFFFFFFFFFF0
FFFFFFFFFFFFFFFFFFFFFFFFFFFFF0
FFFFFC000000000000000003FFFFF0
FFFFFC000000000000000003FFFFF0
FFFFFC000000000000000003FFFFF0
FFFFFC000000000000000003FFFFF0
FFFFFC000000000000000003FFFFF0
FFFFFC000000000000000003FFFFF0
FFFFFC000000000000000003FFFFF0
FFFFFC000000000000000003FFFFF0
FFFFFC000000000000000003FFFFF0
FFFFFC000000000000000003FFFFF0
FFFFFC000000000000000003FFFFF0
FFFFFC000000000000000003FFFFF0
FFFFFC000000000000000003FFFFF0
FFFFFC000000000000000003FFFFF0
FFFFFC000000000000000003FFFFF0
FFFFFC000000000000000003FFFFF0
FFFFFC000000000000000003FFFFF0
FFFFFC000000000000000003FFFFF0
FFFFFC000000000000000003FFFFF0
FFFFFC000000000000000003FFFFF0
FFFFFC000000000000000003FFFFF0
FFFFFC000000000000000003FFFFF0
FFFFFC000000000000000003FFFFF0
FFFFFC000000000000000003FFFFF0
FFFFFC000000000000000003FFFFF0
FFFFFC000000000000000003FFFFF0
FFFFFC000000000000000003FFFFF0
FFFFFC000000000000000003FFFFF0
FFFFFC000000000000000003FFFFF0
FFFFFC000000000000000003FFFFF0
FFFFFC000000000000000003FFFFF0
FFFFFC000000000000000003FFFFF0
FFFFFC000000000000000003FFFFF0
FFFFF8000000000000000003FFFFE0
7FFFF8000000000000000001FFFFE0
7FFFF8000000000000000001FFFFE0
3FFFF0000000000000000000FFFFC0
1FFFE00000000000000000007FFF80
0FFFC00000000000000000003FFF00
07FF800000000000000000001FFE00
00FC0000000000000000000003F000
ENDCHAR
STARTCHAR 0049
ENCODING 73
SWIDTH 249 0
DWIDTH 36 0
BBX 22 111 0 -2
BITMAP
00FC00
07FF80
0FFFC0
1FFFE0
3FFFF0
7FFFF8
7FFFF8
FFFFF8
FFFFFC
FFFFFC
FFFFFC
FFFFFC
FFFFFC
FFFFFC
FFFFFC
FFFFFC
FFFFFC
FFFFFC
FFFFFC
FFFFFC
FFFFFC
FFFFFC
FFFFFC
FFFFFC
FFFFFC
FFFFFC
FFFFFC
FFFFFC
FFFFFC
FFFFFC
FFFFFC
FFFFFC
FFFFFC
FFFFFC
FFFFFC
FFFFFC
FFFFFC
FFFFFC
FFFFFC
FFFFFC
FFFFFC
FFFFFC
FFFFFC
FFFFFC
FFFFFC
FFFFFC
FFFFFC
FFFFFC
FFFFFC
FFFFFC
FFFFFC
FFFFFC
FFFFFC
FFFFFC
FFFFFC
FFFFFC
FFFFFC
FFFFFC
FFFFFC
FFFFFC
FFFFFC
FFFFFC
FFFFFC
FFFFFC
FFFFFC
FFFFFC
FFFFFC
FFFFFC
FFFFFC
FFFFFC
FFFFFC
FFFFFC
FFFFFC
FFFFFC
FFFFFC
FFFFFC
FFFFFC
FFFFFC
FFFFFC
FFFFFC
FFFFFC
FFFFFC
FFFFFC
FFFFFC
FFFFFC
FFFFFC
FFFFFC
FFFFFC
FFFFFC
FFFFFC
FFFFFC
FFFFFC
FFFFFC
FFFFFC
FFFFFC
FFFFFC
FFFFFC
FFFFFC
FFFFFC
FFFFFC
FFFFFC
FFFFFC
FFFFFC
FFFFF8
7FFFF8
7FFFF8
3FFFF0
1FFFE0
0FFFC0
07FF80
00FC00
ENDCHAR
STARTCHAR 004A
ENCODING 74
SWIDTH 892 0
DWIDTH 129 0
BBX 115 110 0 -1
BITMAP
00000000000000000000000007F000
0000000000000000000000001FFC00
0000000000000000000000003FFE00
0000000000000000000000007FFF00
000000000000000000000000FFFF80
000000000000000000000001FFFFC0
000000000000000000000001FFFFC0
000000000000000000000003FFFFC0
000000000000000000000003FFFFE0
000000000000000000000003FFFFE0
000000000000000000000003FFFFE0
000000000000000000000003FFFFE0
000000000000000000000003FFFFE0
000000000000000000000003FFFFE0
000000000000000000000003FFFFE0
000000000000000000000003FFFFE0
000000000000000000000003FFFFE0
000000000000000000000003FFFFE0
000000000000000000000003FFFFE0
000000000000000000000003FFFFE0
000000000000000000000003FFFFE0
000000000000000000000003FFFFE0
000000000000000000000003FFFFE0
000000000000000000000003FFFFE0
000000000000000000000003FFFFE0
000000000000000000000003FFFFE0
000000000000000000000003FFFFE0
000000000000000000000003FFFFE0
000000000000000000000003FFFFE0
000000000000000000000003FFFFE0
000000000000000000000003FFFFE0
000000000000000000000003FFFFE0
000000000000000000000003FFFFE0
000000000000000000000003FFFFE0
000000000000000000000003FFFFE0
000000000000000000000003FFFFE0
000000000000000000000003FFFFE0
000000000000000000000003FFFFE0
000000000000000000000003FFFFE0
000000000000000000000003FFFFE0
000000000000000000000003FFFFE0
000000000000000000000003FFFFE0
000000000000000000000003FFFFE0
000000000000000000000003FFFFE0
000000000000000000000003FFFFE0
000000000000000000000003FFFFE0
000000000000000000000003FFFFE0
000000000000000000000003FFFFE0
000000000000000000000003FFFFE0
000000000000000000000003FFFFE0
000000000000000000000003FFFFE0
000000000000000000000003FFFFE0
000000000000000000000003FFFFE0
000000000000000000000003FFFFE0
000000000000000000000003FFFFE0
000000000000000000000003FFFFE0
000000000000000000000003FFFFE0
000000000000000000000003FFFFE0
000000000000000000000003FFFFE0
000000000000000000000003FFFFE0
000000000000000000000003FFFFE0
000000000000000000000003FFFFE0
000000000000000000000003FFFFE0
000000000000000000000003FFFFE0
000000000000000000000003FFFFE0
000000000000000000000003FFFFE0
000000000000000000000003FFFFE0
000000000000000000000003FFFFE0
000000000000000000000003FFFFE0
000000000000000000000003FFFFE0
000000000000000000000003FFFFE0
000000000000000000000003FFFFE0
002000000000000000000003FFFFE0
03FE00000000000000000003FFFFE0
0FFF00000000000000000003FFFFE0
1FFF80000000000000000003FFFFE0
3FFFC0000000000000000003FFFFE0
7FFFE0000000000000000003FFFFE0
7FFFF0000000000000000003FFFFE0
7FFFF0000000000000000007FFFFE0
FFFFF0000000000000000007FFFFE0
FFFFF8000000000000000007FFFFC0
FFFFF800000000000000000FFFFFC0
FFFFF800000000000000001FFFFFC0
FFFFF800000000000000001FFFFFC0
FFFFF800000000000000003FFFFF80
FFFFF800000000000000007FFFFF80
FFFFFC0000000000000001FFFFFF80
FFFFFE0000000000000007FFFFFF00
FFFFFFFFFFFFFFFFFFFFFFFFFFFF00
7FFFFFFFFFFFFFFFFFFFFFFFFFFF00
7FFFFFFFFFFFFFFFFFFFFFFFFFFE00
7FFFFFFFFFFFFFFFFFFFFFFFFFFE00
3FFFFFFFFFFFFFFFFFFFFFFFFFFC00
3FFFFFFFFFFFFFFFFFFFFFFFFFF800
1FFFFFFFFFFFFFFFFFFFFFFFFFF800
1FFFFFFFFFFFFFFFFFFFFFFFFFF000
0FFFFFFFFFFFFFFFFFFFFFFFFFE000
0FFFFFFFFFFFFFFFFFFFFFFFFFC000
07FFFFFFFFFFFFFFFFFFFFFFFF8000
03FFFFFFFFFFFFFFFFFFFFFFFF0000
01FFFFFFFFFFFFFFFFFFFFFFFE0000
00FFFFFFFFFFFFFFFFFFFFFFFC0000
007FFFFFFFFFFFFFFFFFFFFFF80000
003FFFFFFFFFFFFFFFFFFFFFE00000
001FFFFFFFFFFFFFFFFFFFFFC00000
0007FFFFFFFFFFFFFFFFFFFF000000
0003FFFFFFFFFFFFFFFFFFFC000000
00007FFFFFFFFFFFFFFFFFE0000000
00000FFFFFFFFFFFFFFFFE00000000
ENDCHAR
STARTCHAR 004B
ENCODING 75
SWIDTH 892 0
DWIDTH 129 0
BBX 120 111 0 -2
BITMAP
00FC00000000000000000000FE0000
07FF80000000000000000003FF8000
0FFFC000000000000000000FFFC000
1FFFE000000000000000001FFFE000
3FFFF000000000000000003FFFF000
7FFFF800000000000000003FFFF800
7FFFF800000000000000007FFFF800
7FFFF800000000000000007FFFFC00
FFFFFC00000000000000007FFFFC00
FFFFFC00000000000000007FFFFC00
FFFFFC0000000000000000FFFFFC00
FFFFFC0000000000000000FFFFFC00
FFFFFC0000000000000000FFFFFC00
FFFFFC0000000000000000FFFFFC00
FFFFFC0000000000000001FFFFF800
FFFFFC0000000000000001FFFFF800
FFFFFC0000000000000001FFFFF800
FFFFFC0000000000000001FFFFF800
FFFFFC0000000000000003FFFFF800
FFFFFC0000000000000003FFFFF000
FFFFFC0000000000000003FFFFF000
FFFFFC0000000000000003FFFFF000
FFFFFC0000000000000003FFFFF000
FFFFFC0000000000000007FFFFE000
FFFFFC0000000000000007FFFFE000
FFFFFC0000000000000007FFFFE000
FFFFFC0000000000000007FFFFE000
FFFFFC000000000000000FFFFFE000
FFFFFC000000000000000FFFFFC000
FFFFFC000000000000000FFFFFC000
FFFFFC000000000000000FFFFFC000
FFFFFC000000000000001FFFFFC000
FFFFFC000000000000001FFFFF8000
FFFFFC000000000000003FFFFF8000
FFFFFC000000000000007FFFFF8000
FFFFFC00000000000000FFFFFF8000
FFFFFC00000000000001FFFFFF0000
FFFFFC00000000000003FFFFFF0000
FFFFFC0000000000000FFFFFFF0000
FFFFFFFFFFFFFFFFFFFFFFFFFE0000
FFFFFFFFFFFFFFFFFFFFFFFFFE0000
FFFFFFFFFFFFFFFFFFFFFFFFFC0000
FFFFFFFFFFFFFFFFFFFFFFFFFC0000
FFFFFFFFFFFFFFFFFFFFFFFFF80000
FFFFFFFFFFFFFFFFFFFFFFFFF80000
FFFFFFFFFFFFFFFFFFFFFFFFF00000
FFFFFFFFFFFFFFFFFFFFFFFFF00000
FFFFFFFFFFFFFFFFFFFFFFFFF80000
FFFFFFFFFFFFFFFFFFFFFFFFFC0000
FFFFFFFFFFFFFFFFFFFFFFFFFE0000
FFFFFFFFFFFFFFFFFFFFFFFFFF0000
FFFFFFFFFFFFFFFFFFFFFFFFFF8000
FFFFFFFFFFFFFFFFFFFFFFFFFFC000
FFFFFFFFFFFFFFFFFFFFFFFFFFC000
FFFFFFFFFFFFFFFFFFFFFFFFFFE000
FFFFFFFFFFFFFFFFFFFFFFFFFFF000
FFFFFFFFFFFFFFFFFFFFFFFFFFF000
FFFFFFFFFFFFFFFFFFFFFFFFFFF800
FFFFFFFFFFFFFFFFFFFFFFFFFFF800
FFFFFFFFFFFFFFFFFFFFFFFFFFFC00
FFFFFFFFFFFFFFFFFFFFFFFFFFFC00
FFFFFC000000000000001FFFFFFE00
FFFFFC0000000000000007FFFFFE00
FFFFFC0000000000000001FFFFFE00
FFFFFC0000000000000000FFFFFF00
FFFFFC00000000000000007FFFFF00
FFFFFC00000000000000007FFFFF00
FFFFFC00000000000000003FFFFF00
FFFFFC00000000000000003FFFFF80
FFFFFC00000000000000001FFFFF80
FFFFFC00000000000000001FFFFF80
FFFFFC00000000000000001FFFFF80
FFFFFC00000000000000001FFFFFC0
FFFFFC00000000000000000FFFFFC0
FFFFFC00000000000000000FFFFFC0
FFFFFC00000000000000000FFFFFC0
FFFFFC00000000000000000FFFFFE0
FFFFFC000000000000000007FFFFE0
FFFFFC000000000000000007FFFFE0
FFFFFC000000000000000007FFFFE0
FFFFFC000000000000000007FFFFE0
FFFFFC000000000000000003FFFFF0
FFFFFC000000000000000003FFFFF0
FFFFFC000000000000000003FFFFF0
FFFFFC000000000000000003FFFFF0
FFFFFC000000000000000003FFFFF8
FFFFFC000000000000000001FFFFF8
FFFFFC000000000000000001FFFFF8
FFFFFC000000000000000001FFFFF8
FFFFFC000000000000000001FFFFFC
FFFFFC000000000000000000FFFFFC
FFFFFC000000000000000000FFFFFC
FFFFFC000000000000000000FFFFFC
FFFFFC000000000000000000FFFFFC
FFFFFC000000000000000000FFFFFE
FFFFFC0000000000000000007FFFFE
FFFFFC0000000000000000007FFFFE
FFFFFC0000000000000000007FFFFE
FFFFFC0000000000000000007FFFFF
FFFFFC0000000000000000003FFFFF
FFFFFC0000000000000000003FFFFF
FFFFFC0000000000000000003FFFFF
FFFFFC0000000000000000003FFFFF
FFFFFC0000000000000000001FFFFE
7FFFF80000000000000000001FFFFE
7FFFF80000000000000000001FFFFC
3FFFF00000000000000000000FFFFC
1FFFE000000000000000000007FFF8
0FFFC000000000000000000003FFF0
07FF8000000000000000000001FFC0
00FC00000000000000000000003F00
ENDCHAR
STARTCHAR 004C
ENCODING 76
SWIDTH 892 0
DWIDTH 129 0
BBX 115 110 0 -1
BITMAP
01FC00000000000000000000000000
07FF00000000000000000000000000
0FFF80000000000000000000000000
1FFFC0000000000000000000000000
3FFFE0000000000000000000000000
7FFFF0000000000000000000000000
7FFFF0000000000000000000000000
7FFFF8000000000000000000000000
FFFFF8000000000000000000000000
FFFFF8000000000000000000000000
FFFFF8000000000000000000000000
FFFFF8000000000000000000000000
FFFFF8000000000000000000000000
FFFFF8000000000000000000000000
FFFFF8000000000000000000000000
FFFFF8000000000000000000000000
FFFFF8000000000000000000000000
FFFFF8000000000000000000000000
FFFFF8000000000000000000000000
FFFFF8000000000000000000000000
FFFFF8000000000000000000000000
FFFFF8000000000000000000000000
FFFFF8000000000000000000000000
FFFFF8000000000000000000000000
FFFFF8000000000000000000000000
FFFFF8000000000000000000000000
FFFFF8000000000000000000000000
FFFFF8000000000000000000000000
FFFFF8000000000000000000000000
FFFFF8000000000000000000000000
FFFFF8000000000000000000000000
FFFFF8000000000000000000000000
FFFFF8000000000000000000000000
FFFFF8000000000000000000000000
FFFFF8000000000000000000000000
FFFFF8000000000000000000000000
FFFFF8000000000000000000000000
FFFFF8000000000000000000000000
FFFFF8000000000000000000000000
FFFFF8000000000000000000000000
FFFFF8000000000000000000000000
FFFFF8000000000000000000000000
FFFFF8000000000000000000000000
FFFFF8000000000000000000000000
FFFFF8000000000000000000000000
FFFFF8000000000000000000000000
FFFFF8000000000000000000000000
FFFFF8000000000000000000000000
FFFFF8000000000000000000000000
FFFFF8000000000000000000000000
FFFFF8000000000000000000000000
FFFFF8000000000000000000000000
FFFFF8000000000000000000000000
FFFFF8000000000000000000000000
FFFFF8000000000000000000000000
FFFFF8000000000000000000000000
FFFFF8000000000000000000000000
FFFFF8000000000000000000000000
FFFFF8000000000000000000000000
FFFFF8000000000000000000000000
FFFFF8000000000000000000000000
FFFFF8000000000000000000000000
FFFFF8000000000000000000000000
FFFFF8000000000000000000000000
FFFFF8000000000000000000000000
FFFFF8000000000000000000000000
FFFFF8000000000000000000000000
FFFFF8000000000000000000000000
FFFFF8000000000000000000000000
FFFFF8000000000000000000000000
FFFFF8000000000000000000000000
FFFFF8000000000000000000000000
FFFFF8000000000000000000008000
FFFFF80000000000000000000FF800
FFFFF80000000000000000001FFE00
FFFFF80000000000000000003FFF00
FFFFF80000000000000000007FFF80
FFFFF8000000000000000000FFFF80
FFFFF8000000000000000001FFFFC0
FFFFFC000000000000000001FFFFC0
FFFFFC000000000000000001FFFFE0
7FFFFC000000000000000003FFFFE0
7FFFFE000000000000000003FFFFE0
7FFFFE000000000000000003FFFFE0
7FFFFF000000000000000003FFFFE0
7FFFFF800000000000000003FFFFE0
3FFFFFC00000000000000003FFFFE0
3FFFFFF00000000000000007FFFFE0
1FFFFFFC000000000000000FFFFFE0
1FFFFFFFFFFFFFFFFFFFFFFFFFFFE0
1FFFFFFFFFFFFFFFFFFFFFFFFFFFC0
0FFFFFFFFFFFFFFFFFFFFFFFFFFFC0
0FFFFFFFFFFFFFFFFFFFFFFFFFFFC0
07FFFFFFFFFFFFFFFFFFFFFFFFFF80
03FFFFFFFFFFFFFFFFFFFFFFFFFF80
03FFFFFFFFFFFFFFFFFFFFFFFFFF00
01FFFFFFFFFFFFFFFFFFFFFFFFFF00
00FFFFFFFFFFFFFFFFFFFFFFFFFE00
007FFFFFFFFFFFFFFFFFFFFFFFFE00
003FFFFFFFFFFFFFFFFFFFFFFFFC00
001FFFFFFFFFFFFFFFFFFFFFFFF800
000FFFFFFFFFFFFFFFFFFFFFFFF000
0007FFFFFFFFFFFFFFFFFFFFFFE000
0003FFFFFFFFFFFFFFFFFFFFFFC000
0000FFFFFFFFFFFFFFFFFFFFFF8000
00007FFFFFFFFFFFFFFFFFFFFF0000
00001FFFFFFFFFFFFFFFFFFFFC0000
000007FFFFFFFFFFFFFFFFFFF80000
000000FFFFFFFFFFFFFFFFFFC00000
0000000FFFFFFFFFFFFFFFFE000000
ENDCHAR
STARTCHAR 004D
ENCODING 77
SWIDTH 1148 0
DWIDTH 166 0
BBX 158 110 0 -2
BITMAP
0000000FFFFFFFFFFFFFFFFFFFFFC00000000000
000000FFFFFFFFFFFFFFFFFFFFFFFE0000000000
000007FFFFFFFFFFFFFFFFFFFFFFFF8000000000
00001FFFFFFFFFFFFFFFFFFFFFFFFFF000000000
00007FFFFFFFFFFFFFFFFFFFFFFFFFF800000000
0000FFFFFFFFFFFFFFFFFFFFFFFFFFFE00000000
0003FFFFFFFFFFFFFFFFFFFFFFFFFFFF00000000
0007FFFFFFFFFFFFFFFFFFFFFFFFFFFFC0000000
000FFFFFFFFFFFFFFFFFFFFFFFFFFFFFE0000000
001FFFFFFFFFFFFFFFFFFFFFFFFFFFFFF0000000
003FFFFFFFFFFFFFFFFFFFFFFFFFFFFFF8000000
007FFFFFFFFFFFFFFFFFFFFFFFFFFFFFFC000000
00FFFFFFFFFFFFFFFFFFFFFFFFFFFFFFFE000000
01FFFFFFFFFFFFFFFFFFFFFFFFFFFFFFFF000000
03FFFFFFFFFFFFFFFFFFFFFFFFFFFFFFFF000000
07FFFFFFFFFFFFFFFFFFFFFFFFFFFFFFFF800000
07FFFFFFFFFFFFFFFFFFFFFFFFFFFFFFFFC00000
0FFFFFFFFFFFFFFFFFFFFFFFFFFFFFFFFFC00000
0FFFFFFFFFFFFFFFFFFFFFFFFFFFFFFFFFE00000
1FFFFFFFFFFFFFFFFFFFFFFFFFFFFFFFFFE00000
1FFFFFFFFFFFFFFFFFFFFFFFFFFFFFFFFFF00000
3FFFFFFE00000000FFFFFC000000FFFFFFF00000
3FFFFFF800000000FFFFFC0000001FFFFFF80000
3FFFFFE000000000FFFFFC0000000FFFFFF80000
7FFFFFC000000000FFFFFC00000003FFFFF80000
7FFFFF8000000000FFFFFC00000001FFFFFC0000
7FFFFF0000000000FFFFFC00000001FFFFFC0000
FFFFFE0000000000FFFFFC00000000FFFFFC0000
FFFFFE0000000000FFFFFC000000007FFFFC0000
FFFFFE0000000000FFFFFC000000007FFFFE0000
FFFFFC0000000000FFFFFC000000007FFFFE0000
FFFFFC0000000000FFFFFC000000007FFFFE0000
FFFFFC0000000000FFFFFC000000003FFFFE0000
FFFFFC0000000000FFFFFC000000003FFFFE0000
FFFFFC0000000000FFFFFC000000003FFFFF0000
FFFFFC0000000000FFFFFC000000003FFFFF0000
FFFFFC0000000000FFFFFC000000001FFFFF0000
FFFFFC0000000000FFFFFC000000001FFFFF0000
FFFFFC0000000000FFFFFC000000001FFFFF8000
FFFFFC0000000000FFFFFC000000001FFFFF8000
FFFFFC0000000000FFFFFC000000001FFFFF8000
FFFFFC0000000000FFFFFC000000000FFFFF8000
FFFFFC0000000000FFFFFC000000000FFFFF8000
FFFFFC0000000000FFFFFC000000000FFFFFC000
FFFFFC0000000000FFFFFC000000000FFFFFC000
FFFFFC0000000000FFFFFC000000000FFFFFC000
FFFFFC0000000000FFFFFC0000000007FFFFC000
FFFFFC0000000000FFFFFC0000000007FFFFE000
FFFFFC0000000000FFFFFC0000000007FFFFE000
FFFFFC0000000000FFFFFC0000000007FFFFE000
FFFFFC0000000000FFFFFC0000000003FFFFE000
FFFFFC0000000000FFFFFC0000000003FFFFE000
FFFFFC0000000000FFFFFC0000000003FFFFF000
FFFFFC0000000000FFFFFC0000000003FFFFF000
FFFFFC0000000000FFFFFC0000000003FFFFF000
FFFFFC0000000000FFFFFC0000000001FFFFF000
FFFFFC0000000000FFFFFC0000000001FFFFF800
FFFFFC0000000000FFFFFC0000000001FFFFF800
FFFFFC0000000000FFFFFC0000000001FFFFF800
FFFFFC0000000000FFFFFC0000000000FFFFF800
FFFFFC0000000000FFFFFC0000000000FFFFF800
FFFFFC0000000000FFFFFC0000000000FFFFFC00
FFFFFC0000000000FFFFFC0000000000FFFFFC00
FFFFFC0000000000FFFFFC0000000000FFFFFC00
FFFFFC0000000000FFFFFC00000000007FFFFC00
FFFFFC0000000000FFFFFC00000000007FFFFE00
FFFFFC0000000000FFFFFC00000000007FFFFE00
FFFFFC0000000000FFFFFC00000000007FFFFE00
FFFFFC0000000000FFFFFC00000000003FFFFE00
FFFFFC0000000000FFFFFC00000000003FFFFE00
FFFFFC0000000000FFFFFC00000000003FFFFF00
FFFFFC0000000000FFFFFC00000000003FFFFF00
FFFFFC0000000000FFFFFC00000000003FFFFF00
FFFFFC0000000000FFFFFC00000000001FFFFF00
FFFFFC0000000000FFFFFC00000000001FFFFF80
FFFFFC0000000000FFFFFC00000000001FFFFF80
FFFFFC0000000000FFFFFC00000000001FFFFF80
FFFFFC0000000000FFFFFC00000000001FFFFF80
FFFFFC0000000000FFFFFC00000000000FFFFF80
FFFFFC0000000000FFFFFC00000000000FFFFFC0
FFFFFC0000000000FFFFFC00000000000FFFFFC0
FFFFFC0000000000FFFFFC00000000000FFFFFC0
FFFFFC0000000000FFFFFC000000000007FFFFC0
FFFFFC0000000000FFFFFC000000000007FFFFE0
FFFFFC0000000000FFFFFC000000000007FFFFE0
FFFFFC0000000000FFFFFC000000000007FFFFE0
FFFFFC0000000000FFFFFC000000000007FFFFE0
FFFFFC0000000000FFFFFC000000000003FFFFE0
FFFFFC0000000000FFFFFC000000000003FFFFF0
FFFFFC0000000000FFFFFC000000000003FFFFF0
FFFFFC0000000000FFFFFC000000000003FFFFF0
FFFFFC0000000000FFFFFC000000000001FFFFF0
FFFFFC0000000000FFFFFC000000000001FFFFF8
FFFFFC0000000000FFFFFC000000000001FFFFF8
FFFFFC0000000000FFFFFC000000000001FFFFF8
FFFFFC0000000000FFFFFC000000000001FFFFF8
FFFFFC0000000000FFFFFC000000000000FFFFF8
FFFFFC0000000000FFFFFC000000000000FFFFFC
FFFFFC0000000000FFFFFC000000000000FFFFFC
FFFFFC0000000000FFFFFC000000000000FFFFFC
FFFFFC0000000000FFFFFC000000000000FFFFFC
FFFFFC0000000000FFFFFC0000000000007FFFFC
FFFFF80000000000FFFFF80000000000007FFFF8
7FFFF800000000007FFFF80000000000007FFFF8
7FFFF000000000007FFFF00000000000003FFFF0
3FFFF000000000003FFFF00000000000003FFFF0
1FFFE000000000001FFFE00000000000001FFFE0
0FFFC000000000000FFFC00000000000000FFFC0
07FF80000000000007FF0000000000000003FF00
01FC00000000000001FC0000000000000000FC00
ENDCHAR
STARTCHAR 004E
ENCODING 78
SWIDTH 892 0
DWIDTH 129 0
BBX 123 110 0 -2
BITMAP
0000000FFFFFFFFFFFFE000000000000
000000FFFFFFFFFFFFFFE00000000000
000007FFFFFFFFFFFFFFFC0000000000
00001FFFFFFFFFFFFFFFFF0000000000
00007FFFFFFFFFFFFFFFFFC000000000
0000FFFFFFFFFFFFFFFFFFF000000000
0003FFFFFFFFFFFFFFFFFFF800000000
0007FFFFFFFFFFFFFFFFFFFE00000000
000FFFFFFFFFFFFFFFFFFFFF00000000
001FFFFFFFFFFFFFFFFFFFFF80000000
003FFFFFFFFFFFFFFFFFFFFFC0000000
007FFFFFFFFFFFFFFFFFFFFFE0000000
00FFFFFFFFFFFFFFFFFFFFFFF0000000
01FFFFFFFFFFFFFFFFFFFFFFF0000000
03FFFFFFFFFFFFFFFFFFFFFFF8000000
03FFFFFFFFFFFFFFFFFFFFFFFC000000
07FFFFFFFFFFFFFFFFFFFFFFFE000000
0FFFFFFFFFFFFFFFFFFFFFFFFE000000
0FFFFFFFFFFFFFFFFFFFFFFFFF000000
1FFFFFFFFFFFFFFFFFFFFFFFFF000000
1FFFFFFFFFFFFFFFFFFFFFFFFF800000
3FFFFFFC00000000000FFFFFFF800000
3FFFFFF0000000000001FFFFFF800000
3FFFFFC00000000000007FFFFFC00000
7FFFFF800000000000003FFFFFC00000
7FFFFF000000000000001FFFFFC00000
7FFFFE000000000000000FFFFFE00000
7FFFFE000000000000000FFFFFE00000
FFFFFC0000000000000007FFFFE00000
FFFFFC0000000000000007FFFFE00000
FFFFF80000000000000007FFFFF00000
FFFFF80000000000000003FFFFF00000
FFFFF80000000000000003FFFFF00000
FFFFF80000000000000003FFFFF00000
FFFFF80000000000000003FFFFF00000
FFFFF80000000000000003FFFFF80000
FFFFF80000000000000001FFFFF80000
FFFFF80000000000000001FFFFF80000
FFFFF80000000000000001FFFFF80000
FFFFF80000000000000001FFFFFC0000
FFFFF80000000000000000FFFFFC0000
FFFFF80000000000000000FFFFFC0000
FFFFF80000000000000000FFFFFC0000
FFFFF80000000000000000FFFFFC0000
FFFFF80000000000000000FFFFFE0000
FFFFF800000000000000007FFFFE0000
FFFFF800000000000000007FFFFE0000
FFFFF800000000000000007FFFFE0000
FFFFF800000000000000007FFFFF0000
FFFFF800000000000000003FFFFF0000
FFFFF800000000000000003FFFFF0000
FFFFF800000000000000003FFFFF0000
FFFFF800000000000000003FFFFF0000
FFFFF800000000000000003FFFFF8000
FFFFF800000000000000001FFFFF8000
FFFFF800000000000000001FFFFF8000
FFFFF800000000000000001FFFFF8000
FFFFF800000000000000001FFFFFC000
FFFFF800000000000000000FFFFFC000
FFFFF800000000000000000FFFFFC000
FFFFF800000000000000000FFFFFC000
FFFFF800000000000000000FFFFFC000
FFFFF800000000000000000FFFFFE000
FFFFF8000000000000000007FFFFE000
FFFFF8000000000000000007FFFFE000
FFFFF8000000000000000007FFFFE000
FFFFF8000000000000000007FFFFF000
FFFFF8000000000000000003FFFFF000
FFFFF8000000000000000003FFFFF000
FFFFF8000000000000000003FFFFF000
FFFFF8000000000000000003FFFFF000
FFFFF8000000000000000003FFFFF800
FFFFF8000000000000000001FFFFF800
FFFFF8000000000000000001FFFFF800
FFFFF8000000000000000001FFFFF800
FFFFF8000000000000000001FFFFFC00
FFFFF8000000000000000000FFFFFC00
FFFFF8000000000000000000FFFFFC00
FFFFF8000000000000000000FFFFFC00
FFFFF8000000000000000000FFFFFC00
FFFFF8000000000000000000FFFFFE00
FFFFF80000000000000000007FFFFE00
FFFFF80000000000000000007FFFFE00
FFFFF80000000000000000007FFFFE00
FFFFF80000000000000000007FFFFF00
FFFFF80000000000000000003FFFFF00
FFFFF80000000000000000003FFFFF00
FFFFF80000000000000000003FFFFF00
FFFFF80000000000000000003FFFFF00
FFFFF80000000000000000003FFFFF80
FFFFF80000000000000000001FFFFF80
FFFFF80000000000000000001FFFFF80
FFFFF80000000000000000001FFFFF80
FFFFF80000000000000000001FFFFFC0
FFFFF80000000000000000000FFFFFC0
FFFFF80000000000000000000FFFFFC0
FFFFF80000000000000000000FFFFFC0
FFFFF80000000000000000000FFFFFC0
FFFFF80000000000000000000FFFFFC0
FFFFF800000000000000000007FFFFE0
FFFFF800000000000000000007FFFFC0
FFFFF800000000000000000007FFFFC0
FFFFF800000000000000000007FFFFC0
7FFFF000000000000000000003FFFFC0
7FFFF000000000000000000003FFFF80
3FFFE000000000000000000001FFFF00
1FFFC000000000000000000000FFFF00
0FFF80000000000000000000007FFE00
07FF00000000000000000000003FF800
01FC00000000000000000000000FE000
ENDCHAR
STARTCHAR 004F
ENCODING 79
SWIDTH 892 0
DWIDTH 129 0
BBX 113 108 0 0
BITMAP
0000000FFFFFFFFFFFFFF800000000
000001FFFFFFFFFFFFFFFFC0000000
000007FFFFFFFFFFFFFFFFF0000000
00001FFFFFFFFFFFFFFFFFFC000000
00007FFFFFFFFFFFFFFFFFFF000000
0001FFFFFFFFFFFFFFFFFFFFC00000
0003FFFFFFFFFFFFFFFFFFFFE00000
0007FFFFFFFFFFFFFFFFFFFFF00000
001FFFFFFFFFFFFFFFFFFFFFFC0000
003FFFFFFFFFFFFFFFFFFFFFFE0000
007FFFFFFFFFFFFFFFFFFFFFFF0000
00FFFFFFFFFFFFFFFFFFFFFFFF8000
00FFFFFFFFFFFFFFFFFFFFFFFF8000
01FFFFFFFFFFFFFFFFFFFFFFFFC000
03FFFFFFFFFFFFFFFFFFFFFFFFE000
07FFFFFFFFFFFFFFFFFFFFFFFFF000
07FFFFFFFFFFFFFFFFFFFFFFFFF000
0FFFFFFFFFFFFFFFFFFFFFFFFFF800
0FFFFFFFFFFFFFFFFFFFFFFFFFF800
1FFFFFFFFFFFFFFFFFFFFFFFFFFC00
1FFFFFFFFFFFFFFFFFFFFFFFFFFC00
3FFFFFFC0000000000001FFFFFFE00
3FFFFFF000000000000007FFFFFE00
7FFFFFC000000000000001FFFFFE00
7FFFFF8000000000000000FFFFFF00
7FFFFF00000000000000007FFFFF00
7FFFFE00000000000000003FFFFF00
7FFFFE00000000000000003FFFFF00
FFFFFC00000000000000001FFFFF80
FFFFFC00000000000000001FFFFF80
FFFFF800000000000000000FFFFF80
FFFFF800000000000000000FFFFF80
FFFFF800000000000000000FFFFF80
FFFFF800000000000000000FFFFF80
FFFFF800000000000000000FFFFF80
FFFFF800000000000000000FFFFF80
FFFFF800000000000000000FFFFF80
FFFFF800000000000000000FFFFF80
FFFFF800000000000000000FFFFF80
FFFFF800000000000000000FFFFF80
FFFFF800000000000000000FFFFF80
FFFFF800000000000000000FFFFF80
FFFFF800000000000000000FFFFF80
FFFFF800000000000000000FFFFF80
FFFFF800000000000000000FFFFF80
FFFFF800000000000000000FFFFF80
FFFFF800000000000000000FFFFF80
FFFFF800000000000000000FFFFF80
FFFFF800000000000000000FFFFF80
FFFFF800000000000000000FFFFF80
FFFFF800000000000000000FFFFF80
FFFFF800000000000000000FFFFF80
FFFFF800000000000000000FFFFF80
FFFFF800000000000000000FFFFF80
FFFFF800000000000000000FFFFF80
FFFFF800000000000000000FFFFF80
FFFFF800000000000000000FFFFF80
FFFFF800000000000000000FFFFF80
FFFFF800000000000000000FFFFF80
FFFFF800000000000000000FFFFF80
FFFFF800000000000000000FFFFF80
FFFFF800000000000000000FFFFF80
FFFFF800000000000000000FFFFF80
FFFFF800000000000000000FFFFF80
FFFFF800000000000000000FFFFF80
FFFFF800000000000000000FFFFF80
FFFFF800000000000000000FFFFF80
FFFFF800000000000000000FFFFF80
FFFFF800000000000000000FFFFF80
FFFFF800000000000000000FFFFF80
FFFFF800000000000000000FFFFF80
FFFFF800000000000000000FFFFF80
FFFFF800000000000000000FFFFF80
FFFFF800000000000000000FFFFF80
FFFFF800000000000000000FFFFF80
FFFFF800000000000000000FFFFF80
FFFFF800000000000000000FFFFF80
FFFFF800000000000000000FFFFF80
FFFFFC00000000000000001FFFFF80
FFFFFC00000000000000001FFFFF80
7FFFFC00000000000000003FFFFF00
7FFFFE00000000000000003FFFFF00
7FFFFF00000000000000007FFFFF00
7FFFFF8000000000000000FFFFFF00
7FFFFFC000000000000001FFFFFE00
3FFFFFE000000000000003FFFFFE00
3FFFFFFC0000000000001FFFFFFE00
1FFFFFFFFFFFFFFFFFFFFFFFFFFC00
1FFFFFFFFFFFFFFFFFFFFFFFFFFC00
1FFFFFFFFFFFFFFFFFFFFFFFFFF800
0FFFFFFFFFFFFFFFFFFFFFFFFFF800
07FFFFFFFFFFFFFFFFFFFFFFFFF000
07FFFFFFFFFFFFFFFFFFFFFFFFF000
03FFFFFFFFFFFFFFFFFFFFFFFFE000
01FFFFFFFFFFFFFFFFFFFFFFFFC000
01FFFFFFFFFFFFFFFFFFFFFFFF8000
00FFFFFFFFFFFFFFFFFFFFFFFF8000
007FFFFFFFFFFFFFFFFFFFFFFF0000
003FFFFFFFFFFFFFFFFFFFFFFE0000
001FFFFFFFFFFFFFFFFFFFFFFC0000
000FFFFFFFFFFFFFFFFFFFFFF00000
0003FFFFFFFFFFFFFFFFFFFFE00000
0001FFFFFFFFFFFFFFFFFFFFC00000
00007FFFFFFFFFFFFFFFFFFF000000
00003FFFFFFFFFFFFFFFFFFE000000
000007FFFFFFFFFFFFFFFFF0000000
000001FFFFFFFFFFFFFFFFC0000000
0000000FFFFFFFFFFFFFF800000000
ENDCHAR
STARTCHAR 0050
ENCODING 80
SWIDTH 885 0
DWIDTH 128 0
BBX 116 110 0 -2
BITMAP
000007FFFFFFFFFFFFFFFF00000000
00007FFFFFFFFFFFFFFFFFF0000000
0001FFFFFFFFFFFFFFFFFFFE000000
0007FFFFFFFFFFFFFFFFFFFF800000
000FFFFFFFFFFFFFFFFFFFFFE00000
003FFFFFFFFFFFFFFFFFFFFFF00000
007FFFFFFFFFFFFFFFFFFFFFFC0000
00FFFFFFFFFFFFFFFFFFFFFFFE0000
01FFFFFFFFFFFFFFFFFFFFFFFF0000
03FFFFFFFFFFFFFFFFFFFFFFFF8000
07FFFFFFFFFFFFFFFFFFFFFFFFC000
0FFFFFFFFFFFFFFFFFFFFFFFFFE000
0FFFFFFFFFFFFFFFFFFFFFFFFFF000
1FFFFFFFFFFFFFFFFFFFFFFFFFF800
1FFFFFFFFFFFFFFFFFFFFFFFFFFC00
3FFFFFFFFFFFFFFFFFFFFFFFFFFC00
3FFFFFFFFFFFFFFFFFFFFFFFFFFE00
7FFFFFFFFFFFFFFFFFFFFFFFFFFF00
7FFFFFFFFFFFFFFFFFFFFFFFFFFF00
7FFFFFFFFFFFFFFFFFFFFFFFFFFF80
7FFFFFFFFFFFFFFFFFFFFFFFFFFF80
FFFFFF0000000000000003FFFFFFC0
FFFFFE0000000000000000FFFFFFC0
FFFFFC00000000000000003FFFFFC0
FFFFFC00000000000000001FFFFFE0
FFFFFC00000000000000000FFFFFE0
FFFFFC000000000000000007FFFFE0
FFFFFC000000000000000007FFFFE0
FFFFFC000000000000000003FFFFF0
FFFFFC000000000000000003FFFFF0
FFFFFC000000000000000001FFFFF0
FFFFFC000000000000000001FFFFF0
FFFFFC000000000000000001FFFFF0
FFFFFC000000000000000001FFFFF0
FFFFFC000000000000000001FFFFF0
FFFFFC000000000000000001FFFFF0
FFFFFC000000000000000001FFFFF0
FFFFFC000000000000000003FFFFF0
FFFFFC000000000000000003FFFFF0
FFFFFC000000000000000003FFFFF0
FFFFFC000000000000000007FFFFE0
FFFFFC00000000000000000FFFFFE0
FFFFFC00000000000000001FFFFFE0
FFFFFC00000000000000003FFFFFE0
FFFFFC00000000000000007FFFFFC0
FFFFFC0000000000000001FFFFFFC0
FFFFFC000000000000001FFFFFFFC0
FFFFFC00000000000003FFFFFFFF80
FFFFFC0000000000003FFFFFFFFF80
FFFFFC000000000007FFFFFFFFFF00
FFFFFC00000000007FFFFFFFFFFF00
FFFFFC000000000FFFFFFFFFFFFE00
FFFFFC00000000FFFFFFFFFFFFFE00
FFFFFC0000001FFFFFFFFFFFFFFC00
FFFFFC000003FFFFFFFFFFFFFFF800
FFFFFC00003FFFFFFFFFFFFFFFF800
FFFFFC0007FFFFFFFFFFFFFFFFF000
FFFFFC007FFFFFFFFFFFFFFFFFE000
FFFFFC0FFFFFFFFFFFFFFFFFFFC000
FFFFFCFFFFFFFFFFFFFFFFFFFF8000
FFFFFFFFFFFFFFFFFFFFFFFFFF0000
FFFFFFFFFFFFFFFFFFFFFFFFFE0000
FFFFFFFFFFFFFFFFFFFFFFFFF80000
FFFFFFFFFFFFFFFFFFFFFFFFF00000
FFFFFFFFFFFFFFFFFFFFFFFFC00000
FFFFFFFFFFFFFFFFFFFFFFFF800000
FFFFFFFFFFFFFFFFFFFFFFFC000000
FFFFFFFFFFFFFFFFFFFFFFF0000000
FFFFFFFFFFFFFFFFFFFFFF00000000
FFFFFFFFFFFFFFFFFFFFE000000000
FFFFFFFFFFFFFFFFFFFC0000000000
FFFFFFFFFFFFFFFFFFC00000000000
FFFFFFFFFFFFFFFFF8000000000000
FFFFFFFFFFFFFFFF80000000000000
FFFFFFFFFFFFFFF000000000000000
FFFFFFFFFFFFFF0000000000000000
FFFFFFFFFFFFE00000000000000000
FFFFFFFFFFFE000000000000000000
FFFFFFFFFFC0000000000000000000
FFFFFFFFFC00000000000000000000
FFFFFFFF8000000000000000000000
FFFFFFF80000000000000000000000
FFFFFF000000000000000000000000
FFFFFC000000000000000000000000
FFFFFC000000000000000000000000
FFFFFC000000000000000000000000
FFFFFC000000000000000000000000
FFFFFC000000000000000000000000
FFFFFC000000000000000000000000
FFFFFC000000000000000000000000
FFFFFC000000000000000000000000
FFFFFC000000000000000000000000
FFFFFC000000000000000000000000
FFFFFC000000000000000000000000
FFFFFC000000000000000000000000
FFFFFC000000000000000000000000
FFFFFC000000000000000000000000
FFFFFC000000000000000000000000
FFFFFC000000000000000000000000
FFFFFC000000000000000000000000
FFFFFC000000000000000000000000
FFFFFC000000000000000000000000
FFFFF8000000000000000000000000
7FFFF8000000000000000000000000
7FFFF8000000000000000000000000
3FFFF0000000000000000000000000
1FFFE0000000000000000000000000
0FFFC0000000000000000000000000
07FF80000000000000000000000000
00FC00000000000000000000000000
ENDCHAR
STARTCHAR 0051
ENCODING 81
SWIDTH 892 0
DWIDTH 129 0
BBX 114 132 0 -24
BITMAP
0000000FFFFFFFFFFFFFFC00000000
000000FFFFFFFFFFFFFFFFC0000000
000007FFFFFFFFFFFFFFFFF8000000
00001FFFFFFFFFFFFFFFFFFE000000
00007FFFFFFFFFFFFFFFFFFF800000
0001FFFFFFFFFFFFFFFFFFFFE00000
0003FFFFFFFFFFFFFFFFFFFFF00000
0007FFFFFFFFFFFFFFFFFFFFF80000
000FFFFFFFFFFFFFFFFFFFFFFC0000
003FFFFFFFFFFFFFFFFFFFFFFE0000
007FFFFFFFFFFFFFFFFFFFFFFF0000
007FFFFFFFFFFFFFFFFFFFFFFF8000
00FFFFFFFFFFFFFFFFFFFFFFFFC000
01FFFFFFFFFFFFFFFFFFFFFFFFE000
03FFFFFFFFFFFFFFFFFFFFFFFFF000
07FFFFFFFFFFFFFFFFFFFFFFFFF000
07FFFFFFFFFFFFFFFFFFFFFFFFF800
0FFFFFFFFFFFFFFFFFFFFFFFFFFC00
0FFFFFFFFFFFFFFFFFFFFFFFFFFC00
1FFFFFFFFFFFFFFFFFFFFFFFFFFE00
1FFFFFFFFFFFFFFFFFFFFFFFFFFE00
3FFFFFFC0000000000000FFFFFFF00
3FFFFFF000000000000003FFFFFF00
3FFFFFC000000000000000FFFFFF00
7FFFFF80000000000000007FFFFF80
7FFFFF00000000000000003FFFFF80
7FFFFE00000000000000001FFFFF80
7FFFFE00000000000000001FFFFF80
FFFFFC00000000000000000FFFFFC0
FFFFFC00000000000000000FFFFFC0
FFFFF8000000000000000007FFFFC0
FFFFF8000000000000000007FFFFC0
FFFFF8000000000000000007FFFFC0
FFFFF8000000000000000007FFFFC0
FFFFF8000000000000000007FFFFC0
FFFFF8000000000000000007FFFFC0
FFFFF8000000000000000007FFFFC0
FFFFF8000000000000000007FFFFC0
FFFFF8000000000000000007FFFFC0
FFFFF8000000000000000007FFFFC0
FFFFF8000000000000000007FFFFC0
FFFFF8000000000000000007FFFFC0
FFFFF8000000000000000007FFFFC0
FFFFF8000000000000000007FFFFC0
FFFFF8000000000000000007FFFFC0
FFFFF8000000000000000007FFFFC0
FFFFF8000000000000000007FFFFC0
FFFFF8000000000000000007FFFFC0
FFFFF8000000000000000007FFFFC0
FFFFF8000000000000000007FFFFC0
FFFFF8000000000000000007FFFFC0
FFFFF8000000000000000007FFFFC0
FFFFF8000000000000000007FFFFC0
FFFFF8000000000000000007FFFFC0
FFFFF8000000000000000007FFFFC0
FFFFF8000000000000000007FFFFC0
FFFFF8000000000000000007FFFFC0
FFFFF8000000000000000007FFFFC0
FFFFF8000000000000000007FFFFC0
FFFFF8000000000000000007FFFFC0
FFFFF8000000000000000007FFFFC0
FFFFF8000000000000000007FFFFC0
FFFFF8000000000000000007FFFFC0
FFFFF8000000000000000007FFFFC0
FFFFF8000000000000000007FFFFC0
FFFFF8000000000000000007FFFFC0
FFFFF8000000000000000007FFFFC0
FFFFF8000000000000000007FFFFC0
FFFFF8000000000000000007FFFFC0
FFFFF8000000000000000007FFFFC0
FFFFF8000000000000000007FFFFC0
FFFFF8000000000000000007FFFFC0
FFFFF8000000000000000007FFFFC0
FFFFF8000000000000000007FFFFC0
FFFFF8000000000000000007FFFFC0
FFFFF8000000000000000007FFFFC0
FFFFF8000000000000000007FFFFC0
FFFFF8000000000000000007FFFFC0
FFFFF8000000000000000007FFFFC0
FFFFFC00000000000000000FFFFFC0
FFFFFC00000000000000000FFFFFC0
7FFFFE00000000000000001FFFFF80
7FFFFE00000000000000001FFFFF80
7FFFFF00000000000000003FFFFF80
7FFFFF80000000000000007FFFFF80
3FFFFFC000000000000000FFFFFF00
3FFFFFF000000000000003FFFFFF00
3FFFFFFC0000000000000FFFFFFF00
1FFFFFFFF80000007FFFFFFFFFFE00
1FFFFFFFFE000003FFFFFFFFFFFE00
0FFFFFFFFF80001FFFFFFFFFFFFC00
0FFFFFFFFFC0007FFFFFFFFFFFFC00
07FFFFFFFFC000FFFFFFFFFFFFF800
07FFFFFFFFE001FFFFFFFFFFFFF800
03FFFFFFFFF007FFFFFFFFFFFFF000
01FFFFFFFFF00FFFFFFFFFFFFFE000
00FFFFFFFFF01FFFFFFFFFFFFFC000
007FFFFFFFF03FFFFFFFFFFFFF8000
007FFFFFFFF03FFFFFFFFFFFFF8000
003FFFFFFFF07FFFFFFFFFFFFF0000
000FFFFFFFF0FFFFFFFFFFFFFC0000
0007FFFFFFF0FFFFFFFFFFFFF80000
0003FFFFFFF1FFFFFFFFFFFFF00000
0001FFFFFFE1FFFFFFFFFFFFE00000
00007FFFFFE3FFFFFFFFFFFF800000
00001FFFFFC3FFFFFFFFFFFE000000
000007FFFF83FFFFFFFFFFF8000000
000000FFFE03FFFFFFFFFFC0000000
0000000FF807FFFFFFFFFC00000000
000000000007FFFFF0000000000000
000000000007FFFFE0000000000000
000000000007FFFFC0000000000000
000000000007FFFFC0000000000000
000000000007FFFFC0000000000000
000000000007FFFFC0000000000000
000000000007FFFFC0000000000000
000000000007FFFFC0000000000000
000000000007FFFFC0000000000000
000000000007FFFFC0000000000000
000000000007FFFFC0000000000000
000000000007FFFFC0000000000000
000000000007FFFFC0000000000000
000000000007FFFFC0000000000000
000000000007FFFFC0000000000000
000000000007FFFFC0000000000000
000000000003FFFF80000000000000
000000000003FFFF80000000000000
000000000001FFFF00000000000000
000000000000FFFE00000000000000
0000000000007FFC00000000000000
0000000000003FF800000000000000
0000000000000FE000000000000000
ENDCHAR
STARTCHAR 0052
ENCODING 82
SWIDTH 892 0
DWIDTH 129 0
BBX 113 110 0 -2
BITMAP
00000FFFFFFFFFFFFFFFF800000000
00007FFFFFFFFFFFFFFFFFC0000000
0003FFFFFFFFFFFFFFFFFFF0000000
0007FFFFFFFFFFFFFFFFFFFC000000
001FFFFFFFFFFFFFFFFFFFFF000000
003FFFFFFFFFFFFFFFFFFFFFC00000
007FFFFFFFFFFFFFFFFFFFFFE00000
00FFFFFFFFFFFFFFFFFFFFFFF00000
01FFFFFFFFFFFFFFFFFFFFFFFC0000
03FFFFFFFFFFFFFFFFFFFFFFFE0000
07FFFFFFFFFFFFFFFFFFFFFFFF0000
0FFFFFFFFFFFFFFFFFFFFFFFFF8000
0FFFFFFFFFFFFFFFFFFFFFFFFF8000
1FFFFFFFFFFFFFFFFFFFFFFFFFC000
3FFFFFFFFFFFFFFFFFFFFFFFFFE000
3FFFFFFFFFFFFFFFFFFFFFFFFFF000
3FFFFFFFFFFFFFFFFFFFFFFFFFF000
7FFFFFFFFFFFFFFFFFFFFFFFFFF800
7FFFFFFFFFFFFFFFFFFFFFFFFFF800
7FFFFFFFFFFFFFFFFFFFFFFFFFFC00
FFFFFFFFFFFFFFFFFFFFFFFFFFFC00
FFFFFE000000000000001FFFFFFE00
FFFFFC0000000000000007FFFFFE00
FFFFF80000000000000001FFFFFE00
FFFFF80000000000000000FFFFFF00
FFFFF800000000000000007FFFFF00
FFFFF800000000000000003FFFFF00
FFFFF800000000000000003FFFFF00
FFFFF800000000000000001FFFFF80
FFFFF800000000000000001FFFFF80
FFFFF800000000000000000FFFFF80
FFFFF800000000000000000FFFFF80
FFFFF800000000000000000FFFFF80
FFFFF800000000000000000FFFFF80
FFFFF800000000000000000FFFFF80
FFFFF800000000000000000FFFFF80
FFFFF800000000000000000FFFFF80
FFFFF800000000000000001FFFFF80
FFFFF800000000000000001FFFFF80
FFFFF800000000000000001FFFFF80
FFFFF800000000000000003FFFFF00
FFFFF800000000000000007FFFFF00
FFFFF80000000000000000FFFFFF00
FFFFF80000000000000001FFFFFF00
FFFFF80000000000000003FFFFFE00
FFFFF8000000000000001FFFFFFE00
FFFFF800000000000001FFFFFFFE00
FFFFF80000000000001FFFFFFFFC00
FFFFF8000000000003FFFFFFFFFC00
FFFFF800000000003FFFFFFFFFF800
FFFFF80000000003FFFFFFFFFFF800
FFFFF8000000007FFFFFFFFFFFF000
FFFFF800000007FFFFFFFFFFFFE000
FFFFF80000007FFFFFFFFFFFFFE000
FFFFF8000003FFFFFFFFFFFFFFC000
FFFFF800000FFFFFFFFFFFFFFF8000
FFFFF800003FFFFFFFFFFFFFFF0000
FFFFF80000FFFFFFFFFFFFFFFF0000
FFFFF80001FFFFFFFFFFFFFFFE0000
FFFFF80003FFFFFFFFFFFFFFFC0000
FFFFF80007FFFFFFFFFFFFFFF00000
FFFFF8000FFFFFFFFFFFFFFFE00000
FFFFF8001FFFFFFFFFFFFFFFC00000
FFFFF8003FFFFFFFFFFFFFFF000000
FFFFF8003FFFFFFFFFFFFFFC000000
FFFFF8007FFFFFFFFFFFFFF0000000
FFFFF800FFFFFFFFFFFFFF80000000
FFFFF800FFFFFFFFFFFFF800000000
FFFFF801FFFFFFFFFFFF0000000000
FFFFF801FFFFFFFFFFF00000000000
FFFFF801FFFFFFFFFE000000000000
FFFFF803FFFFFFFFE0000000000000
FFFFF803FFFFFFFE00000000000000
FFFFF803FFFFFFC000000000000000
FFFFF803FFFFFC0000000000000000
FFFFF807FFFFF00000000000000000
FFFFF807FFFFE00000000000000000
FFFFF807FFFFE00000000000000000
FFFFF807FFFFC00000000000000000
FFFFF807FFFFC00000000000000000
FFFFF807FFFFC00000000000000000
FFFFF807FFFFC00000000000000000
FFFFF807FFFFC00000000000000000
FFFFF807FFFFE00000000000000000
FFFFF807FFFFE00000000000000000
FFFFF807FFFFF00000000000000000
FFFFF803FFFFFC0000000000000000
FFFFF803FFFFFFFFFFFFFFFFFC0000
FFFFF803FFFFFFFFFFFFFFFFFF0000
FFFFF803FFFFFFFFFFFFFFFFFFC000
FFFFF801FFFFFFFFFFFFFFFFFFE000
FFFFF801FFFFFFFFFFFFFFFFFFE000
FFFFF800FFFFFFFFFFFFFFFFFFF000
FFFFF800FFFFFFFFFFFFFFFFFFF800
FFFFF8007FFFFFFFFFFFFFFFFFF800
FFFFF8007FFFFFFFFFFFFFFFFFF800
FFFFF8003FFFFFFFFFFFFFFFFFF800
FFFFF8001FFFFFFFFFFFFFFFFFF800
FFFFF8000FFFFFFFFFFFFFFFFFF800
FFFFF80007FFFFFFFFFFFFFFFFF800
FFFFF80003FFFFFFFFFFFFFFFFF800
FFFFF80001FFFFFFFFFFFFFFFFF800
FFFFF80000FFFFFFFFFFFFFFFFF000
7FFFF000007FFFFFFFFFFFFFFFE000
7FFFF000001FFFFFFFFFFFFFFFE000
3FFFE0000007FFFFFFFFFFFFFFC000
1FFFC0000001FFFFFFFFFFFFFF0000
0FFF800000001FFFFFFFFFFFFC0000
07FF00000000000000000000000000
01FC00000000000000000000000000
ENDCHAR
STARTCHAR 0053
ENCODING 83
SWIDTH 892 0
DWIDTH 129 0
BBX 113 108 0 0
BITMAP
000003FFFFFFFFFFFFFFFFFFFFC000
00001FFFFFFFFFFFFFFFFFFFFFF000
0000FFFFFFFFFFFFFFFFFFFFFFFC00
0003FFFFFFFFFFFFFFFFFFFFFFFE00
0007FFFFFFFFFFFFFFFFFFFFFFFE00
001FFFFFFFFFFFFFFFFFFFFFFFFF00
003FFFFFFFFFFFFFFFFFFFFFFFFF80
007FFFFFFFFFFFFFFFFFFFFFFFFF80
00FFFFFFFFFFFFFFFFFFFFFFFFFF80
01FFFFFFFFFFFFFFFFFFFFFFFFFF80
03FFFFFFFFFFFFFFFFFFFFFFFFFF80
07FFFFFFFFFFFFFFFFFFFFFFFFFF80
07FFFFFFFFFFFFFFFFFFFFFFFFFF80
0FFFFFFFFFFFFFFFFFFFFFFFFFFF80
1FFFFFFFFFFFFFFFFFFFFFFFFFFF00
1FFFFFFFFFFFFFFFFFFFFFFFFFFE00
3FFFFFFFFFFFFFFFFFFFFFFFFFFE00
3FFFFFFFFFFFFFFFFFFFFFFFFFFC00
3FFFFFFFFFFFFFFFFFFFFFFFFFF000
7FFFFFFFFFFFFFFFFFFFFFFFFFC000
7FFFFF000000000000000000000000
7FFFFE000000000000000000000000
7FFFFC000000000000000000000000
FFFFF8000000000000000000000000
FFFFF8000000000000000000000000
FFFFF0000000000000000000000000
FFFFF0000000000000000000000000
FFFFF0000000000000000000000000
FFFFF0000000000000000000000000
FFFFF8000000000000000000000000
FFFFF8000000000000000000000000
FFFFFC000000000000000000000000
7FFFFE000000000000000000000000
7FFFFF800000000000000000000000
7FFFFFF00000000000000000000000
7FFFFFFE0000000000000000000000
3FFFFFFFE000000000000000000000
3FFFFFFFFC00000000000000000000
3FFFFFFFFFC0000000000000000000
1FFFFFFFFFF8000000000000000000
1FFFFFFFFFFF800000000000000000
0FFFFFFFFFFFF00000000000000000
0FFFFFFFFFFFFF0000000000000000
07FFFFFFFFFFFFE000000000000000
03FFFFFFFFFFFFFC00000000000000
01FFFFFFFFFFFFFFC0000000000000
01FFFFFFFFFFFFFFF8000000000000
00FFFFFFFFFFFFFFFF800000000000
007FFFFFFFFFFFFFFFF00000000000
003FFFFFFFFFFFFFFFFF0000000000
000FFFFFFFFFFFFFFFFFE000000000
0007FFFFFFFFFFFFFFFFFE00000000
0001FFFFFFFFFFFFFFFFFFC0000000
00007FFFFFFFFFFFFFFFFFF0000000
00000FFFFFFFFFFFFFFFFFFE000000
000001FFFFFFFFFFFFFFFFFFC00000
0000001FFFFFFFFFFFFFFFFFF00000
00000003FFFFFFFFFFFFFFFFF80000
000000003FFFFFFFFFFFFFFFFC0000
0000000007FFFFFFFFFFFFFFFF0000
0000000000FFFFFFFFFFFFFFFF8000
00000000000FFFFFFFFFFFFFFFC000
000000000001FFFFFFFFFFFFFFE000
0000000000001FFFFFFFFFFFFFE000
00000000000003FFFFFFFFFFFFF000
000000000000003FFFFFFFFFFFF800
0000000000000007FFFFFFFFFFF800
00000000000000007FFFFFFFFFFC00
00000000000000000FFFFFFFFFFC00
000000000000000000FFFFFFFFFE00
0000000000000000001FFFFFFFFE00
00000000000000000003FFFFFFFF00
000000000000000000003FFFFFFF00
0000000000000000000007FFFFFF00
00000000000000000000007FFFFF80
00000000000000000000003FFFFF80
00000000000000000000000FFFFF80
00000000000000000000000FFFFF80
000000000000000000000007FFFF80
000000000000000000000007FFFF80
000000000000000000000007FFFF80
000000000000000000000007FFFF80
000000000000000000000007FFFF80
000000000000000000000007FFFF80
00000000000000000000000FFFFF80
00000000000000000000001FFFFF80
00000000000000000000003FFFFF00
00000000000000000000007FFFFF00
01FFFFFFFFFFFFFFFFFFFFFFFFFF00
07FFFFFFFFFFFFFFFFFFFFFFFFFF00
0FFFFFFFFFFFFFFFFFFFFFFFFFFE00
1FFFFFFFFFFFFFFFFFFFFFFFFFFE00
3FFFFFFFFFFFFFFFFFFFFFFFFFFC00
7FFFFFFFFFFFFFFFFFFFFFFFFFFC00
7FFFFFFFFFFFFFFFFFFFFFFFFFF800
FFFFFFFFFFFFFFFFFFFFFFFFFFF800
FFFFFFFFFFFFFFFFFFFFFFFFFFF000
FFFFFFFFFFFFFFFFFFFFFFFFFFE000
FFFFFFFFFFFFFFFFFFFFFFFFFFC000
FFFFFFFFFFFFFFFFFFFFFFFFFFC000
FFFFFFFFFFFFFFFFFFFFFFFFFF8000
7FFFFFFFFFFFFFFFFFFFFFFFFE0000
7FFFFFFFFFFFFFFFFFFFFFFFFC0000
3FFFFFFFFFFFFFFFFFFFFFFFF80000
1FFFFFFFFFFFFFFFFFFFFFFFE00000
0FFFFFFFFFFFFFFFFFFFFFFF800000
07FFFFFFFFFFFFFFFFFFFFFE000000
01FFFFFFFFFFFFFFFFFFFFE0000000
ENDCHAR
STARTCHAR 0054
ENCODING 84
SWIDTH 885 0
DWIDTH 128 0
BBX 117 110 0 -2
BITMAP
01FFFFFFFFFFFFFFFFFFFFFFFFF800
07FFFFFFFFFFFFFFFFFFFFFFFFFE00
0FFFFFFFFFFFFFFFFFFFFFFFFFFF80
1FFFFFFFFFFFFFFFFFFFFFFFFFFFC0
3FFFFFFFFFFFFFFFFFFFFFFFFFFFE0
7FFFFFFFFFFFFFFFFFFFFFFFFFFFE0
7FFFFFFFFFFFFFFFFFFFFFFFFFFFF0
FFFFFFFFFFFFFFFFFFFFFFFFFFFFF0
FFFFFFFFFFFFFFFFFFFFFFFFFFFFF0
FFFFFFFFFFFFFFFFFFFFFFFFFFFFF8
FFFFFFFFFFFFFFFFFFFFFFFFFFFFF8
FFFFFFFFFFFFFFFFFFFFFFFFFFFFF8
FFFFFFFFFFFFFFFFFFFFFFFFFFFFF0
FFFFFFFFFFFFFFFFFFFFFFFFFFFFF0
7FFFFFFFFFFFFFFFFFFFFFFFFFFFF0
7FFFFFFFFFFFFFFFFFFFFFFFFFFFE0
3FFFFFFFFFFFFFFFFFFFFFFFFFFFE0
1FFFFFFFFFFFFFFFFFFFFFFFFFFFC0
0FFFFFFFFFFFFFFFFFFFFFFFFFFF80
07FFFFFFFFFFFFFFFFFFFFFFFFFE00
01FFFFFFFFFFFFFFFFFFFFFFFFF800
000000000001FFFFF0000000000000
000000000001FFFFF0000000000000
000000000001FFFFF0000000000000
000000000001FFFFF0000000000000
000000000001FFFFF0000000000000
000000000001FFFFF0000000000000
000000000001FFFFF0000000000000
000000000001FFFFF0000000000000
000000000001FFFFF0000000000000
000000000001FFFFF0000000000000
000000000001FFFFF0000000000000
000000000001FFFFF0000000000000
000000000001FFFFF0000000000000
000000000001FFFFF0000000000000
000000000001FFFFF0000000000000
000000000001FFFFF0000000000000
000000000001FFFFF0000000000000
000000000001FFFFF0000000000000
000000000001FFFFF0000000000000
000000000001FFFFF0000000000000
000000000001FFFFF0000000000000
000000000001FFFFF0000000000000
000000000001FFFFF0000000000000
000000000001FFFFF0000000000000
000000000001FFFFF0000000000000
000000000001FFFFF0000000000000
000000000001FFFFF0000000000000
000000000001FFFFF0000000000000
000000000001FFFFF0000000000000
000000000001FFFFF0000000000000
000000000001FFFFF0000000000000
000000000001FFFFF0000000000000
000000000001FFFFF0000000000000
000000000001FFFFF0000000000000
000000000001FFFFF0000000000000
000000000001FFFFF0000000000000
000000000001FFFFF0000000000000
000000000001FFFFF0000000000000
000000000001FFFFF0000000000000
000000000001FFFFF0000000000000
000000000001FFFFF0000000000000
000000000001FFFFF0000000000000
000000000001FFFFF0000000000000
000000000001FFFFF0000000000000
000000000001FFFFF0000000000000
000000000001FFFFF0000000000000
000000000001FFFFF0000000000000
000000000001FFFFF0000000000000
000000000001FFFFF0000000000000
000000000001FFFFF0000000000000
000000000001FFFFF0000000000000
000000000001FFFFF0000000000000
000000000001FFFFF0000000000000
000000000001FFFFF0000000000000
000000000001FFFFF0000000000000
000000000001FFFFF0000000000000
000000000001FFFFF0000000000000
000000000001FFFFF0000000000000
000000000001FFFFF0000000000000
000000000001FFFFF0000000000000
000000000001FFFFF0000000000000
000000000001FFFFF0000000000000
000000000001FFFFF0000000000000
000000000001FFFFF0000000000000
000000000001FFFFF0000000000000
000000000001FFFFF0000000000000
000000000001FFFFF0000000000000
000000000001FFFFF0000000000000
000000000001FFFFF0000000000000
000000000001FFFFF0000000000000
000000000001FFFFF0000000000000
000000000001FFFFF0000000000000
000000000001FFFFF0000000000000
000000000001FFFFF0000000000000
000000000001FFFFF0000000000000
000000000001FFFFF0000000000000
000000000001FFFFF0000000000000
000000000001FFFFF0000000000000
000000000001FFFFF0000000000000
000000000001FFFFF0000000000000
000000000001FFFFF0000000000000
000000000001FFFFE0000000000000
000000000000FFFFE0000000000000
000000000000FFFFE0000000000000
0000000000007FFFC0000000000000
0000000000003FFF80000000000000
0000000000001FFF00000000000000
0000000000000FFE00000000000000
00000000000003F800000000000000
ENDCHAR
STARTCHAR 0055
ENCODING 85
SWIDTH 892 0
DWIDTH 129 0
BBX 115 110 0 -1
BITMAP
01FC0000000000000000000007F000
07FF000000000000000000001FFC00
0FFF800000000000000000003FFE00
1FFFC00000000000000000007FFF00
3FFFE0000000000000000000FFFF80
7FFFF0000000000000000001FFFFC0
7FFFF0000000000000000001FFFFC0
7FFFF8000000000000000001FFFFE0
FFFFF8000000000000000003FFFFE0
FFFFF8000000000000000003FFFFE0
FFFFF8000000000000000003FFFFE0
FFFFF8000000000000000003FFFFE0
FFFFF8000000000000000003FFFFE0
FFFFF8000000000000000003FFFFE0
FFFFF8000000000000000003FFFFE0
FFFFF8000000000000000003FFFFE0
FFFFF8000000000000000003FFFFE0
FFFFF8000000000000000003FFFFE0
FFFFF8000000000000000003FFFFE0
FFFFF8000000000000000003FFFFE0
FFFFF8000000000000000003FFFFE0
FFFFF8000000000000000003FFFFE0
FFFFF8000000000000000003FFFFE0
FFFFF8000000000000000003FFFFE0
FFFFF8000000000000000003FFFFE0
FFFFF8000000000000000003FFFFE0
FFFFF8000000000000000003FFFFE0
FFFFF8000000000000000003FFFFE0
FFFFF8000000000000000003FFFFE0
FFFFF8000000000000000003FFFFE0
FFFFF8000000000000000003FFFFE0
FFFFF8000000000000000003FFFFE0
FFFFF8000000000000000003FFFFE0
FFFFF8000000000000000003FFFFE0
FFFFF8000000000000000003FFFFE0
FFFFF8000000000000000003FFFFE0
FFFFF8000000000000000003FFFFE0
FFFFF8000000000000000003FFFFE0
FFFFF8000000000000000003FFFFE0
FFFFF8000000000000000003FFFFE0
FFFFF8000000000000000003FFFFE0
FFFFF8000000000000000003FFFFE0
FFFFF8000000000000000003FFFFE0
FFFFF8000000000000000003FFFFE0
FFFFF8000000000000000003FFFFE0
FFFFF8000000000000000003FFFFE0
FFFFF8000000000000000003FFFFE0
FFFFF8000000000000000003FFFFE0
FFFFF8000000000000000003FFFFE0
FFFFF8000000000000000003FFFFE0
FFFFF8000000000000000003FFFFE0
FFFFF8000000000000000003FFFFE0
FFFFF8000000000000000003FFFFE0
FFFFF8000000000000000003FFFFE0
FFFFF8000000000000000003FFFFE0
FFFFF8000000000000000003FFFFE0
FFFFF8000000000000000003FFFFE0
FFFFF8000000000000000003FFFFE0
FFFFF8000000000000000003FFFFE0
FFFFF8000000000000000003FFFFE0
FFFFF8000000000000000003FFFFE0
FFFFF8000000000000000003FFFFE0
FFFFF8000000000000000003FFFFE0
FFFFF8000000000000000003FFFFE0
FFFFF8000000000000000003FFFFE0
FFFFF8000000000000000003FFFFE0
FFFFF8000000000000000003FFFFE0
FFFFF8000000000000000003FFFFE0
FFFFF8000000000000000003FFFFE0
FFFFF8000000000000000003FFFFE0
FFFFF8000000000000000003FFFFE0
FFFFF8000000000000000003FFFFE0
FFFFF8000000000000000003FFFFE0
FFFFF8000000000000000003FFFFE0
FFFFF8000000000000000003FFFFE0
FFFFF8000000000000000003FFFFE0
FFFFF8000000000000000003FFFFE0
FFFFF8000000000000000003FFFFE0
FFFFF8000000000000000003FFFFE0
FFFFFC000000000000000003FFFFE0
FFFFFC000000000000000007FFFFE0
7FFFFC000000000000000007FFFFE0
7FFFFE00000000000000000FFFFFC0
7FFFFE00000000000000000FFFFFC0
7FFFFF00000000000000001FFFFFC0
7FFFFF80000000000000003FFFFFC0
3FFFFFC0000000000000007FFFFF80
3FFFFFF000000000000001FFFFFF80
3FFFFFFC00000000000007FFFFFF80
1FFFFFFFFFFFFFFFFFFFFFFFFFFF00
1FFFFFFFFFFFFFFFFFFFFFFFFFFF00
0FFFFFFFFFFFFFFFFFFFFFFFFFFE00
0FFFFFFFFFFFFFFFFFFFFFFFFFFE00
07FFFFFFFFFFFFFFFFFFFFFFFFFC00
03FFFFFFFFFFFFFFFFFFFFFFFFFC00
03FFFFFFFFFFFFFFFFFFFFFFFFF800
01FFFFFFFFFFFFFFFFFFFFFFFFF000
00FFFFFFFFFFFFFFFFFFFFFFFFE000
007FFFFFFFFFFFFFFFFFFFFFFFC000
003FFFFFFFFFFFFFFFFFFFFFFFC000
001FFFFFFFFFFFFFFFFFFFFFFF8000
000FFFFFFFFFFFFFFFFFFFFFFE0000
0007FFFFFFFFFFFFFFFFFFFFFC0000
0003FFFFFFFFFFFFFFFFFFFFF80000
0000FFFFFFFFFFFFFFFFFFFFF00000
00007FFFFFFFFFFFFFFFFFFFC00000
00001FFFFFFFFFFFFFFFFFFF000000
000007FFFFFFFFFFFFFFFFFC000000
000000FFFFFFFFFFFFFFFFE0000000
0000000FFFFFFFFFFFFFFE00000000
ENDCHAR
STARTCHAR 0056
ENCODING 86
SWIDTH 892 0
DWIDTH 129 0
BBX 124 110 0 -1
BITMAP
00FC000000000000000000000003F000
07FF00000000000000000000001FFC00
0FFFC0000000000000000000003FFF00
1FFFE0000000000000000000007FFF80
3FFFE000000000000000000000FFFFC0
7FFFF000000000000000000000FFFFC0
7FFFF800000000000000000001FFFFE0
7FFFF800000000000000000001FFFFE0
FFFFF800000000000000000003FFFFE0
FFFFFC00000000000000000003FFFFF0
FFFFFC00000000000000000003FFFFF0
FFFFFC00000000000000000003FFFFF0
FFFFFC00000000000000000003FFFFE0
FFFFFC00000000000000000007FFFFE0
7FFFFE00000000000000000007FFFFE0
7FFFFE00000000000000000007FFFFE0
7FFFFE00000000000000000007FFFFE0
7FFFFE0000000000000000000FFFFFC0
7FFFFF0000000000000000000FFFFFC0
3FFFFF0000000000000000000FFFFFC0
3FFFFF0000000000000000000FFFFFC0
3FFFFF0000000000000000000FFFFFC0
3FFFFF0000000000000000001FFFFF80
1FFFFF8000000000000000001FFFFF80
1FFFFF8000000000000000001FFFFF80
1FFFFF8000000000000000001FFFFF80
1FFFFF8000000000000000003FFFFF00
1FFFFFC000000000000000003FFFFF00
0FFFFFC000000000000000003FFFFF00
0FFFFFC000000000000000003FFFFF00
0FFFFFC000000000000000003FFFFF00
0FFFFFC000000000000000007FFFFE00
07FFFFE000000000000000007FFFFE00
07FFFFE000000000000000007FFFFE00
07FFFFE000000000000000007FFFFE00
07FFFFE00000000000000000FFFFFC00
07FFFFF00000000000000000FFFFFC00
03FFFFF00000000000000000FFFFFC00
03FFFFF00000000000000000FFFFFC00
03FFFFF00000000000000000FFFFFC00
03FFFFF00000000000000001FFFFF800
01FFFFF80000000000000001FFFFF800
01FFFFF80000000000000001FFFFF800
01FFFFF80000000000000001FFFFF800
01FFFFF80000000000000003FFFFF000
01FFFFF80000000000000003FFFFF000
00FFFFFC0000000000000003FFFFF000
00FFFFFC0000000000000003FFFFF000
00FFFFFC0000000000000003FFFFF000
00FFFFFC0000000000000007FFFFE000
007FFFFE0000000000000007FFFFE000
007FFFFE0000000000000007FFFFE000
007FFFFE0000000000000007FFFFE000
007FFFFE000000000000000FFFFFC000
007FFFFE000000000000000FFFFFC000
003FFFFF000000000000000FFFFFC000
003FFFFF000000000000000FFFFFC000
003FFFFF000000000000000FFFFFC000
003FFFFF000000000000001FFFFF8000
001FFFFF800000000000001FFFFF8000
001FFFFF800000000000001FFFFF8000
001FFFFF800000000000001FFFFF8000
001FFFFF800000000000003FFFFF0000
001FFFFF800000000000003FFFFF0000
000FFFFFC00000000000003FFFFF0000
000FFFFFC00000000000003FFFFF0000
000FFFFFC00000000000003FFFFF0000
000FFFFFC00000000000007FFFFE0000
0007FFFFE00000000000007FFFFE0000
0007FFFFE00000000000007FFFFE0000
0007FFFFE00000000000007FFFFE0000
0007FFFFE0000000000000FFFFFC0000
0007FFFFE0000000000000FFFFFC0000
0003FFFFF0000000000000FFFFFC0000
0003FFFFF0000000000000FFFFFC0000
0003FFFFF0000000000000FFFFFC0000
0003FFFFF0000000000001FFFFF80000
0001FFFFF8000000000001FFFFF80000
0001FFFFF8000000000001FFFFF80000
0001FFFFF8000000000001FFFFF80000
0001FFFFF8000000000003FFFFF00000
0001FFFFFC000000000003FFFFF00000
0000FFFFFC000000000003FFFFF00000
0000FFFFFE000000000007FFFFF00000
0000FFFFFE00000000000FFFFFE00000
0000FFFFFF00000000001FFFFFE00000
00007FFFFFC0000000003FFFFFE00000
00007FFFFFE000000000FFFFFFE00000
00007FFFFFFC00000003FFFFFFC00000
00003FFFFFFFFFFFFFFFFFFFFFC00000
00003FFFFFFFFFFFFFFFFFFFFF800000
00001FFFFFFFFFFFFFFFFFFFFF800000
00001FFFFFFFFFFFFFFFFFFFFF000000
00000FFFFFFFFFFFFFFFFFFFFF000000
000007FFFFFFFFFFFFFFFFFFFE000000
000007FFFFFFFFFFFFFFFFFFFC000000
000003FFFFFFFFFFFFFFFFFFFC000000
000001FFFFFFFFFFFFFFFFFFF8000000
000000FFFFFFFFFFFFFFFFFFF0000000
0000007FFFFFFFFFFFFFFFFFE0000000
0000003FFFFFFFFFFFFFFFFFC0000000
0000001FFFFFFFFFFFFFFFFF80000000
0000000FFFFFFFFFFFFFFFFF00000000
00000007FFFFFFFFFFFFFFFC00000000
00000001FFFFFFFFFFFFFFF800000000
00000000FFFFFFFFFFFFFFE000000000
000000003FFFFFFFFFFFFFC000000000
000000000FFFFFFFFFFFFE0000000000
0000000001FFFFFFFFFFF80000000000
00000000001FFFFFFFFF000000000000
ENDCHAR
STARTCHAR 0057
ENCODING 87
SWIDTH 1148 0
DWIDTH 166 0
BBX 158 110 0 -1
BITMAP
00FC00000000000000FC0000000000000000FC00
07FF80000000000007FF0000000000000003FF00
0FFFC000000000000FFFC00000000000000FFFC0
1FFFE000000000001FFFE00000000000001FFFE0
3FFFF000000000003FFFF00000000000003FFFF0
7FFFF000000000007FFFF00000000000003FFFF0
7FFFF800000000007FFFF80000000000007FFFF8
FFFFF80000000000FFFFF80000000000007FFFF8
FFFFFC0000000000FFFFFC0000000000007FFFFC
FFFFFC0000000000FFFFFC000000000000FFFFFC
FFFFFC0000000000FFFFFC000000000000FFFFFC
FFFFFC0000000000FFFFFC000000000000FFFFFC
FFFFFC0000000000FFFFFC000000000000FFFFFC
FFFFFC0000000000FFFFFC000000000000FFFFF8
FFFFFC0000000000FFFFFC000000000001FFFFF8
FFFFFC0000000000FFFFFC000000000001FFFFF8
FFFFFC0000000000FFFFFC000000000001FFFFF8
FFFFFC0000000000FFFFFC000000000001FFFFF8
FFFFFC0000000000FFFFFC000000000001FFFFF0
FFFFFC0000000000FFFFFC000000000003FFFFF0
FFFFFC0000000000FFFFFC000000000003FFFFF0
FFFFFC0000000000FFFFFC000000000003FFFFF0
FFFFFC0000000000FFFFFC000000000003FFFFE0
FFFFFC0000000000FFFFFC000000000007FFFFE0
FFFFFC0000000000FFFFFC000000000007FFFFE0
FFFFFC0000000000FFFFFC000000000007FFFFE0
FFFFFC0000000000FFFFFC000000000007FFFFE0
FFFFFC0000000000FFFFFC000000000007FFFFC0
FFFFFC0000000000FFFFFC00000000000FFFFFC0
FFFFFC0000000000FFFFFC00000000000FFFFFC0
FFFFFC0000000000FFFFFC00000000000FFFFFC0
FFFFFC0000000000FFFFFC00000000000FFFFF80
FFFFFC0000000000FFFFFC00000000001FFFFF80
FFFFFC0000000000FFFFFC00000000001FFFFF80
FFFFFC0000000000FFFFFC00000000001FFFFF80
FFFFFC0000000000FFFFFC00000000001FFFFF80
FFFFFC0000000000FFFFFC00000000001FFFFF00
FFFFFC0000000000FFFFFC00000000003FFFFF00
FFFFFC0000000000FFFFFC00000000003FFFFF00
FFFFFC0000000000FFFFFC00000000003FFFFF00
FFFFFC0000000000FFFFFC00000000003FFFFE00
FFFFFC0000000000FFFFFC00000000003FFFFE00
FFFFFC0000000000FFFFFC00000000007FFFFE00
FFFFFC0000000000FFFFFC00000000007FFFFE00
FFFFFC0000000000FFFFFC00000000007FFFFE00
FFFFFC0000000000FFFFFC00000000007FFFFC00
FFFFFC0000000000FFFFFC0000000000FFFFFC00
FFFFFC0000000000FFFFFC0000000000FFFFFC00
FFFFFC0000000000FFFFFC0000000000FFFFFC00
FFFFFC0000000000FFFFFC0000000000FFFFF800
FFFFFC0000000000FFFFFC0000000000FFFFF800
FFFFFC0000000000FFFFFC0000000001FFFFF800
FFFFFC0000000000FFFFFC0000000001FFFFF800
FFFFFC0000000000FFFFFC0000000001FFFFF800
FFFFFC0000000000FFFFFC0000000001FFFFF000
FFFFFC0000000000FFFFFC0000000003FFFFF000
FFFFFC0000000000FFFFFC0000000003FFFFF000
FFFFFC0000000000FFFFFC0000000003FFFFF000
FFFFFC0000000000FFFFFC0000000003FFFFE000
FFFFFC0000000000FFFFFC0000000003FFFFE000
FFFFFC0000000000FFFFFC0000000007FFFFE000
FFFFFC0000000000FFFFFC0000000007FFFFE000
FFFFFC0000000000FFFFFC0000000007FFFFE000
FFFFFC0000000000FFFFFC0000000007FFFFC000
FFFFFC0000000000FFFFFC0000000007FFFFC000
FFFFFC0000000000FFFFFC000000000FFFFFC000
FFFFFC0000000000FFFFFC000000000FFFFFC000
FFFFFC0000000000FFFFFC000000000FFFFF8000
FFFFFC0000000000FFFFFC000000000FFFFF8000
FFFFFC0000000000FFFFFC000000001FFFFF8000
FFFFFC0000000000FFFFFC000000001FFFFF8000
FFFFFC0000000000FFFFFC000000001FFFFF8000
FFFFFC0000000000FFFFFC000000001FFFFF0000
FFFFFC0000000000FFFFFC000000001FFFFF0000
FFFFFC0000000000FFFFFC000000003FFFFF0000
FFFFFC0000000000FFFFFC000000003FFFFF0000
FFFFFC0000000000FFFFFC000000003FFFFE0000
FFFFFC0000000000FFFFFC000000003FFFFE0000
FFFFFC0000000000FFFFFC000000007FFFFE0000
FFFFFC0000000000FFFFFC000000007FFFFE0000
FFFFFE0000000000FFFFFC000000007FFFFE0000
FFFFFE0000000000FFFFFC000000007FFFFC0000
FFFFFE0000000000FFFFFC00000000FFFFFC0000
7FFFFF0000000000FFFFFC00000001FFFFFC0000
7FFFFF8000000000FFFFFC00000001FFFFFC0000
7FFFFFC000000000FFFFFC00000003FFFFF80000
7FFFFFE000000000FFFFFC00000007FFFFF80000
3FFFFFF000000000FFFFFC0000001FFFFFF80000
3FFFFFFE00000000FFFFFC0000007FFFFFF00000
1FFFFFFFFFFFFFFFFFFFFFFFFFFFFFFFFFF00000
1FFFFFFFFFFFFFFFFFFFFFFFFFFFFFFFFFE00000
0FFFFFFFFFFFFFFFFFFFFFFFFFFFFFFFFFE00000
0FFFFFFFFFFFFFFFFFFFFFFFFFFFFFFFFFC00000
07FFFFFFFFFFFFFFFFFFFFFFFFFFFFFFFFC00000
07FFFFFFFFFFFFFFFFFFFFFFFFFFFFFFFF800000
03FFFFFFFFFFFFFFFFFFFFFFFFFFFFFFFF000000
01FFFFFFFFFFFFFFFFFFFFFFFFFFFFFFFF000000
00FFFFFFFFFFFFFFFFFFFFFFFFFFFFFFFE000000
007FFFFFFFFFFFFFFFFFFFFFFFFFFFFFFC000000
007FFFFFFFFFFFFFFFFFFFFFFFFFFFFFF8000000
003FFFFFFFFFFFFFFFFFFFFFFFFFFFFFF0000000
000FFFFFFFFFFFFFFFFFFFFFFFFFFFFFE0000000
0007FFFFFFFFFFFFFFFFFFFFFFFFFFFFC0000000
0003FFFFFFFFFFFFFFFFFFFFFFFFFFFF80000000
0001FFFFFFFFFFFFFFFFFFFFFFFFFFFE00000000
00007FFFFFFFFFFFFFFFFFFFFFFFFFF800000000
00001FFFFFFFFFFFFFFFFFFFFFFFFFF000000000
000007FFFFFFFFFFFFFFFFFFFFFFFF8000000000
000000FFFFFFFFFFFFFFFFFFFFFFFE0000000000
0000000FFFFFFFFFFFFFFFFFFFFFC00000000000
ENDCHAR
STARTCHAR 0058
ENCODING 88
SWIDTH 892 0
DWIDTH 129 0
BBX 124 110 0 -2
BITMAP
00FC000000000000000000000007F000
07FF00000000000000000000001FFC00
0FFFC0000000000000000000003FFF00
1FFFE000000000000000000000FFFF80
3FFFF000000000000000000000FFFF80
3FFFF000000000000000000001FFFFC0
7FFFF800000000000000000001FFFFE0
7FFFF800000000000000000003FFFFE0
FFFFFC00000000000000000003FFFFE0
FFFFFC00000000000000000003FFFFE0
FFFFFC00000000000000000003FFFFF0
FFFFFC00000000000000000007FFFFE0
FFFFFE00000000000000000007FFFFE0
7FFFFE00000000000000000007FFFFE0
7FFFFE00000000000000000007FFFFE0
7FFFFE0000000000000000000FFFFFE0
7FFFFE0000000000000000000FFFFFE0
7FFFFF0000000000000000000FFFFFC0
3FFFFF0000000000000000000FFFFFC0
3FFFFF0000000000000000000FFFFFC0
3FFFFF0000000000000000001FFFFFC0
3FFFFF8000000000000000001FFFFFC0
3FFFFF8000000000000000001FFFFF80
1FFFFF8000000000000000001FFFFF80
1FFFFF8000000000000000001FFFFF80
1FFFFF8000000000000000003FFFFF80
1FFFFFC000000000000000003FFFFF00
0FFFFFC000000000000000003FFFFF00
0FFFFFC000000000000000003FFFFF00
0FFFFFC000000000000000007FFFFF00
0FFFFFE000000000000000007FFFFF00
0FFFFFE000000000000000007FFFFE00
07FFFFE000000000000000007FFFFE00
07FFFFF00000000000000000FFFFFE00
07FFFFF00000000000000000FFFFFE00
07FFFFF80000000000000001FFFFFE00
03FFFFFC0000000000000003FFFFFC00
03FFFFFE0000000000000007FFFFFC00
03FFFFFF800000000000001FFFFFFC00
03FFFFFFE0000000000000FFFFFFFC00
01FFFFFFFFFFFFFFFFFFFFFFFFFFF800
01FFFFFFFFFFFFFFFFFFFFFFFFFFF800
00FFFFFFFFFFFFFFFFFFFFFFFFFFF000
00FFFFFFFFFFFFFFFFFFFFFFFFFFF000
007FFFFFFFFFFFFFFFFFFFFFFFFFE000
007FFFFFFFFFFFFFFFFFFFFFFFFFE000
003FFFFFFFFFFFFFFFFFFFFFFFFFC000
003FFFFFFFFFFFFFFFFFFFFFFFFFC000
001FFFFFFFFFFFFFFFFFFFFFFFFF8000
000FFFFFFFFFFFFFFFFFFFFFFFFF0000
0007FFFFFFFFFFFFFFFFFFFFFFFE0000
0003FFFFFFFFFFFFFFFFFFFFFFFC0000
0001FFFFFFFFFFFFFFFFFFFFFFF80000
0003FFFFFFFFFFFFFFFFFFFFFFFC0000
0007FFFFFFFFFFFFFFFFFFFFFFFC0000
000FFFFFFFFFFFFFFFFFFFFFFFFE0000
000FFFFFFFFFFFFFFFFFFFFFFFFF0000
001FFFFFFFFFFFFFFFFFFFFFFFFF0000
003FFFFFFFFFFFFFFFFFFFFFFFFF8000
003FFFFFFFFFFFFFFFFFFFFFFFFFC000
007FFFFFFFFFFFFFFFFFFFFFFFFFC000
007FFFFFFFFFFFFFFFFFFFFFFFFFE000
00FFFFFFF8000000000001FFFFFFE000
00FFFFFFE00000000000007FFFFFE000
00FFFFFF800000000000001FFFFFF000
01FFFFFF000000000000000FFFFFF000
01FFFFFE0000000000000007FFFFF000
01FFFFFC0000000000000003FFFFF800
01FFFFF80000000000000003FFFFF800
03FFFFF80000000000000001FFFFF800
03FFFFF00000000000000001FFFFF800
03FFFFF00000000000000001FFFFFC00
03FFFFF00000000000000000FFFFFC00
07FFFFF00000000000000000FFFFFC00
07FFFFE00000000000000000FFFFFC00
07FFFFE00000000000000000FFFFFC00
07FFFFE000000000000000007FFFFE00
07FFFFE000000000000000007FFFFE00
0FFFFFC000000000000000007FFFFE00
0FFFFFC000000000000000007FFFFE00
0FFFFFC000000000000000007FFFFF00
0FFFFFC000000000000000003FFFFF00
1FFFFFC000000000000000003FFFFF00
1FFFFF8000000000000000003FFFFF00
1FFFFF8000000000000000003FFFFF00
1FFFFF8000000000000000001FFFFF80
1FFFFF8000000000000000001FFFFF80
3FFFFF8000000000000000001FFFFF80
3FFFFF0000000000000000001FFFFF80
3FFFFF0000000000000000001FFFFFC0
3FFFFF0000000000000000000FFFFFC0
7FFFFF0000000000000000000FFFFFC0
7FFFFE0000000000000000000FFFFFC0
7FFFFE0000000000000000000FFFFFE0
7FFFFE0000000000000000000FFFFFE0
7FFFFE00000000000000000007FFFFE0
FFFFFE00000000000000000007FFFFE0
FFFFFC00000000000000000007FFFFE0
FFFFFC00000000000000000007FFFFE0
FFFFFC00000000000000000003FFFFF0
FFFFFC00000000000000000003FFFFE0
FFFFFC00000000000000000003FFFFE0
7FFFF800000000000000000003FFFFE0
7FFFF800000000000000000001FFFFE0
7FFFF000000000000000000001FFFFC0
3FFFF000000000000000000000FFFF80
1FFFE0000000000000000000007FFF80
0FFFC0000000000000000000003FFE00
07FF80000000000000000000001FFC00
00FC000000000000000000000003F000
ENDCHAR
STARTCHAR 0059
ENCODING 89
SWIDTH 892 0
DWIDTH 129 0
BBX 115 111 0 -2
BITMAP
01FC00000000000000000000000000
07FF000000000000000000000FF800
0FFF800000000000000000003FFC00
1FFFE00000000000000000007FFE00
3FFFE0000000000000000000FFFF00
7FFFF0000000000000000001FFFF80
7FFFF0000000000000000003FFFFC0
FFFFF8000000000000000003FFFFC0
FFFFF8000000000000000007FFFFE0
FFFFF8000000000000000007FFFFE0
FFFFF8000000000000000007FFFFE0
FFFFF8000000000000000007FFFFE0
FFFFF8000000000000000007FFFFE0
FFFFF8000000000000000007FFFFE0
FFFFF8000000000000000007FFFFE0
FFFFF8000000000000000007FFFFE0
FFFFF8000000000000000007FFFFE0
FFFFF8000000000000000007FFFFE0
FFFFF8000000000000000007FFFFE0
FFFFF8000000000000000007FFFFE0
FFFFF8000000000000000007FFFFE0
FFFFF8000000000000000007FFFFE0
FFFFF8000000000000000007FFFFE0
FFFFF8000000000000000007FFFFE0
FFFFF8000000000000000007FFFFE0
FFFFF8000000000000000007FFFFE0
FFFFF8000000000000000007FFFFE0
FFFFF8000000000000000007FFFFE0
FFFFF8000000000000000007FFFFE0
FFFFF8000000000000000007FFFFE0
FFFFF8000000000000000007FFFFE0
FFFFF8000000000000000007FFFFE0
FFFFF8000000000000000007FFFFE0
FFFFF8000000000000000007FFFFE0
FFFFF8000000000000000007FFFFE0
FFFFF8000000000000000007FFFFE0
FFFFF8000000000000000007FFFFE0
FFFFF8000000000000000007FFFFE0
FFFFF8000000000000000007FFFFE0
FFFFF8000000000000000007FFFFE0
FFFFFC000000000000000007FFFFE0
FFFFFC000000000000000007FFFFE0
FFFFFE000000000000000007FFFFE0
7FFFFE000000000000000007FFFFE0
7FFFFF000000000000000007FFFFE0
7FFFFF800000000000000007FFFFE0
7FFFFFC00000000000000007FFFFE0
3FFFFFF00000000000000007FFFFE0
3FFFFFFE0000000000000007FFFFE0
1FFFFFFFF000000000000007FFFFE0
1FFFFFFFFF00000000000007FFFFE0
1FFFFFFFFFF8000000000007FFFFE0
0FFFFFFFFFFF800000000007FFFFE0
07FFFFFFFFFFFC0000000007FFFFE0
07FFFFFFFFFFFFC000000007FFFFE0
03FFFFFFFFFFFFFE00000007FFFFE0
01FFFFFFFFFFFFFFE0000007FFFFE0
01FFFFFFFFFFFFFFFF000007FFFFE0
00FFFFFFFFFFFFFFFFF00007FFFFE0
007FFFFFFFFFFFFFFFFF0007FFFFE0
003FFFFFFFFFFFFFFFFFF807FFFFE0
001FFFFFFFFFFFFFFFFFFF87FFFFE0
000FFFFFFFFFFFFFFFFFFFFFFFFFE0
0007FFFFFFFFFFFFFFFFFFFFFFFFE0
0001FFFFFFFFFFFFFFFFFFFFFFFFE0
0000FFFFFFFFFFFFFFFFFFFFFFFFE0
00003FFFFFFFFFFFFFFFFFFFFFFFE0
00000FFFFFFFFFFFFFFFFFFFFFFFE0
000001FFFFFFFFFFFFFFFFFFFFFFE0
0000003FFFFFFFFFFFFFFFFFFFFFE0
00000001FFFFFFFFFFFFFFFFFFFFE0
000000001FFFFFFFFFFFFFFFFFFFE0
0000000000FFFFFFFFFFFFFFFFFFE0
00000000000FFFFFFFFFFFFFFFFFE0
0000000000007FFFFFFFFFFFFFFFE0
00000000000007FFFFFFFFFFFFFFE0
000000000000003FFFFFFFFFFFFFE0
0000000000000003FFFFFFFFFFFFE0
00000000000000003FFFFFFFFFFFE0
000000000000000001FFFFFFFFFFE0
0000000000000000001FFFFFFFFFE0
00000000000000000000FFFFFFFFE0
000000000000000000000FFFFFFFE0
00000000000000000000007FFFFFE0
000000000000000000000007FFFFE0
000000000000000000000007FFFFE0
000000000000000000000007FFFFE0
000000000000000000000007FFFFE0
000000000000000000000007FFFFE0
000000000000000000000007FFFFE0
000000000000000000000007FFFFE0
000000000000000000000007FFFFE0
000000000000000000000007FFFFE0
000000000000000000000007FFFFE0
000000000000000000000007FFFFE0
000000000000000000000007FFFFE0
000000000000000000000007FFFFE0
000000000000000000000007FFFFE0
000000000000000000000007FFFFE0
000000000000000000000007FFFFE0
000000000000000000000007FFFFE0
000000000000000000000007FFFFE0
000000000000000000000007FFFFE0
000000000000000000000007FFFFC0
000000000000000000000003FFFFC0
000000000000000000000003FFFFC0
000000000000000000000001FFFF80
000000000000000000000000FFFF00
0000000000000000000000007FFE00
0000000000000000000000003FFC00
00000000000000000000000007E000
ENDCHAR
STARTCHAR 005A
ENCODING 90
SWIDTH 892 0
DWIDTH 129 0
BBX 113 108 0 0
BITMAP
01FFFFFFFFFFFFFFFFFFFFE0000000
07FFFFFFFFFFFFFFFFFFFFFE000000
1FFFFFFFFFFFFFFFFFFFFFFF800000
3FFFFFFFFFFFFFFFFFFFFFFFE00000
3FFFFFFFFFFFFFFFFFFFFFFFF80000
7FFFFFFFFFFFFFFFFFFFFFFFFC0000
7FFFFFFFFFFFFFFFFFFFFFFFFE0000
FFFFFFFFFFFFFFFFFFFFFFFFFF0000
FFFFFFFFFFFFFFFFFFFFFFFFFF8000
FFFFFFFFFFFFFFFFFFFFFFFFFFC000
FFFFFFFFFFFFFFFFFFFFFFFFFFE000
FFFFFFFFFFFFFFFFFFFFFFFFFFF000
FFFFFFFFFFFFFFFFFFFFFFFFFFF800
7FFFFFFFFFFFFFFFFFFFFFFFFFF800
7FFFFFFFFFFFFFFFFFFFFFFFFFFC00
3FFFFFFFFFFFFFFFFFFFFFFFFFFC00
1FFFFFFFFFFFFFFFFFFFFFFFFFFE00
0FFFFFFFFFFFFFFFFFFFFFFFFFFE00
07FFFFFFFFFFFFFFFFFFFFFFFFFF00
01FFFFFFFFFFFFFFFFFFFFFFFFFF00
00000000000000000000007FFFFF00
00000000000000000000003FFFFF00
00000000000000000000001FFFFF80
00000000000000000000000FFFFF80
000000000000000000000007FFFF80
000000000000000000000007FFFF80
000000000000000000000007FFFF80
000000000000000000000007FFFF80
000000000000000000000007FFFF80
000000000000000000000007FFFF80
00000000000000000000000FFFFF80
00000000000000000000001FFFFF80
00000000000000000000003FFFFF80
0000000000000000000000FFFFFF00
0000000000000000000007FFFFFF00
000000000000000000003FFFFFFF00
00000000000000000003FFFFFFFF00
0000000000000000001FFFFFFFFE00
000000000000000001FFFFFFFFFE00
00000000000000000FFFFFFFFFFC00
00000000000000007FFFFFFFFFFC00
0000000000000007FFFFFFFFFFF800
000000000000003FFFFFFFFFFFF800
00000000000003FFFFFFFFFFFFF000
0000000000001FFFFFFFFFFFFFE000
000000000001FFFFFFFFFFFFFFC000
00000000000FFFFFFFFFFFFFFFC000
0000000000FFFFFFFFFFFFFFFF8000
0000000007FFFFFFFFFFFFFFFF0000
000000007FFFFFFFFFFFFFFFFC0000
00000003FFFFFFFFFFFFFFFFF80000
0000001FFFFFFFFFFFFFFFFFF00000
000001FFFFFFFFFFFFFFFFFFC00000
00000FFFFFFFFFFFFFFFFFFE000000
00007FFFFFFFFFFFFFFFFFF0000000
0001FFFFFFFFFFFFFFFFFFC0000000
0007FFFFFFFFFFFFFFFFFC00000000
000FFFFFFFFFFFFFFFFFE000000000
003FFFFFFFFFFFFFFFFF0000000000
007FFFFFFFFFFFFFFFF00000000000
00FFFFFFFFFFFFFFFF800000000000
01FFFFFFFFFFFFFFF8000000000000
03FFFFFFFFFFFFFFC0000000000000
03FFFFFFFFFFFFFC00000000000000
07FFFFFFFFFFFFE000000000000000
0FFFFFFFFFFFFE0000000000000000
0FFFFFFFFFFFF00000000000000000
1FFFFFFFFFFF800000000000000000
1FFFFFFFFFF8000000000000000000
3FFFFFFFFFC0000000000000000000
3FFFFFFFFC00000000000000000000
7FFFFFFFE000000000000000000000
7FFFFFFE0000000000000000000000
7FFFFFF00000000000000000000000
7FFFFF800000000000000000000000
FFFFFE000000000000000000000000
FFFFFC000000000000000000000000
FFFFF8000000000000000000000000
FFFFF0000000000000000000000000
FFFFF0000000000000000000000000
FFFFF0000000000000000000000000
FFFFF0000000000000000000000000
FFFFF0000000000000000000000000
FFFFF0000000000000000000000000
FFFFF8000000000000000000000000
FFFFFC000000000000000000000000
7FFFFE000000000000000000000000
7FFFFF000000000000000000000000
7FFFFFFFFFFFFFFFFFFFFFFFFFC000
7FFFFFFFFFFFFFFFFFFFFFFFFFF000
3FFFFFFFFFFFFFFFFFFFFFFFFFFC00
3FFFFFFFFFFFFFFFFFFFFFFFFFFE00
1FFFFFFFFFFFFFFFFFFFFFFFFFFE00
1FFFFFFFFFFFFFFFFFFFFFFFFFFF00
0FFFFFFFFFFFFFFFFFFFFFFFFFFF00
0FFFFFFFFFFFFFFFFFFFFFFFFFFF80
07FFFFFFFFFFFFFFFFFFFFFFFFFF80
03FFFFFFFFFFFFFFFFFFFFFFFFFF80
01FFFFFFFFFFFFFFFFFFFFFFFFFF80
00FFFFFFFFFFFFFFFFFFFFFFFFFF80
007FFFFFFFFFFFFFFFFFFFFFFFFF80
003FFFFFFFFFFFFFFFFFFFFFFFFF00
001FFFFFFFFFFFFFFFFFFFFFFFFF00
000FFFFFFFFFFFFFFFFFFFFFFFFE00
0003FFFFFFFFFFFFFFFFFFFFFFFE00
0000FFFFFFFFFFFFFFFFFFFFFFFC00
00003FFFFFFFFFFFFFFFFFFFFFF000
000003FFFFFFFFFFFFFFFFFFFFC000
ENDCHAR
STARTCHAR 005B
ENCODING 91
SWIDTH 401 0
DWIDTH 58 0
BBX 0 0 0 0
BITMAP
ENDCHAR
STARTCHAR 005C
ENCODING 92
SWIDTH 380 0
DWIDTH 55 0
BBX 43 111 0 -2
BITMAP
00FC00000000
07FF00000000
0FFFC0000000
1FFFE0000000
3FFFF0000000
7FFFF0000000
7FFFF8000000
FFFFF8000000
FFFFF8000000
FFFFFC000000
FFFFFC000000
FFFFFC000000
FFFFFC000000
FFFFFE000000
7FFFFE000000
7FFFFE000000
7FFFFE000000
7FFFFF000000
3FFFFF000000
3FFFFF000000
3FFFFF000000
3FFFFF800000
1FFFFF800000
1FFFFF800000
1FFFFF800000
1FFFFFC00000
1FFFFFC00000
0FFFFFC00000
0FFFFFC00000
0FFFFFC00000
0FFFFFE00000
07FFFFE00000
07FFFFE00000
07FFFFE00000
07FFFFF00000
03FFFFF00000
03FFFFF00000
03FFFFF00000
03FFFFF80000
01FFFFF80000
01FFFFF80000
01FFFFF80000
01FFFFFC0000
00FFFFFC0000
00FFFFFC0000
00FFFFFC0000
00FFFFFE0000
00FFFFFE0000
007FFFFE0000
007FFFFE0000
007FFFFE0000
007FFFFF0000
003FFFFF0000
003FFFFF0000
003FFFFF0000
003FFFFF8000
001FFFFF8000
001FFFFF8000
001FFFFF8000
001FFFFFC000
000FFFFFC000
000FFFFFC000
000FFFFFC000
000FFFFFE000
0007FFFFE000
0007FFFFE000
0007FFFFE000
0007FFFFF000
0007FFFFF000
0003FFFFF000
0003FFFFF000
0003FFFFF800
0003FFFFF800
0001FFFFF800
0001FFFFF800
0001FFFFF800
0001FFFFFC00
0000FFFFFC00
0000FFFFFC00
0000FFFFFC00
0000FFFFFE00
00007FFFFE00
00007FFFFE00
00007FFFFE00
00007FFFFF00
00003FFFFF00
00003FFFFF00
00003FFFFF00
00003FFFFF80
00003FFFFF80
00001FFFFF80
00001FFFFF80
00001FFFFFC0
00001FFFFFC0
00000FFFFFC0
00000FFFFFC0
00000FFFFFC0
00000FFFFFE0
000007FFFFE0
000007FFFFE0
000007FFFFE0
000007FFFFE0
000003FFFFE0
000003FFFFE0
000003FFFFC0
000001FFFFC0
000001FFFF80
000000FFFF00
0000007FFE00
0000001FFC00
00000007F000
ENDCHAR
STARTCHAR 005D
ENCODING 93
SWIDTH 422 0
DWIDTH 61 0
BBX 0 0 0 0
BITMAP
ENDCHAR
STARTCHAR 005E
ENCODING 94
SWIDTH 740 0
DWIDTH 107 0
BBX 0 0 0 0
BITMAP
ENDCHAR
STARTCHAR 005F
ENCODING 95
SWIDTH 885 0
DWIDTH 128 0
BBX 116 22 0 -1
BITMAP
01FFFFFFFFFFFFFFFFFFFFFFFFF000
07FFFFFFFFFFFFFFFFFFFFFFFFFE00
0FFFFFFFFFFFFFFFFFFFFFFFFFFF00
1FFFFFFFFFFFFFFFFFFFFFFFFFFF80
3FFFFFFFFFFFFFFFFFFFFFFFFFFFC0
7FFFFFFFFFFFFFFFFFFFFFFFFFFFC0
7FFFFFFFFFFFFFFFFFFFFFFFFFFFE0
7FFFFFFFFFFFFFFFFFFFFFFFFFFFE0
FFFFFFFFFFFFFFFFFFFFFFFFFFFFF0
FFFFFFFFFFFFFFFFFFFFFFFFFFFFF0
FFFFFFFFFFFFFFFFFFFFFFFFFFFFF0
FFFFFFFFFFFFFFFFFFFFFFFFFFFFF0
FFFFFFFFFFFFFFFFFFFFFFFFFFFFF0
FFFFFFFFFFFFFFFFFFFFFFFFFFFFF0
FFFFFFFFFFFFFFFFFFFFFFFFFFFFE0
7FFFFFFFFFFFFFFFFFFFFFFFFFFFE0
7FFFFFFFFFFFFFFFFFFFFFFFFFFFC0
3FFFFFFFFFFFFFFFFFFFFFFFFFFFC0
1FFFFFFFFFFFFFFFFFFFFFFFFFFF80
0FFFFFFFFFFFFFFFFFFFFFFFFFFF00
07FFFFFFFFFFFFFFFFFFFFFFFFFE00
01FFFFFFFFFFFFFFFFFFFFFFFFF000
ENDCHAR
STARTCHAR 0060
ENCODING 96
SWIDTH 387 0
DWIDTH 56 0
BBX 41 21 5 85
BITMAP
FFFFFF800000
7FFFFFC00000
3FFFFFE00000
0FFFFFE00000
07FFFFF00000
03FFFFF80000
01FFFFFC0000
00FFFFFE0000
003FFFFE0000
001FFFFF0000
000FFFFF8000
0007FFFFC000
0001FFFFC000
0000FFFFE000
00007FFFF000
00003FFFF800
00001FFFFC00
000007FFFC00
000003FFFE00
000001FFFF00
000000FFFF80
ENDCHAR
STARTCHAR 0061
ENCODING 97
SWIDTH 892 0
DWIDTH 129 0
BBX 124 110 0 -2
BITMAP
00000000001FFFFFFFFF000000000000
0000000001FFFFFFFFFFF00000000000
000000000FFFFFFFFFFFFE0000000000
000000003FFFFFFFFFFFFF8000000000
00000000FFFFFFFFFFFFFFE000000000
00000001FFFFFFFFFFFFFFF800000000
00000007FFFFFFFFFFFFFFFC00000000
0000000FFFFFFFFFFFFFFFFF00000000
0000001FFFFFFFFFFFFFFFFF80000000
0000003FFFFFFFFFFFFFFFFFC0000000
0000007FFFFFFFFFFFFFFFFFE0000000
000000FFFFFFFFFFFFFFFFFFF0000000
000001FFFFFFFFFFFFFFFFFFF8000000
000003FFFFFFFFFFFFFFFFFFF8000000
000007FFFFFFFFFFFFFFFFFFFC000000
00000FFFFFFFFFFFFFFFFFFFFE000000
00000FFFFFFFFFFFFFFFFFFFFF000000
00001FFFFFFFFFFFFFFFFFFFFF000000
00001FFFFFFFFFFFFFFFFFFFFF800000
00003FFFFFFFFFFFFFFFFFFFFF800000
00003FFFFFFFFFFFFFFFFFFFFFC00000
00007FFFFFFC00000003FFFFFFC00000
00007FFFFFE000000000FFFFFFC00000
00007FFFFFC0000000003FFFFFE00000
0000FFFFFF80000000001FFFFFE00000
0000FFFFFF00000000000FFFFFE00000
0000FFFFFE000000000007FFFFF00000
0000FFFFFC000000000007FFFFF00000
0001FFFFFC000000000003FFFFF00000
0001FFFFF8000000000003FFFFF00000
0001FFFFF8000000000003FFFFF80000
0001FFFFF8000000000001FFFFF80000
0003FFFFF0000000000001FFFFF80000
0003FFFFF0000000000001FFFFF80000
0003FFFFF0000000000001FFFFF80000
0003FFFFF0000000000000FFFFFC0000
0003FFFFF0000000000000FFFFFC0000
0007FFFFE0000000000000FFFFFC0000
0007FFFFE0000000000000FFFFFC0000
0007FFFFE0000000000000FFFFFE0000
0007FFFFE00000000000007FFFFE0000
000FFFFFE00000000000007FFFFE0000
000FFFFFC00000000000007FFFFE0000
000FFFFFC00000000000007FFFFE0000
000FFFFFC00000000000007FFFFF0000
000FFFFFC00000000000003FFFFF0000
001FFFFF800000000000003FFFFF0000
001FFFFF800000000000003FFFFF0000
001FFFFF800000000000003FFFFF8000
001FFFFF800000000000001FFFFF8000
003FFFFF800000000000001FFFFF8000
003FFFFF000000000000001FFFFF8000
003FFFFF000000000000001FFFFF8000
003FFFFF000000000000001FFFFFC000
003FFFFF000000000000000FFFFFC000
007FFFFF000000000000000FFFFFC000
007FFFFFFFFFFFFFFFFFFFFFFFFFC000
007FFFFFFFFFFFFFFFFFFFFFFFFFE000
007FFFFFFFFFFFFFFFFFFFFFFFFFE000
00FFFFFFFFFFFFFFFFFFFFFFFFFFE000
00FFFFFFFFFFFFFFFFFFFFFFFFFFE000
00FFFFFFFFFFFFFFFFFFFFFFFFFFE000
00FFFFFFFFFFFFFFFFFFFFFFFFFFF000
00FFFFFFFFFFFFFFFFFFFFFFFFFFF000
01FFFFFFFFFFFFFFFFFFFFFFFFFFF000
01FFFFFFFFFFFFFFFFFFFFFFFFFFF000
01FFFFFFFFFFFFFFFFFFFFFFFFFFF800
01FFFFFFFFFFFFFFFFFFFFFFFFFFF800
03FFFFFFFFFFFFFFFFFFFFFFFFFFF800
03FFFFFFFFFFFFFFFFFFFFFFFFFFF800
03FFFFFFFFFFFFFFFFFFFFFFFFFFF800
03FFFFFFFFFFFFFFFFFFFFFFFFFFFC00
03FFFFFFFFFFFFFFFFFFFFFFFFFFFC00
07FFFFFFFFFFFFFFFFFFFFFFFFFFFC00
07FFFFFFFFFFFFFFFFFFFFFFFFFFFC00
07FFFFFFFFFFFFFFFFFFFFFFFFFFFE00
07FFFFFFFFFFFFFFFFFFFFFFFFFFFE00
0FFFFFC000000000000000007FFFFE00
0FFFFFC000000000000000007FFFFE00
0FFFFFC000000000000000007FFFFE00
0FFFFFC000000000000000007FFFFF00
0FFFFFC000000000000000003FFFFF00
1FFFFF8000000000000000003FFFFF00
1FFFFF8000000000000000003FFFFF00
1FFFFF8000000000000000003FFFFF80
1FFFFF8000000000000000001FFFFF80
3FFFFF0000000000000000001FFFFF80
3FFFFF0000000000000000001FFFFF80
3FFFFF0000000000000000001FFFFF80
3FFFFF0000000000000000001FFFFFC0
3FFFFF0000000000000000000FFFFFC0
7FFFFE0000000000000000000FFFFFC0
7FFFFE0000000000000000000FFFFFC0
7FFFFE0000000000000000000FFFFFE0
7FFFFE00000000000000000007FFFFE0
FFFFFC00000000000000000007FFFFE0
FFFFFC00000000000000000007FFFFE0
FFFFFC00000000000000000007FFFFE0
FFFFFC00000000000000000003FFFFE0
FFFFFC00000000000000000003FFFFF0
FFFFF800000000000000000003FFFFE0
FFFFF800000000000000000003FFFFE0
FFFFF800000000000000000003FFFFE0
7FFFF800000000000000000001FFFFE0
7FFFF000000000000000000001FFFFC0
3FFFE000000000000000000000FFFF80
1FFFE0000000000000000000007FFF80
0FFF80000000000000000000003FFF00
07FF00000000000000000000001FFC00
01FC000000000000000000000007F000
ENDCHAR
STARTCHAR 0062
ENCODING 98
SWIDTH 892 0
DWIDTH 129 0
BBX 113 109 0 -1
BITMAP
00000FFFFFFFFFFFFFFFF800000000
00007FFFFFFFFFFFFFFFFF80000000
0003FFFFFFFFFFFFFFFFFFF0000000
000FFFFFFFFFFFFFFFFFFFFC000000
001FFFFFFFFFFFFFFFFFFFFE000000
003FFFFFFFFFFFFFFFFFFFFF800000
00FFFFFFFFFFFFFFFFFFFFFFC00000
01FFFFFFFFFFFFFFFFFFFFFFE00000
03FFFFFFFFFFFFFFFFFFFFFFF00000
03FFFFFFFFFFFFFFFFFFFFFFF80000
07FFFFFFFFFFFFFFFFFFFFFFFC0000
0FFFFFFFFFFFFFFFFFFFFFFFFE0000
1FFFFFFFFFFFFFFFFFFFFFFFFF0000
1FFFFFFFFFFFFFFFFFFFFFFFFF8000
3FFFFFFFFFFFFFFFFFFFFFFFFF8000
3FFFFFFFFFFFFFFFFFFFFFFFFFC000
3FFFFFFFFFFFFFFFFFFFFFFFFFC000
7FFFFFFFFFFFFFFFFFFFFFFFFFE000
7FFFFFFFFFFFFFFFFFFFFFFFFFE000
7FFFFFFFFFFFFFFFFFFFFFFFFFF000
FFFFFFFFFFFFFFFFFFFFFFFFFFF000
FFFFFFFFFFFFFFFFFFFFFFFFFFF800
FFFFFE000000000000001FFFFFF800
FFFFFC0000000000000007FFFFF800
FFFFF80000000000000003FFFFF800
FFFFF80000000000000001FFFFFC00
FFFFF80000000000000000FFFFFC00
FFFFF80000000000000000FFFFFC00
FFFFF800000000000000007FFFFC00
FFFFF800000000000000007FFFFC00
FFFFF800000000000000007FFFFC00
FFFFF800000000000000007FFFFC00
FFFFF800000000000000007FFFFC00
FFFFF800000000000000007FFFFC00
FFFFF800000000000000007FFFFC00
FFFFF80000000000000000FFFFFC00
FFFFF80000000000000000FFFFFC00
FFFFF80000000000000001FFFFF800
FFFFF80000000000000003FFFFF800
FFFFF80000000000000007FFFFF800
FFFFF8000000000000001FFFFFF800
FFFFFFFFFFFFFFFFFFFFFFFFFFF000
FFFFFFFFFFFFFFFFFFFFFFFFFFF000
FFFFFFFFFFFFFFFFFFFFFFFFFFF000
FFFFFFFFFFFFFFFFFFFFFFFFFFE000
FFFFFFFFFFFFFFFFFFFFFFFFFFE000
FFFFFFFFFFFFFFFFFFFFFFFFFFC000
FFFFFFFFFFFFFFFFFFFFFFFFFFC000
FFFFFFFFFFFFFFFFFFFFFFFFFF8000
FFFFFFFFFFFFFFFFFFFFFFFFFF0000
FFFFFFFFFFFFFFFFFFFFFFFFFF0000
FFFFFFFFFFFFFFFFFFFFFFFFFF0000
FFFFFFFFFFFFFFFFFFFFFFFFFF8000
FFFFFFFFFFFFFFFFFFFFFFFFFFC000
FFFFFFFFFFFFFFFFFFFFFFFFFFE000
FFFFFFFFFFFFFFFFFFFFFFFFFFE000
FFFFFFFFFFFFFFFFFFFFFFFFFFF000
FFFFFFFFFFFFFFFFFFFFFFFFFFF800
FFFFFFFFFFFFFFFFFFFFFFFFFFF800
FFFFFFFFFFFFFFFFFFFFFFFFFFFC00
FFFFFFFFFFFFFFFFFFFFFFFFFFFC00
FFFFFFFFFFFFFFFFFFFFFFFFFFFE00
FFFFF8000000000000001FFFFFFE00
FFFFF80000000000000003FFFFFE00
FFFFF80000000000000001FFFFFF00
FFFFF80000000000000000FFFFFF00
FFFFF800000000000000007FFFFF00
FFFFF800000000000000003FFFFF00
FFFFF800000000000000001FFFFF00
FFFFF800000000000000001FFFFF80
FFFFF800000000000000001FFFFF80
FFFFF800000000000000000FFFFF80
FFFFF800000000000000000FFFFF80
FFFFF800000000000000000FFFFF80
FFFFF800000000000000000FFFFF80
FFFFF800000000000000000FFFFF80
FFFFF800000000000000000FFFFF80
FFFFF800000000000000000FFFFF80
FFFFF800000000000000001FFFFF80
FFFFF800000000000000001FFFFF80
FFFFF800000000000000001FFFFF80
FFFFF800000000000000003FFFFF00
FFFFF800000000000000007FFFFF00
FFFFF80000000000000000FFFFFF00
FFFFF80000000000000001FFFFFF00
FFFFFC0000000000000003FFFFFE00
FFFFFE000000000000001FFFFFFE00
FFFFFFFFFFFFFFFFFFFFFFFFFFFE00
FFFFFFFFFFFFFFFFFFFFFFFFFFFC00
7FFFFFFFFFFFFFFFFFFFFFFFFFFC00
7FFFFFFFFFFFFFFFFFFFFFFFFFF800
7FFFFFFFFFFFFFFFFFFFFFFFFFF800
3FFFFFFFFFFFFFFFFFFFFFFFFFF000
3FFFFFFFFFFFFFFFFFFFFFFFFFF000
3FFFFFFFFFFFFFFFFFFFFFFFFFE000
1FFFFFFFFFFFFFFFFFFFFFFFFFC000
1FFFFFFFFFFFFFFFFFFFFFFFFF8000
0FFFFFFFFFFFFFFFFFFFFFFFFF8000
07FFFFFFFFFFFFFFFFFFFFFFFF0000
03FFFFFFFFFFFFFFFFFFFFFFFE0000
03FFFFFFFFFFFFFFFFFFFFFFFC0000
01FFFFFFFFFFFFFFFFFFFFFFF00000
00FFFFFFFFFFFFFFFFFFFFFFE00000
003FFFFFFFFFFFFFFFFFFFFFC00000
001FFFFFFFFFFFFFFFFFFFFF000000
000FFFFFFFFFFFFFFFFFFFFC000000
0003FFFFFFFFFFFFFFFFFFF0000000
0000FFFFFFFFFFFFFFFFFFC0000000
00000FFFFFFFFFFFFFFFF800000000
ENDCHAR
STARTCHAR 0063
ENCODING 99
SWIDTH 892 0
DWIDTH 129 0
BBX 113 109 0 -1
BITMAP
0000000FFFFFFFFFFFFFFFF8000000
000001FFFFFFFFFFFFFFFFFF800000
000007FFFFFFFFFFFFFFFFFFE00000
00001FFFFFFFFFFFFFFFFFFFF80000
00007FFFFFFFFFFFFFFFFFFFFC0000
0001FFFFFFFFFFFFFFFFFFFFFF0000
0003FFFFFFFFFFFFFFFFFFFFFF8000
0007FFFFFFFFFFFFFFFFFFFFFFC000
001FFFFFFFFFFFFFFFFFFFFFFFE000
003FFFFFFFFFFFFFFFFFFFFFFFF000
007FFFFFFFFFFFFFFFFFFFFFFFF000
00FFFFFFFFFFFFFFFFFFFFFFFFF800
00FFFFFFFFFFFFFFFFFFFFFFFFFC00
01FFFFFFFFFFFFFFFFFFFFFFFFFC00
03FFFFFFFFFFFFFFFFFFFFFFFFFE00
07FFFFFFFFFFFFFFFFFFFFFFFFFE00
07FFFFFFFFFFFFFFFFFFFFFFFFFF00
0FFFFFFFFFFFFFFFFFFFFFFFFFFF00
0FFFFFFFFFFFFFFFFFFFFFFFFFFF00
1FFFFFFFFFFFFFFFFFFFFFFFFFFF00
1FFFFFFFFFFFFFFFFFFFFFFFFFFF80
3FFFFFFC000000000000003FFFFF80
3FFFFFE0000000000000001FFFFF80
3FFFFFC0000000000000000FFFFF80
7FFFFF80000000000000000FFFFF80
7FFFFF00000000000000000FFFFF80
7FFFFE00000000000000000FFFFF80
7FFFFE00000000000000000FFFFF80
FFFFFC00000000000000000FFFFF00
FFFFFC000000000000000007FFFF00
FFFFF8000000000000000007FFFF00
FFFFF8000000000000000003FFFE00
FFFFF8000000000000000001FFFC00
FFFFF8000000000000000000FFF800
FFFFF80000000000000000003FE000
FFFFF8000000000000000000070000
FFFFF8000000000000000000000000
FFFFF8000000000000000000000000
FFFFF8000000000000000000000000
FFFFF8000000000000000000000000
FFFFF8000000000000000000000000
FFFFF8000000000000000000000000
FFFFF8000000000000000000000000
FFFFF8000000000000000000000000
FFFFF8000000000000000000000000
FFFFF8000000000000000000000000
FFFFF8000000000000000000000000
FFFFF8000000000000000000000000
FFFFF8000000000000000000000000
FFFFF8000000000000000000000000
FFFFF8000000000000000000000000
FFFFF8000000000000000000000000
FFFFF8000000000000000000000000
FFFFF8000000000000000000000000
FFFFF8000000000000000000000000
FFFFF8000000000000000000000000
FFFFF8000000000000000000000000
FFFFF8000000000000000000000000
FFFFF8000000000000000000000000
FFFFF8000000000000000000000000
FFFFF8000000000000000000000000
FFFFF8000000000000000000000000
FFFFF8000000000000000000000000
FFFFF8000000000000000000000000
FFFFF8000000000000000000000000
FFFFF8000000000000000000000000
FFFFF8000000000000000000000000
FFFFF8000000000000000000000000
FFFFF8000000000000000000000000
FFFFF8000000000000000000000000
FFFFF8000000000000000000000000
FFFFF8000000000000000000000000
FFFFF80000000000000000000F8000
FFFFF80000000000000000007FE000
FFFFF8000000000000000000FFF800
FFFFF8000000000000000001FFFC00
FFFFF8000000000000000003FFFE00
FFFFF8000000000000000003FFFF00
FFFFF8000000000000000007FFFF00
FFFFFC000000000000000007FFFF00
FFFFFC00000000000000000FFFFF80
7FFFFE00000000000000000FFFFF80
7FFFFE00000000000000000FFFFF80
7FFFFF00000000000000000FFFFF80
7FFFFF80000000000000000FFFFF80
3FFFFFC0000000000000000FFFFF80
3FFFFFE0000000000000001FFFFF80
3FFFFFFC000000000000003FFFFF80
1FFFFFFFFFFFFFFFFFFFFFFFFFFF00
1FFFFFFFFFFFFFFFFFFFFFFFFFFF00
0FFFFFFFFFFFFFFFFFFFFFFFFFFF00
0FFFFFFFFFFFFFFFFFFFFFFFFFFF00
07FFFFFFFFFFFFFFFFFFFFFFFFFE00
07FFFFFFFFFFFFFFFFFFFFFFFFFE00
03FFFFFFFFFFFFFFFFFFFFFFFFFC00
01FFFFFFFFFFFFFFFFFFFFFFFFFC00
00FFFFFFFFFFFFFFFFFFFFFFFFF800
00FFFFFFFFFFFFFFFFFFFFFFFFF800
007FFFFFFFFFFFFFFFFFFFFFFFF000
003FFFFFFFFFFFFFFFFFFFFFFFE000
001FFFFFFFFFFFFFFFFFFFFFFFC000
000FFFFFFFFFFFFFFFFFFFFFFFC000
0003FFFFFFFFFFFFFFFFFFFFFF0000
0001FFFFFFFFFFFFFFFFFFFFFE0000
00007FFFFFFFFFFFFFFFFFFFFC0000
00003FFFFFFFFFFFFFFFFFFFF80000
000007FFFFFFFFFFFFFFFFFFE00000
000001FFFFFFFFFFFFFFFFFF800000
0000000FFFFFFFFFFFFFFFF8000000
ENDCHAR
STARTCHAR 0064
ENCODING 100
SWIDTH 892 0
DWIDTH 129 0
BBX 113 109 0 -1
BITMAP
00000FFFFFFFFFFFFFF00000000000
00007FFFFFFFFFFFFFFF8000000000
0003FFFFFFFFFFFFFFFFE000000000
000FFFFFFFFFFFFFFFFFF800000000
001FFFFFFFFFFFFFFFFFFE00000000
003FFFFFFFFFFFFFFFFFFF80000000
00FFFFFFFFFFFFFFFFFFFFC0000000
01FFFFFFFFFFFFFFFFFFFFE0000000
03FFFFFFFFFFFFFFFFFFFFF8000000
03FFFFFFFFFFFFFFFFFFFFFC000000
07FFFFFFFFFFFFFFFFFFFFFE000000
0FFFFFFFFFFFFFFFFFFFFFFF000000
1FFFFFFFFFFFFFFFFFFFFFFF000000
1FFFFFFFFFFFFFFFFFFFFFFF800000
3FFFFFFFFFFFFFFFFFFFFFFFC00000
3FFFFFFFFFFFFFFFFFFFFFFFE00000
3FFFFFFFFFFFFFFFFFFFFFFFE00000
7FFFFFFFFFFFFFFFFFFFFFFFF00000
7FFFFFFFFFFFFFFFFFFFFFFFF00000
7FFFFFFFFFFFFFFFFFFFFFFFF80000
FFFFFFFFFFFFFFFFFFFFFFFFF80000
FFFFFE0000000000003FFFFFFC0000
FFFFFC00000000000007FFFFFC0000
FFFFF800000000000003FFFFFC0000
FFFFF800000000000001FFFFFE0000
FFFFF800000000000000FFFFFE0000
FFFFF8000000000000007FFFFE0000
FFFFF8000000000000003FFFFE0000
FFFFF8000000000000003FFFFF0000
FFFFF8000000000000001FFFFF0000
FFFFF8000000000000001FFFFF0000
FFFFF8000000000000001FFFFF0000
FFFFF8000000000000001FFFFF8000
FFFFF8000000000000001FFFFF8000
FFFFF8000000000000000FFFFF8000
FFFFF8000000000000000FFFFF8000
FFFFF8000000000000000FFFFF8000
FFFFF8000000000000000FFFFFC000
FFFFF80000000000000007FFFFC000
FFFFF80000000000000007FFFFC000
FFFFF80000000000000007FFFFC000
FFFFF80000000000000007FFFFE000
FFFFF80000000000000007FFFFE000
FFFFF80000000000000003FFFFE000
FFFFF80000000000000003FFFFE000
FFFFF80000000000000003FFFFE000
FFFFF80000000000000003FFFFF000
FFFFF80000000000000001FFFFF000
FFFFF80000000000000001FFFFF000
FFFFF80000000000000001FFFFF000
FFFFF80000000000000001FFFFF800
FFFFF80000000000000001FFFFF800
FFFFF80000000000000000FFFFF800
FFFFF80000000000000000FFFFF800
FFFFF80000000000000000FFFFF800
FFFFF80000000000000000FFFFFC00
FFFFF800000000000000007FFFFC00
FFFFF800000000000000007FFFFC00
FFFFF800000000000000007FFFFC00
FFFFF800000000000000007FFFFE00
FFFFF800000000000000007FFFFE00
FFFFF800000000000000003FFFFE00
FFFFF800000000000000003FFFFE00
FFFFF800000000000000003FFFFE00
FFFFF800000000000000003FFFFF00
FFFFF800000000000000003FFFFF00
FFFFF800000000000000001FFFFF00
FFFFF800000000000000001FFFFF00
FFFFF800000000000000001FFFFF00
FFFFF800000000000000001FFFFF80
FFFFF800000000000000000FFFFF80
FFFFF800000000000000000FFFFF80
FFFFF800000000000000000FFFFF80
FFFFF800000000000000000FFFFF80
FFFFF800000000000000000FFFFF80
FFFFF800000000000000000FFFFF80
FFFFF800000000000000000FFFFF80
FFFFF800000000000000000FFFFF80
FFFFF800000000000000000FFFFF80
FFFFF800000000000000001FFFFF80
FFFFF800000000000000001FFFFF80
FFFFF800000000000000003FFFFF00
FFFFF800000000000000003FFFFF00
FFFFF800000000000000007FFFFF00
FFFFF80000000000000000FFFFFF00
FFFFF80000000000000001FFFFFE00
FFFFFC0000000000000007FFFFFE00
FFFFFE000000000000001FFFFFFE00
FFFFFFFFFFFFFFFFFFFFFFFFFFFC00
7FFFFFFFFFFFFFFFFFFFFFFFFFFC00
7FFFFFFFFFFFFFFFFFFFFFFFFFF800
7FFFFFFFFFFFFFFFFFFFFFFFFFF800
3FFFFFFFFFFFFFFFFFFFFFFFFFF000
3FFFFFFFFFFFFFFFFFFFFFFFFFF000
3FFFFFFFFFFFFFFFFFFFFFFFFFE000
1FFFFFFFFFFFFFFFFFFFFFFFFFC000
0FFFFFFFFFFFFFFFFFFFFFFFFF8000
0FFFFFFFFFFFFFFFFFFFFFFFFF0000
07FFFFFFFFFFFFFFFFFFFFFFFF0000
03FFFFFFFFFFFFFFFFFFFFFFFE0000
01FFFFFFFFFFFFFFFFFFFFFFFC0000
00FFFFFFFFFFFFFFFFFFFFFFF00000
007FFFFFFFFFFFFFFFFFFFFFE00000
003FFFFFFFFFFFFFFFFFFFFFC00000
001FFFFFFFFFFFFFFFFFFFFF000000
0007FFFFFFFFFFFFFFFFFFFC000000
0003FFFFFFFFFFFFFFFFFFF0000000
00007FFFFFFFFFFFFFFFFFC0000000
00000FFFFFFFFFFFFFFFF800000000
ENDCHAR
STARTCHAR 0065
ENCODING 101
SWIDTH 892 0
DWIDTH 129 0
BBX 113 108 0 0
BITMAP
0000000FFFFFFFFFFFFFFFF8000000
000001FFFFFFFFFFFFFFFFFF000000
000007FFFFFFFFFFFFFFFFFFC00000
00003FFFFFFFFFFFFFFFFFFFF00000
00007FFFFFFFFFFFFFFFFFFFFC0000
0001FFFFFFFFFFFFFFFFFFFFFE0000
0003FFFFFFFFFFFFFFFFFFFFFF0000
000FFFFFFFFFFFFFFFFFFFFFFF8000
001FFFFFFFFFFFFFFFFFFFFFFFC000
003FFFFFFFFFFFFFFFFFFFFFFFE000
007FFFFFFFFFFFFFFFFFFFFFFFF000
00FFFFFFFFFFFFFFFFFFFFFFFFF000
01FFFFFFFFFFFFFFFFFFFFFFFFF800
01FFFFFFFFFFFFFFFFFFFFFFFFFC00
03FFFFFFFFFFFFFFFFFFFFFFFFFC00
07FFFFFFFFFFFFFFFFFFFFFFFFFE00
07FFFFFFFFFFFFFFFFFFFFFFFFFE00
0FFFFFFFFFFFFFFFFFFFFFFFFFFE00
1FFFFFFFFFFFFFFFFFFFFFFFFFFF00
1FFFFFFFFFFFFFFFFFFFFFFFFFFF00
3FFFFFFFFFFFFFFFFFFFFFFFFFFF00
3FFFFFFFFFFFFFFFFFFFFFFFFFFF00
3FFFFFFC000000000000003FFFFF80
7FFFFFE0000000000000001FFFFF80
7FFFFFC0000000000000000FFFFF80
7FFFFF80000000000000000FFFFF80
7FFFFF00000000000000000FFFFF80
FFFFFE00000000000000000FFFFF80
FFFFFC00000000000000000FFFFF80
FFFFFC00000000000000000FFFFF00
FFFFF8000000000000000007FFFF00
FFFFF8000000000000000007FFFE00
FFFFF8000000000000000003FFFE00
FFFFF8000000000000000001FFFC00
FFFFF8000000000000000000FFF800
FFFFF80000000000000000007FE000
FFFFF80000000000000000000F8000
FFFFF8000000000000000000000000
FFFFF8000000000000000000000000
FFFFF8000000000000000000000000
FFFFF8000000000000000000000000
FFFFFFFFFFFFE00000000000000000
FFFFFFFFFFFFF80000000000000000
FFFFFFFFFFFFFC0000000000000000
FFFFFFFFFFFFFE0000000000000000
FFFFFFFFFFFFFF0000000000000000
FFFFFFFFFFFFFF8000000000000000
FFFFFFFFFFFFFF8000000000000000
FFFFFFFFFFFFFF8000000000000000
FFFFFFFFFFFFFFC000000000000000
FFFFFFFFFFFFFFC000000000000000
FFFFFFFFFFFFFFC000000000000000
FFFFFFFFFFFFFFC000000000000000
FFFFFFFFFFFFFFC000000000000000
FFFFFFFFFFFFFF8000000000000000
FFFFFFFFFFFFFF8000000000000000
FFFFFFFFFFFFFF8000000000000000
FFFFFFFFFFFFFF0000000000000000
FFFFFFFFFFFFFE0000000000000000
FFFFFFFFFFFFFC0000000000000000
FFFFFFFFFFFFF80000000000000000
FFFFFFFFFFFFE00000000000000000
FFFFF8000000000000000000000000
FFFFF8000000000000000000000000
FFFFF8000000000000000000000000
FFFFF8000000000000000000000000
FFFFF8000000000000000000000000
FFFFF8000000000000000000000000
FFFFF8000000000000000000000000
FFFFF8000000000000000000000000
FFFFF8000000000000000000000000
FFFFF8000000000000000000000000
FFFFF80000000000000000001FC000
FFFFF80000000000000000007FF000
FFFFF8000000000000000000FFF800
FFFFF8000000000000000001FFFC00
FFFFF8000000000000000003FFFE00
FFFFF8000000000000000007FFFF00
FFFFF8000000000000000007FFFF00
FFFFFC00000000000000000FFFFF00
FFFFFC00000000000000000FFFFF80
7FFFFE00000000000000000FFFFF80
7FFFFF00000000000000000FFFFF80
7FFFFF80000000000000000FFFFF80
7FFFFFC0000000000000000FFFFF80
3FFFFFE0000000000000001FFFFF80
3FFFFFFC000000000000003FFFFF80
3FFFFFFFFFFFFFFFFFFFFFFFFFFF00
1FFFFFFFFFFFFFFFFFFFFFFFFFFF00
1FFFFFFFFFFFFFFFFFFFFFFFFFFF00
0FFFFFFFFFFFFFFFFFFFFFFFFFFF00
0FFFFFFFFFFFFFFFFFFFFFFFFFFE00
07FFFFFFFFFFFFFFFFFFFFFFFFFE00
03FFFFFFFFFFFFFFFFFFFFFFFFFC00
01FFFFFFFFFFFFFFFFFFFFFFFFFC00
01FFFFFFFFFFFFFFFFFFFFFFFFF800
00FFFFFFFFFFFFFFFFFFFFFFFFF800
007FFFFFFFFFFFFFFFFFFFFFFFF000
003FFFFFFFFFFFFFFFFFFFFFFFE000
001FFFFFFFFFFFFFFFFFFFFFFFC000
000FFFFFFFFFFFFFFFFFFFFFFFC000
0003FFFFFFFFFFFFFFFFFFFFFF0000
0001FFFFFFFFFFFFFFFFFFFFFE0000
00007FFFFFFFFFFFFFFFFFFFFC0000
00003FFFFFFFFFFFFFFFFFFFF80000
000007FFFFFFFFFFFFFFFFFFE00000
000001FFFFFFFFFFFFFFFFFF000000
0000000FFFFFFFFFFFFFFFF8000000
ENDCHAR
STARTCHAR 0066
ENCODING 102
SWIDTH 892 0
DWIDTH 129 0
BBX 115 110 0 -2
BITMAP
0000000FFFFFFFFFFFFFFFFE000000
000000FFFFFFFFFFFFFFFFFFC00000
000007FFFFFFFFFFFFFFFFFFF00000
00001FFFFFFFFFFFFFFFFFFFFC0000
00007FFFFFFFFFFFFFFFFFFFFF0000
0000FFFFFFFFFFFFFFFFFFFFFF8000
0003FFFFFFFFFFFFFFFFFFFFFFC000
0007FFFFFFFFFFFFFFFFFFFFFFE000
000FFFFFFFFFFFFFFFFFFFFFFFF000
001FFFFFFFFFFFFFFFFFFFFFFFF800
003FFFFFFFFFFFFFFFFFFFFFFFFC00
007FFFFFFFFFFFFFFFFFFFFFFFFC00
00FFFFFFFFFFFFFFFFFFFFFFFFFE00
01FFFFFFFFFFFFFFFFFFFFFFFFFF00
03FFFFFFFFFFFFFFFFFFFFFFFFFF00
03FFFFFFFFFFFFFFFFFFFFFFFFFF80
07FFFFFFFFFFFFFFFFFFFFFFFFFF80
0FFFFFFFFFFFFFFFFFFFFFFFFFFF80
0FFFFFFFFFFFFFFFFFFFFFFFFFFFC0
1FFFFFFFFFFFFFFFFFFFFFFFFFFFC0
1FFFFFFFFFFFFFFFFFFFFFFFFFFFC0
1FFFFFFFFFFFFFFFFFFFFFFFFFFFE0
3FFFFFFFFFFFFFFFFFFFFFFFFFFFE0
3FFFFFFC000000000000000FFFFFE0
7FFFFFF00000000000000007FFFFE0
7FFFFFC00000000000000003FFFFE0
7FFFFF800000000000000003FFFFE0
7FFFFF000000000000000003FFFFE0
7FFFFE000000000000000003FFFFE0
FFFFFE000000000000000003FFFFE0
FFFFFC000000000000000001FFFFE0
FFFFFC000000000000000001FFFFC0
FFFFF8000000000000000001FFFFC0
FFFFF8000000000000000000FFFF80
FFFFF80000000000000000007FFF00
FFFFF80000000000000000003FFE00
FFFFF80000000000000000001FFC00
FFFFF800000000000000000003F000
FFFFF8000000000000000000000000
FFFFF8000000000000000000000000
FFFFF8000000000000000000000000
FFFFF8000000000000000000000000
FFFFF8000000000000000000000000
FFFFF8000000000000000000000000
FFFFF8000000000000000000000000
FFFFF8000000000000000000000000
FFFFF8000000000000000000000000
FFFFF8000000000000000000000000
FFFFFFFFFFFFFFFFF8000000000000
FFFFFFFFFFFFFFFFFE000000000000
FFFFFFFFFFFFFFFFFF800000000000
FFFFFFFFFFFFFFFFFFC00000000000
FFFFFFFFFFFFFFFFFFC00000000000
FFFFFFFFFFFFFFFFFFE00000000000
FFFFFFFFFFFFFFFFFFF00000000000
FFFFFFFFFFFFFFFFFFF00000000000
FFFFFFFFFFFFFFFFFFF00000000000
FFFFFFFFFFFFFFFFFFF80000000000
FFFFFFFFFFFFFFFFFFF80000000000
FFFFFFFFFFFFFFFFFFF80000000000
FFFFFFFFFFFFFFFFFFF00000000000
FFFFFFFFFFFFFFFFFFF00000000000
FFFFFFFFFFFFFFFFFFF00000000000
FFFFFFFFFFFFFFFFFFE00000000000
FFFFFFFFFFFFFFFFFFE00000000000
FFFFFFFFFFFFFFFFFFC00000000000
FFFFFFFFFFFFFFFFFF800000000000
FFFFFFFFFFFFFFFFFF000000000000
FFFFFFFFFFFFFFFFFC000000000000
FFFFF8000000000000000000000000
FFFFF8000000000000000000000000
FFFFF8000000000000000000000000
FFFFF8000000000000000000000000
FFFFF8000000000000000000000000
FFFFF8000000000000000000000000
FFFFF8000000000000000000000000
FFFFF8000000000000000000000000
FFFFF8000000000000000000000000
FFFFF8000000000000000000000000
FFFFF8000000000000000000000000
FFFFF8000000000000000000000000
FFFFF8000000000000000000000000
FFFFF8000000000000000000000000
FFFFF8000000000000000000000000
FFFFF8000000000000000000000000
FFFFF8000000000000000000000000
FFFFF8000000000000000000000000
FFFFF8000000000000000000000000
FFFFF8000000000000000000000000
FFFFF8000000000000000000000000
FFFFF8000000000000000000000000
FFFFF8000000000000000000000000
FFFFF8000000000000000000000000
FFFFF8000000000000000000000000
FFFFF8000000000000000000000000
FFFFF8000000000000000000000000
FFFFF8000000000000000000000000
FFFFF8000000000000000000000000
FFFFF8000000000000000000000000
FFFFF8000000000000000000000000
FFFFF8000000000000000000000000
FFFFF8000000000000000000000000
7FFFF8000000000000000000000000
7FFFF0000000000000000000000000
7FFFF0000000000000000000000000
3FFFE0000000000000000000000000
1FFFC0000000000000000000000000
0FFF80000000000000000000000000
07FF00000000000000000000000000
01FC00000000000000000000000000
ENDCHAR
STARTCHAR 0067
ENCODING 103
SWIDTH 892 0
DWIDTH 129 0
BBX 113 108 0 0
BITMAP
0000000FFFFFFFFFFFFFFFF8000000
000001FFFFFFFFFFFFFFFFFF000000
000007FFFFFFFFFFFFFFFFFFE00000
00003FFFFFFFFFFFFFFFFFFFF80000
00007FFFFFFFFFFFFFFFFFFFFC0000
0001FFFFFFFFFFFFFFFFFFFFFE0000
0003FFFFFFFFFFFFFFFFFFFFFF8000
000FFFFFFFFFFFFFFFFFFFFFFFC000
001FFFFFFFFFFFFFFFFFFFFFFFC000
003FFFFFFFFFFFFFFFFFFFFFFFE000
007FFFFFFFFFFFFFFFFFFFFFFFF000
00FFFFFFFFFFFFFFFFFFFFFFFFF800
01FFFFFFFFFFFFFFFFFFFFFFFFF800
01FFFFFFFFFFFFFFFFFFFFFFFFFC00
03FFFFFFFFFFFFFFFFFFFFFFFFFE00
07FFFFFFFFFFFFFFFFFFFFFFFFFE00
07FFFFFFFFFFFFFFFFFFFFFFFFFE00
0FFFFFFFFFFFFFFFFFFFFFFFFFFF00
1FFFFFFFFFFFFFFFFFFFFFFFFFFF00
1FFFFFFFFFFFFFFFFFFFFFFFFFFF00
3FFFFFFFFFFFFFFFFFFFFFFFFFFF00
3FFFFFFC000000000000003FFFFF80
3FFFFFE0000000000000001FFFFF80
7FFFFFC0000000000000000FFFFF80
7FFFFF80000000000000000FFFFF80
7FFFFF00000000000000000FFFFF80
7FFFFE00000000000000000FFFFF80
FFFFFC00000000000000000FFFFF80
FFFFFC00000000000000000FFFFF00
FFFFF8000000000000000007FFFF00
FFFFF8000000000000000007FFFE00
FFFFF8000000000000000003FFFE00
FFFFF8000000000000000001FFFC00
FFFFF8000000000000000000FFF800
FFFFF80000000000000000007FE000
FFFFF80000000000000000000F8000
FFFFF8000000000000000000000000
FFFFF8000000000000000000000000
FFFFF8000000000000000000000000
FFFFF8000000000000000000000000
FFFFF8000000000000000000000000
FFFFF8000000000000000000000000
FFFFF8000000000000000000000000
FFFFF8000000000000000000000000
FFFFF8000000000000000000000000
FFFFF8000000000000000000000000
FFFFF8000000000000000000000000
FFFFF8000000000000000000000000
FFFFF8000000000000000000000000
FFFFF8000000000000000000000000
FFFFF8000000000000000000000000
FFFFF8000000000000000000000000
FFFFF8000000000000000000000000
FFFFF8000000000000000000000000
FFFFF8000000000000000FFC000000
FFFFF8000000000000003FFF800000
FFFFF8000000000000007FFFC00000
FFFFF800000000000000FFFFF00000
FFFFF800000000000001FFFFF80000
FFFFF800000000000001FFFFFC0000
FFFFF800000000000003FFFFFE0000
FFFFF800000000000003FFFFFF0000
FFFFF800000000000003FFFFFF8000
FFFFF800000000000003FFFFFFC000
FFFFF800000000000003FFFFFFC000
FFFFF800000000000003FFFFFFE000
FFFFF800000000000003FFFFFFF000
FFFFF800000000000003FFFFFFF000
FFFFF800000000000001FFFFFFF800
FFFFF800000000000001FFFFFFF800
FFFFF800000000000000FFFFFFFC00
FFFFF8000000000000007FFFFFFC00
FFFFF8000000000000003FFFFFFE00
FFFFF8000000000000000FFFFFFE00
FFFFF80000000000000003FFFFFE00
FFFFF800000000000000007FFFFE00
FFFFF800000000000000003FFFFF00
FFFFF800000000000000003FFFFF00
FFFFF800000000000000001FFFFF00
FFFFFC00000000000000001FFFFF00
FFFFFC00000000000000001FFFFF00
7FFFFE00000000000000001FFFFF00
7FFFFF00000000000000001FFFFF00
7FFFFF80000000000000003FFFFF00
7FFFFFC0000000000000003FFFFF00
3FFFFFE0000000000000007FFFFE00
3FFFFFFC00000000000001FFFFFE00
3FFFFFFFFFFFFFFFFFFFFFFFFFFE00
1FFFFFFFFFFFFFFFFFFFFFFFFFFE00
1FFFFFFFFFFFFFFFFFFFFFFFFFFC00
0FFFFFFFFFFFFFFFFFFFFFFFFFFC00
0FFFFFFFFFFFFFFFFFFFFFFFFFFC00
07FFFFFFFFFFFFFFFFFFFFFFFFF800
03FFFFFFFFFFFFFFFFFFFFFFFFF800
01FFFFFFFFFFFFFFFFFFFFFFFFF000
01FFFFFFFFFFFFFFFFFFFFFFFFF000
00FFFFFFFFFFFFFFFFFFFFFFFFE000
007FFFFFFFFFFFFFFFFFFFFFFFC000
003FFFFFFFFFFFFFFFFFFFFFFF8000
001FFFFFFFFFFFFFFFFFFFFFFF0000
000FFFFFFFFFFFFFFFFFFFFFFE0000
0003FFFFFFFFFFFFFFFFFFFFFC0000
0001FFFFFFFFFFFFFFFFFFFFF80000
0000FFFFFFFFFFFFFFFFFFFFF00000
00003FFFFFFFFFFFFFFFFFFFC00000
00000FFFFFFFFFFFFFFFFFFF000000
000001FFFFFFFFFFFFFFFFFC000000
0000001FFFFFFFFFFFFFFFC0000000
ENDCHAR
STARTCHAR 0068
ENCODING 104
SWIDTH 892 0
DWIDTH 129 0
BBX 116 111 0 -2
BITMAP
00FC0000000000000000000003F000
07FF800000000000000000001FFE00
0FFFC00000000000000000003FFF00
1FFFE00000000000000000007FFF80
3FFFF0000000000000000000FFFFC0
7FFFF8000000000000000001FFFFE0
7FFFF8000000000000000001FFFFE0
FFFFF8000000000000000001FFFFE0
FFFFFC000000000000000003FFFFF0
FFFFFC000000000000000003FFFFF0
FFFFFC000000000000000003FFFFF0
FFFFFC000000000000000003FFFFF0
FFFFFC000000000000000003FFFFF0
FFFFFC000000000000000003FFFFF0
FFFFFC000000000000000003FFFFF0
FFFFFC000000000000000003FFFFF0
FFFFFC000000000000000003FFFFF0
FFFFFC000000000000000003FFFFF0
FFFFFC000000000000000003FFFFF0
FFFFFC000000000000000003FFFFF0
FFFFFC000000000000000003FFFFF0
FFFFFC000000000000000003FFFFF0
FFFFFC000000000000000003FFFFF0
FFFFFC000000000000000003FFFFF0
FFFFFC000000000000000003FFFFF0
FFFFFC000000000000000003FFFFF0
FFFFFC000000000000000003FFFFF0
FFFFFC000000000000000003FFFFF0
FFFFFC000000000000000003FFFFF0
FFFFFC000000000000000003FFFFF0
FFFFFC000000000000000003FFFFF0
FFFFFC000000000000000003FFFFF0
FFFFFC000000000000000003FFFFF0
FFFFFC000000000000000003FFFFF0
FFFFFC000000000000000003FFFFF0
FFFFFC000000000000000003FFFFF0
FFFFFC000000000000000003FFFFF0
FFFFFC000000000000000003FFFFF0
FFFFFC000000000000000003FFFFF0
FFFFFC000000000000000003FFFFF0
FFFFFC000000000000000003FFFFF0
FFFFFC000000000000000003FFFFF0
FFFFFC000000000000000003FFFFF0
FFFFFC000000000000000003FFFFF0
FFFFFC000000000000000003FFFFF0
FFFFFC000000000000000003FFFFF0
FFFFFC000000000000000003FFFFF0
FFFFFC000000000000000003FFFFF0
FFFFFFFFFFFFFFFFFFFFFFFFFFFFF0
FFFFFFFFFFFFFFFFFFFFFFFFFFFFF0
FFFFFFFFFFFFFFFFFFFFFFFFFFFFF0
FFFFFFFFFFFFFFFFFFFFFFFFFFFFF0
FFFFFFFFFFFFFFFFFFFFFFFFFFFFF0
FFFFFFFFFFFFFFFFFFFFFFFFFFFFF0
FFFFFFFFFFFFFFFFFFFFFFFFFFFFF0
FFFFFFFFFFFFFFFFFFFFFFFFFFFFF0
FFFFFFFFFFFFFFFFFFFFFFFFFFFFF0
FFFFFFFFFFFFFFFFFFFFFFFFFFFFF0
FFFFFFFFFFFFFFFFFFFFFFFFFFFFF0
FFFFFFFFFFFFFFFFFFFFFFFFFFFFF0
FFFFFFFFFFFFFFFFFFFFFFFFFFFFF0
FFFFFFFFFFFFFFFFFFFFFFFFFFFFF0
FFFFFFFFFFFFFFFFFFFFFFFFFFFFF0
FFFFFFFFFFFFFFFFFFFFFFFFFFFFF0
FFFFFFFFFFFFFFFFFFFFFFFFFFFFF0
FFFFFFFFFFFFFFFFFFFFFFFFFFFFF0
FFFFFFFFFFFFFFFFFFFFFFFFFFFFF0
FFFFFFFFFFFFFFFFFFFFFFFFFFFFF0
FFFFFFFFFFFFFFFFFFFFFFFFFFFFF0
FFFFFFFFFFFFFFFFFFFFFFFFFFFFF0
FFFFFC000000000000000003FFFFF0
FFFFFC000000000000000003FFFFF0
FFFFFC000000000000000003FFFFF0
FFFFFC000000000000000003FFFFF0
FFFFFC000000000000000003FFFFF0
FFFFFC000000000000000003FFFFF0
FFFFFC000000000000000003FFFFF0
FFFFFC000000000000000003FFFFF0
FFFFFC000000000000000003FFFFF0
FFFFFC000000000000000003FFFFF0
FFFFFC000000000000000003FFFFF0
FFFFFC000000000000000003FFFFF0
FFFFFC000000000000000003FFFFF0
FFFFFC000000000000000003FFFFF0
FFFFFC000000000000000003FFFFF0
FFFFFC000000000000000003FFFFF0
FFFFFC000000000000000003FFFFF0
FFFFFC000000000000000003FFFFF0
FFFFFC000000000000000003FFFFF0
FFFFFC000000000000000003FFFFF0
FFFFFC000000000000000003FFFFF0
FFFFFC000000000000000003FFFFF0
FFFFFC000000000000000003FFFFF0
FFFFFC000000000000000003FFFFF0
FFFFFC000000000000000003FFFFF0
FFFFFC000000000000000003FFFFF0
FFFFFC000000000000000003FFFFF0
FFFFFC000000000000000003FFFFF0
FFFFFC000000000000000003FFFFF0
FFFFFC000000000000000003FFFFF0
FFFFFC000000000000000003FFFFF0
FFFFFC000000000000000003FFFFF0
FFFFFC000000000000000003FFFFF0
FFFFF8000000000000000003FFFFE0
7FFFF8000000000000000001FFFFE0
7FFFF8000000000000000001FFFFE0
3FFFF0000000000000000000FFFFC0
1FFFE00000000000000000007FFF80
0FFFC00000000000000000003FFF00
07FF800000000000000000001FFE00
00FC0000000000000000000003F000
ENDCHAR
STARTCHAR 0069
ENCODING 105
SWIDTH 262 0
DWIDTH 38 0
BBX 22 111 0 -2
BITMAP
00FC00
07FF80
0FFFC0
1FFFE0
3FFFF0
7FFFF8
7FFFF8
FFFFF8
FFFFFC
FFFFFC
FFFFFC
FFFFFC
FFFFFC
FFFFFC
FFFFFC
FFFFFC
FFFFFC
FFFFFC
FFFFFC
FFFFFC
FFFFFC
FFFFFC
FFFFFC
FFFFFC
FFFFFC
FFFFFC
FFFFFC
FFFFFC
FFFFFC
FFFFFC
FFFFFC
FFFFFC
FFFFFC
FFFFFC
FFFFFC
FFFFFC
FFFFFC
FFFFFC
FFFFFC
FFFFFC
FFFFFC
FFFFFC
FFFFFC
FFFFFC
FFFFFC
FFFFFC
FFFFFC
FFFFFC
FFFFFC
FFFFFC
FFFFFC
FFFFFC
FFFFFC
FFFFFC
FFFFFC
FFFFFC
FFFFFC
FFFFFC
FFFFFC
FFFFFC
FFFFFC
FFFFFC
FFFFFC
FFFFFC
FFFFFC
FFFFFC
FFFFFC
FFFFFC
FFFFFC
FFFFFC
FFFFFC
FFFFFC
FFFFFC
FFFFFC
FFFFFC
FFFFFC
FFFFFC
FFFFFC
FFFFFC
FFFFFC
FFFFFC
FFFFFC
FFFFFC
FFFFFC
FFFFFC
FFFFFC
FFFFFC
FFFFFC
FFFFFC
FFFFFC
FFFFFC
FFFFFC
FFFFFC
FFFFFC
FFFFFC
FFFFFC
FFFFFC
FFFFFC
FFFFFC
FFFFFC
FFFFFC
FFFFFC
FFFFFC
FFFFF8
7FFFF8
7FFFF8
3FFFF0
1FFFE0
0FFFC0
07FF80
00FC00
ENDCHAR
STARTCHAR 006A
ENCODING 106
SWIDTH 892 0
DWIDTH 129 0
BBX 115 110 0 -1
BITMAP
00000000000000000000000007F000
0000000000000000000000001FFC00
0000000000000000000000003FFE00
0000000000000000000000007FFF00
000000000000000000000000FFFF80
000000000000000000000001FFFFC0
000000000000000000000001FFFFC0
000000000000000000000003FFFFC0
000000000000000000000003FFFFE0
000000000000000000000003FFFFE0
000000000000000000000003FFFFE0
000000000000000000000003FFFFE0
000000000000000000000003FFFFE0
000000000000000000000003FFFFE0
000000000000000000000003FFFFE0
000000000000000000000003FFFFE0
000000000000000000000003FFFFE0
000000000000000000000003FFFFE0
000000000000000000000003FFFFE0
000000000000000000000003FFFFE0
000000000000000000000003FFFFE0
000000000000000000000003FFFFE0
000000000000000000000003FFFFE0
000000000000000000000003FFFFE0
000000000000000000000003FFFFE0
000000000000000000000003FFFFE0
000000000000000000000003FFFFE0
000000000000000000000003FFFFE0
000000000000000000000003FFFFE0
000000000000000000000003FFFFE0
000000000000000000000003FFFFE0
000000000000000000000003FFFFE0
000000000000000000000003FFFFE0
000000000000000000000003FFFFE0
000000000000000000000003FFFFE0
000000000000000000000003FFFFE0
000000000000000000000003FFFFE0
000000000000000000000003FFFFE0
000000000000000000000003FFFFE0
000000000000000000000003FFFFE0
000000000000000000000003FFFFE0
000000000000000000000003FFFFE0
000000000000000000000003FFFFE0
000000000000000000000003FFFFE0
000000000000000000000003FFFFE0
000000000000000000000003FFFFE0
000000000000000000000003FFFFE0
000000000000000000000003FFFFE0
000000000000000000000003FFFFE0
000000000000000000000003FFFFE0
000000000000000000000003FFFFE0
000000000000000000000003FFFFE0
000000000000000000000003FFFFE0
000000000000000000000003FFFFE0
000000000000000000000003FFFFE0
000000000000000000000003FFFFE0
000000000000000000000003FFFFE0
000000000000000000000003FFFFE0
000000000000000000000003FFFFE0
000000000000000000000003FFFFE0
000000000000000000000003FFFFE0
000000000000000000000003FFFFE0
000000000000000000000003FFFFE0
000000000000000000000003FFFFE0
000000000000000000000003FFFFE0
000000000000000000000003FFFFE0
000000000000000000000003FFFFE0
000000000000000000000003FFFFE0
000000000000000000000003FFFFE0
000000000000000000000003FFFFE0
000000000000000000000003FFFFE0
000000000000000000000003FFFFE0
002000000000000000000003FFFFE0
03FE00000000000000000003FFFFE0
0FFF00000000000000000003FFFFE0
1FFF80000000000000000003FFFFE0
3FFFC0000000000000000003FFFFE0
7FFFE0000000000000000003FFFFE0
7FFFF0000000000000000003FFFFE0
7FFFF0000000000000000007FFFFE0
FFFFF0000000000000000007FFFFE0
FFFFF8000000000000000007FFFFC0
FFFFF800000000000000000FFFFFC0
FFFFF800000000000000001FFFFFC0
FFFFF800000000000000001FFFFFC0
FFFFF800000000000000003FFFFF80
FFFFF800000000000000007FFFFF80
FFFFFC0000000000000001FFFFFF80
FFFFFE0000000000000007FFFFFF00
FFFFFFFFFFFFFFFFFFFFFFFFFFFF00
7FFFFFFFFFFFFFFFFFFFFFFFFFFF00
7FFFFFFFFFFFFFFFFFFFFFFFFFFE00
7FFFFFFFFFFFFFFFFFFFFFFFFFFE00
3FFFFFFFFFFFFFFFFFFFFFFFFFFC00
3FFFFFFFFFFFFFFFFFFFFFFFFFF800
1FFFFFFFFFFFFFFFFFFFFFFFFFF800
1FFFFFFFFFFFFFFFFFFFFFFFFFF000
0FFFFFFFFFFFFFFFFFFFFFFFFFE000
0FFFFFFFFFFFFFFFFFFFFFFFFFC000
07FFFFFFFFFFFFFFFFFFFFFFFF8000
03FFFFFFFFFFFFFFFFFFFFFFFF0000
01FFFFFFFFFFFFFFFFFFFFFFFE0000
00FFFFFFFFFFFFFFFFFFFFFFFC0000
007FFFFFFFFFFFFFFFFFFFFFF80000
003FFFFFFFFFFFFFFFFFFFFFE00000
001FFFFFFFFFFFFFFFFFFFFFC00000
0007FFFFFFFFFFFFFFFFFFFF000000
0003FFFFFFFFFFFFFFFFFFFC000000
00007FFFFFFFFFFFFFFFFFE0000000
00000FFFFFFFFFFFFFFFFE00000000
ENDCHAR
STARTCHAR 006B
ENCODING 107
SWIDTH 892 0
DWIDTH 129 0
BBX 120 111 0 -2
BITMAP
00FC00000000000000000000FE0000
07FF80000000000000000003FF8000
0FFFC000000000000000000FFFC000
1FFFE000000000000000001FFFE000
3FFFF000000000000000003FFFF000
7FFFF800000000000000003FFFF800
7FFFF800000000000000007FFFF800
7FFFF800000000000000007FFFFC00
FFFFFC00000000000000007FFFFC00
FFFFFC00000000000000007FFFFC00
FFFFFC0000000000000000FFFFFC00
FFFFFC0000000000000000FFFFFC00
FFFFFC0000000000000000FFFFFC00
FFFFFC0000000000000000FFFFFC00
FFFFFC0000000000000001FFFFF800
FFFFFC0000000000000001FFFFF800
FFFFFC0000000000000001FFFFF800
FFFFFC0000000000000001FFFFF800
FFFFFC0000000000000003FFFFF800
FFFFFC0000000000000003FFFFF000
FFFFFC0000000000000003FFFFF000
FFFFFC0000000000000003FFFFF000
FFFFFC0000000000000003FFFFF000
FFFFFC0000000000000007FFFFE000
FFFFFC0000000000000007FFFFE000
FFFFFC0000000000000007FFFFE000
FFFFFC0000000000000007FFFFE000
FFFFFC000000000000000FFFFFE000
FFFFFC000000000000000FFFFFC000
FFFFFC000000000000000FFFFFC000
FFFFFC000000000000000FFFFFC000
FFFFFC000000000000001FFFFFC000
FFFFFC000000000000001FFFFF8000
FFFFFC000000000000003FFFFF8000
FFFFFC000000000000007FFFFF8000
FFFFFC00000000000000FFFFFF8000
FFFFFC00000000000001FFFFFF0000
FFFFFC00000000000003FFFFFF0000
FFFFFC0000000000000FFFFFFF0000
FFFFFFFFFFFFFFFFFFFFFFFFFE0000
FFFFFFFFFFFFFFFFFFFFFFFFFE0000
FFFFFFFFFFFFFFFFFFFFFFFFFC0000
FFFFFFFFFFFFFFFFFFFFFFFFFC0000
FFFFFFFFFFFFFFFFFFFFFFFFF80000
FFFFFFFFFFFFFFFFFFFFFFFFF80000
FFFFFFFFFFFFFFFFFFFFFFFFF00000
FFFFFFFFFFFFFFFFFFFFFFFFF00000
FFFFFFFFFFFFFFFFFFFFFFFFF80000
FFFFFFFFFFFFFFFFFFFFFFFFFC0000
FFFFFFFFFFFFFFFFFFFFFFFFFE0000
FFFFFFFFFFFFFFFFFFFFFFFFFF0000
FFFFFFFFFFFFFFFFFFFFFFFFFF8000
FFFFFFFFFFFFFFFFFFFFFFFFFFC000
FFFFFFFFFFFFFFFFFFFFFFFFFFC000
FFFFFFFFFFFFFFFFFFFFFFFFFFE000
FFFFFFFFFFFFFFFFFFFFFFFFFFF000
FFFFFFFFFFFFFFFFFFFFFFFFFFF000
FFFFFFFFFFFFFFFFFFFFFFFFFFF800
FFFFFFFFFFFFFFFFFFFFFFFFFFF800
FFFFFFFFFFFFFFFFFFFFFFFFFFFC00
FFFFFFFFFFFFFFFFFFFFFFFFFFFC00
FFFFFC000000000000001FFFFFFE00
FFFFFC0000000000000007FFFFFE00
FFFFFC0000000000000001FFFFFE00
FFFFFC0000000000000000FFFFFF00
FFFFFC00000000000000007FFFFF00
FFFFFC00000000000000007FFFFF00
FFFFFC00000000000000003FFFFF00
FFFFFC00000000000000003FFFFF80
FFFFFC00000000000000001FFFFF80
FFFFFC00000000000000001FFFFF80
FFFFFC00000000000000001FFFFF80
FFFFFC00000000000000001FFFFFC0
FFFFFC00000000000000000FFFFFC0
FFFFFC00000000000000000FFFFFC0
FFFFFC00000000000000000FFFFFC0
FFFFFC00000000000000000FFFFFE0
FFFFFC000000000000000007FFFFE0
FFFFFC000000000000000007FFFFE0
FFFFFC000000000000000007FFFFE0
FFFFFC000000000000000007FFFFE0
FFFFFC000000000000000003FFFFF0
FFFFFC000000000000000003FFFFF0
FFFFFC000000000000000003FFFFF0
FFFFFC000000000000000003FFFFF0
FFFFFC000000000000000003FFFFF8
FFFFFC000000000000000001FFFFF8
FFFFFC000000000000000001FFFFF8
FFFFFC000000000000000001FFFFF8
FFFFFC000000000000000001FFFFFC
FFFFFC000000000000000000FFFFFC
FFFFFC000000000000000000FFFFFC
FFFFFC000000000000000000FFFFFC
FFFFFC000000000000000000FFFFFC
FFFFFC000000000000000000FFFFFE
FFFFFC0000000000000000007FFFFE
FFFFFC0000000000000000007FFFFE
FFFFFC0000000000000000007FFFFE
FFFFFC0000000000000000007FFFFF
FFFFFC0000000000000000003FFFFF
FFFFFC0000000000000000003FFFFF
FFFFFC0000000000000000003FFFFF
FFFFFC0000000000000000003FFFFF
FFFFFC0000000000000000001FFFFE
7FFFF80000000000000000001FFFFE
7FFFF80000000000000000001FFFFC
3FFFF00000000000000000000FFFFC
1FFFE000000000000000000007FFF8
0FFFC000000000000000000003FFF0
07FF8000000000000000000001FFC0
00FC00000000000000000000003F00
ENDCHAR
STARTCHAR 006C
ENCODING 108
SWIDTH 892 0
DWIDTH 129 0
BBX 115 110 0 -1
BITMAP
01FC00000000000000000000000000
07FF00000000000000000000000000
0FFF80000000000000000000000000
1FFFC0000000000000000000000000
3FFFE0000000000000000000000000
7FFFF0000000000000000000000000
7FFFF0000000000000000000000000
7FFFF8000000000000000000000000
FFFFF8000000000000000000000000
FFFFF8000000000000000000000000
FFFFF8000000000000000000000000
FFFFF8000000000000000000000000
FFFFF8000000000000000000000000
FFFFF8000000000000000000000000
FFFFF8000000000000000000000000
FFFFF8000000000000000000000000
FFFFF8000000000000000000000000
FFFFF8000000000000000000000000
FFFFF8000000000000000000000000
FFFFF8000000000000000000000000
FFFFF8000000000000000000000000
FFFFF8000000000000000000000000
FFFFF8000000000000000000000000
FFFFF8000000000000000000000000
FFFFF8000000000000000000000000
FFFFF8000000000000000000000000
FFFFF8000000000000000000000000
FFFFF8000000000000000000000000
FFFFF8000000000000000000000000
FFFFF8000000000000000000000000
FFFFF8000000000000000000000000
FFFFF8000000000000000000000000
FFFFF8000000000000000000000000
FFFFF8000000000000000000000000
FFFFF8000000000000000000000000
FFFFF8000000000000000000000000
FFFFF8000000000000000000000000
FFFFF8000000000000000000000000
FFFFF8000000000000000000000000
FFFFF8000000000000000000000000
FFFFF8000000000000000000000000
FFFFF8000000000000000000000000
FFFFF8000000000000000000000000
FFFFF8000000000000000000000000
FFFFF8000000000000000000000000
FFFFF8000000000000000000000000
FFFFF8000000000000000000000000
FFFFF8000000000000000000000000
FFFFF8000000000000000000000000
FFFFF8000000000000000000000000
FFFFF8000000000000000000000000
FFFFF8000000000000000000000000
FFFFF8000000000000000000000000
FFFFF8000000000000000000000000
FFFFF8000000000000000000000000
FFFFF8000000000000000000000000
FFFFF8000000000000000000000000
FFFFF8000000000000000000000000
FFFFF8000000000000000000000000
FFFFF8000000000000000000000000
FFFFF8000000000000000000000000
FFFFF8000000000000000000000000
FFFFF8000000000000000000000000
FFFFF8000000000000000000000000
FFFFF8000000000000000000000000
FFFFF8000000000000000000000000
FFFFF8000000000000000000000000
FFFFF8000000000000000000000000
FFFFF8000000000000000000000000
FFFFF8000000000000000000000000
FFFFF8000000000000000000000000
FFFFF8000000000000000000000000
FFFFF8000000000000000000008000
FFFFF80000000000000000000FF800
FFFFF80000000000000000001FFE00
FFFFF80000000000000000003FFF00
FFFFF80000000000000000007FFF80
FFFFF8000000000000000000FFFF80
FFFFF8000000000000000001FFFFC0
FFFFFC000000000000000001FFFFC0
FFFFFC000000000000000001FFFFE0
7FFFFC000000000000000003FFFFE0
7FFFFE000000000000000003FFFFE0
7FFFFE000000000000000003FFFFE0
7FFFFF000000000000000003FFFFE0
7FFFFF800000000000000003FFFFE0
3FFFFFC00000000000000003FFFFE0
3FFFFFF00000000000000007FFFFE0
1FFFFFFC000000000000000FFFFFE0
1FFFFFFFFFFFFFFFFFFFFFFFFFFFE0
1FFFFFFFFFFFFFFFFFFFFFFFFFFFC0
0FFFFFFFFFFFFFFFFFFFFFFFFFFFC0
0FFFFFFFFFFFFFFFFFFFFFFFFFFFC0
07FFFFFFFFFFFFFFFFFFFFFFFFFF80
03FFFFFFFFFFFFFFFFFFFFFFFFFF80
03FFFFFFFFFFFFFFFFFFFFFFFFFF00
01FFFFFFFFFFFFFFFFFFFFFFFFFF00
00FFFFFFFFFFFFFFFFFFFFFFFFFE00
007FFFFFFFFFFFFFFFFFFFFFFFFE00
003FFFFFFFFFFFFFFFFFFFFFFFFC00
001FFFFFFFFFFFFFFFFFFFFFFFF800
000FFFFFFFFFFFFFFFFFFFFFFFF000
0007FFFFFFFFFFFFFFFFFFFFFFE000
0003FFFFFFFFFFFFFFFFFFFFFFC000
0000FFFFFFFFFFFFFFFFFFFFFF8000
00007FFFFFFFFFFFFFFFFFFFFF0000
00001FFFFFFFFFFFFFFFFFFFFC0000
000007FFFFFFFFFFFFFFFFFFF80000
000000FFFFFFFFFFFFFFFFFFC00000
0000000FFFFFFFFFFFFFFFFE000000
ENDCHAR
STARTCHAR 006D
ENCODING 109
SWIDTH 1148 0
DWIDTH 166 0
BBX 158 110 0 -2
BITMAP
0000000FFFFFFFFFFFFFFFFFFFFFC00000000000
000000FFFFFFFFFFFFFFFFFFFFFFFE0000000000
000007FFFFFFFFFFFFFFFFFFFFFFFF8000000000
00001FFFFFFFFFFFFFFFFFFFFFFFFFF000000000
00007FFFFFFFFFFFFFFFFFFFFFFFFFF800000000
0000FFFFFFFFFFFFFFFFFFFFFFFFFFFE00000000
0003FFFFFFFFFFFFFFFFFFFFFFFFFFFF00000000
0007FFFFFFFFFFFFFFFFFFFFFFFFFFFFC0000000
000FFFFFFFFFFFFFFFFFFFFFFFFFFFFFE0000000
001FFFFFFFFFFFFFFFFFFFFFFFFFFFFFF0000000
003FFFFFFFFFFFFFFFFFFFFFFFFFFFFFF8000000
007FFFFFFFFFFFFFFFFFFFFFFFFFFFFFFC000000
00FFFFFFFFFFFFFFFFFFFFFFFFFFFFFFFE000000
01FFFFFFFFFFFFFFFFFFFFFFFFFFFFFFFF000000
03FFFFFFFFFFFFFFFFFFFFFFFFFFFFFFFF000000
07FFFFFFFFFFFFFFFFFFFFFFFFFFFFFFFF800000
07FFFFFFFFFFFFFFFFFFFFFFFFFFFFFFFFC00000
0FFFFFFFFFFFFFFFFFFFFFFFFFFFFFFFFFC00000
0FFFFFFFFFFFFFFFFFFFFFFFFFFFFFFFFFE00000
1FFFFFFFFFFFFFFFFFFFFFFFFFFFFFFFFFE00000
1FFFFFFFFFFFFFFFFFFFFFFFFFFFFFFFFFF00000
3FFFFFFE00000000FFFFFC000000FFFFFFF00000
3FFFFFF800000000FFFFFC0000001FFFFFF80000
3FFFFFE000000000FFFFFC0000000FFFFFF80000
7FFFFFC000000000FFFFFC00000003FFFFF80000
7FFFFF8000000000FFFFFC00000001FFFFFC0000
7FFFFF0000000000FFFFFC00000001FFFFFC0000
FFFFFE0000000000FFFFFC00000000FFFFFC0000
FFFFFE0000000000FFFFFC000000007FFFFC0000
FFFFFE0000000000FFFFFC000000007FFFFE0000
FFFFFC0000000000FFFFFC000000007FFFFE0000
FFFFFC0000000000FFFFFC000000007FFFFE0000
FFFFFC0000000000FFFFFC000000003FFFFE0000
FFFFFC0000000000FFFFFC000000003FFFFE0000
FFFFFC0000000000FFFFFC000000003FFFFF0000
FFFFFC0000000000FFFFFC000000003FFFFF0000
FFFFFC0000000000FFFFFC000000001FFFFF0000
FFFFFC0000000000FFFFFC000000001FFFFF0000
FFFFFC0000000000FFFFFC000000001FFFFF8000
FFFFFC0000000000FFFFFC000000001FFFFF8000
FFFFFC0000000000FFFFFC000000001FFFFF8000
FFFFFC0000000000FFFFFC000000000FFFFF8000
FFFFFC0000000000FFFFFC000000000FFFFF8000
FFFFFC0000000000FFFFFC000000000FFFFFC000
FFFFFC0000000000FFFFFC000000000FFFFFC000
FFFFFC0000000000FFFFFC000000000FFFFFC000
FFFFFC0000000000FFFFFC0000000007FFFFC000
FFFFFC0000000000FFFFFC0000000007FFFFE000
FFFFFC0000000000FFFFFC0000000007FFFFE000
FFFFFC0000000000FFFFFC0000000007FFFFE000
FFFFFC0000000000FFFFFC0000000003FFFFE000
FFFFFC0000000000FFFFFC0000000003FFFFE000
FFFFFC0000000000FFFFFC0000000003FFFFF000
FFFFFC0000000000FFFFFC0000000003FFFFF000
FFFFFC0000000000FFFFFC0000000003FFFFF000
FFFFFC0000000000FFFFFC0000000001FFFFF000
FFFFFC0000000000FFFFFC0000000001FFFFF800
FFFFFC0000000000FFFFFC0000000001FFFFF800
FFFFFC0000000000FFFFFC0000000001FFFFF800
FFFFFC0000000000FFFFFC0000000000FFFFF800
FFFFFC0000000000FFFFFC0000000000FFFFF800
FFFFFC0000000000FFFFFC0000000000FFFFFC00
FFFFFC0000000000FFFFFC0000000000FFFFFC00
FFFFFC0000000000FFFFFC0000000000FFFFFC00
FFFFFC0000000000FFFFFC00000000007FFFFC00
FFFFFC0000000000FFFFFC00000000007FFFFE00
FFFFFC0000000000FFFFFC00000000007FFFFE00
FFFFFC0000000000FFFFFC00000000007FFFFE00
FFFFFC0000000000FFFFFC00000000003FFFFE00
FFFFFC0000000000FFFFFC00000000003FFFFE00
FFFFFC0000000000FFFFFC00000000003FFFFF00
FFFFFC0000000000FFFFFC00000000003FFFFF00
FFFFFC0000000000FFFFFC00000000003FFFFF00
FFFFFC0000000000FFFFFC00000000001FFFFF00
FFFFFC0000000000FFFFFC00000000001FFFFF80
FFFFFC0000000000FFFFFC00000000001FFFFF80
FFFFFC0000000000FFFFFC00000000001FFFFF80
FFFFFC0000000000FFFFFC00000000001FFFFF80
FFFFFC0000000000FFFFFC00000000000FFFFF80
FFFFFC0000000000FFFFFC00000000000FFFFFC0
FFFFFC0000000000FFFFFC00000000000FFFFFC0
FFFFFC0000000000FFFFFC00000000000FFFFFC0
FFFFFC0000000000FFFFFC000000000007FFFFC0
FFFFFC0000000000FFFFFC000000000007FFFFE0
FFFFFC0000000000FFFFFC000000000007FFFFE0
FFFFFC0000000000FFFFFC000000000007FFFFE0
FFFFFC0000000000FFFFFC000000000007FFFFE0
FFFFFC0000000000FFFFFC000000000003FFFFE0
FFFFFC0000000000FFFFFC000000000003FFFFF0
FFFFFC0000000000FFFFFC000000000003FFFFF0
FFFFFC0000000000FFFFFC000000000003FFFFF0
FFFFFC0000000000FFFFFC000000000001FFFFF0
FFFFFC0000000000FFFFFC000000000001FFFFF8
FFFFFC0000000000FFFFFC000000000001FFFFF8
FFFFFC0000000000FFFFFC000000000001FFFFF8
FFFFFC0000000000FFFFFC000000000001FFFFF8
FFFFFC0000000000FFFFFC000000000000FFFFF8
FFFFFC0000000000FFFFFC000000000000FFFFFC
FFFFFC0000000000FFFFFC000000000000FFFFFC
FFFFFC0000000000FFFFFC000000000000FFFFFC
FFFFFC0000000000FFFFFC000000000000FFFFFC
FFFFFC0000000000FFFFFC0000000000007FFFFC
FFFFF80000000000FFFFF80000000000007FFFF8
7FFFF800000000007FFFF80000000000007FFFF8
7FFFF000000000007FFFF00000000000003FFFF0
3FFFF000000000003FFFF00000000000003FFFF0
1FFFE000000000001FFFE00000000000001FFFE0
0FFFC000000000000FFFC00000000000000FFFC0
07FF80000000000007FF0000000000000003FF00
01FC00000000000001FC0000000000000000FC00
ENDCHAR
STARTCHAR 006E
ENCODING 110
SWIDTH 892 0
DWIDTH 129 0
BBX 123 110 0 -2
BITMAP
0000000FFFFFFFFFFFFE000000000000
000000FFFFFFFFFFFFFFE00000000000
000007FFFFFFFFFFFFFFFC0000000000
00001FFFFFFFFFFFFFFFFF0000000000
00007FFFFFFFFFFFFFFFFFC000000000
0000FFFFFFFFFFFFFFFFFFF000000000
0003FFFFFFFFFFFFFFFFFFF800000000
0007FFFFFFFFFFFFFFFFFFFE00000000
000FFFFFFFFFFFFFFFFFFFFF00000000
001FFFFFFFFFFFFFFFFFFFFF80000000
003FFFFFFFFFFFFFFFFFFFFFC0000000
007FFFFFFFFFFFFFFFFFFFFFE0000000
00FFFFFFFFFFFFFFFFFFFFFFF0000000
01FFFFFFFFFFFFFFFFFFFFFFF0000000
03FFFFFFFFFFFFFFFFFFFFFFF8000000
03FFFFFFFFFFFFFFFFFFFFFFFC000000
07FFFFFFFFFFFFFFFFFFFFFFFE000000
0FFFFFFFFFFFFFFFFFFFFFFFFE000000
0FFFFFFFFFFFFFFFFFFFFFFFFF000000
1FFFFFFFFFFFFFFFFFFFFFFFFF000000
1FFFFFFFFFFFFFFFFFFFFFFFFF800000
3FFFFFFC00000000000FFFFFFF800000
3FFFFFF0000000000001FFFFFF800000
3FFFFFC00000000000007FFFFFC00000
7FFFFF800000000000003FFFFFC00000
7FFFFF000000000000001FFFFFC00000
7FFFFE000000000000000FFFFFE00000
7FFFFE000000000000000FFFFFE00000
FFFFFC0000000000000007FFFFE00000
FFFFFC0000000000000007FFFFE00000
FFFFF80000000000000007FFFFF00000
FFFFF80000000000000003FFFFF00000
FFFFF80000000000000003FFFFF00000
FFFFF80000000000000003FFFFF00000
FFFFF80000000000000003FFFFF00000
FFFFF80000000000000003FFFFF80000
FFFFF80000000000000001FFFFF80000
FFFFF80000000000000001FFFFF80000
FFFFF80000000000000001FFFFF80000
FFFFF80000000000000001FFFFFC0000
FFFFF80000000000000000FFFFFC0000
FFFFF80000000000000000FFFFFC0000
FFFFF80000000000000000FFFFFC0000
FFFFF80000000000000000FFFFFC0000
FFFFF80000000000000000FFFFFE0000
FFFFF800000000000000007FFFFE0000
FFFFF800000000000000007FFFFE0000
FFFFF800000000000000007FFFFE0000
FFFFF800000000000000007FFFFF0000
FFFFF800000000000000003FFFFF0000
FFFFF800000000000000003FFFFF0000
FFFFF800000000000000003FFFFF0000
FFFFF800000000000000003FFFFF0000
FFFFF800000000000000003FFFFF8000
FFFFF800000000000000001FFFFF8000
FFFFF800000000000000001FFFFF8000
FFFFF800000000000000001FFFFF8000
FFFFF800000000000000001FFFFFC000
FFFFF800000000000000000FFFFFC000
FFFFF800000000000000000FFFFFC000
FFFFF800000000000000000FFFFFC000
FFFFF800000000000000000FFFFFC000
FFFFF800000000000000000FFFFFE000
FFFFF8000000000000000007FFFFE000
FFFFF8000000000000000007FFFFE000
FFFFF8000000000000000007FFFFE000
FFFFF8000000000000000007FFFFF000
FFFFF8000000000000000003FFFFF000
FFFFF8000000000000000003FFFFF000
FFFFF8000000000000000003FFFFF000
FFFFF8000000000000000003FFFFF000
FFFFF8000000000000000003FFFFF800
FFFFF8000000000000000001FFFFF800
FFFFF8000000000000000001FFFFF800
FFFFF8000000000000000001FFFFF800
FFFFF8000000000000000001FFFFFC00
FFFFF8000000000000000000FFFFFC00
FFFFF8000000000000000000FFFFFC00
FFFFF8000000000000000000FFFFFC00
FFFFF8000000000000000000FFFFFC00
FFFFF8000000000000000000FFFFFE00
FFFFF80000000000000000007FFFFE00
FFFFF80000000000000000007FFFFE00
FFFFF80000000000000000007FFFFE00
FFFFF80000000000000000007FFFFF00
FFFFF80000000000000000003FFFFF00
FFFFF80000000000000000003FFFFF00
FFFFF80000000000000000003FFFFF00
FFFFF80000000000000000003FFFFF00
FFFFF80000000000000000003FFFFF80
FFFFF80000000000000000001FFFFF80
FFFFF80000000000000000001FFFFF80
FFFFF80000000000000000001FFFFF80
FFFFF80000000000000000001FFFFFC0
FFFFF80000000000000000000FFFFFC0
FFFFF80000000000000000000FFFFFC0
FFFFF80000000000000000000FFFFFC0
FFFFF80000000000000000000FFFFFC0
FFFFF80000000000000000000FFFFFC0
FFFFF800000000000000000007FFFFE0
FFFFF800000000000000000007FFFFC0
FFFFF800000000000000000007FFFFC0
FFFFF800000000000000000007FFFFC0
7FFFF000000000000000000003FFFFC0
7FFFF000000000000000000003FFFF80
3FFFE000000000000000000001FFFF00
1FFFC000000000000000000000FFFF00
0FFF80000000000000000000007FFE00
07FF00000000000000000000003FF800
01FC00000000000000000000000FE000
ENDCHAR
STARTCHAR 006F
ENCODING 111
SWIDTH 892 0
DWIDTH 129 0
BBX 113 108 0 0
BITMAP
0000000FFFFFFFFFFFFFF800000000
000001FFFFFFFFFFFFFFFFC0000000
000007FFFFFFFFFFFFFFFFF0000000
00001FFFFFFFFFFFFFFFFFFC000000
00007FFFFFFFFFFFFFFFFFFF000000
0001FFFFFFFFFFFFFFFFFFFFC00000
0003FFFFFFFFFFFFFFFFFFFFE00000
0007FFFFFFFFFFFFFFFFFFFFF00000
001FFFFFFFFFFFFFFFFFFFFFFC0000
003FFFFFFFFFFFFFFFFFFFFFFE0000
007FFFFFFFFFFFFFFFFFFFFFFF0000
00FFFFFFFFFFFFFFFFFFFFFFFF8000
00FFFFFFFFFFFFFFFFFFFFFFFF8000
01FFFFFFFFFFFFFFFFFFFFFFFFC000
03FFFFFFFFFFFFFFFFFFFFFFFFE000
07FFFFFFFFFFFFFFFFFFFFFFFFF000
07FFFFFFFFFFFFFFFFFFFFFFFFF000
0FFFFFFFFFFFFFFFFFFFFFFFFFF800
0FFFFFFFFFFFFFFFFFFFFFFFFFF800
1FFFFFFFFFFFFFFFFFFFFFFFFFFC00
1FFFFFFFFFFFFFFFFFFFFFFFFFFC00
3FFFFFFC0000000000001FFFFFFE00
3FFFFFF000000000000007FFFFFE00
7FFFFFC000000000000001FFFFFE00
7FFFFF8000000000000000FFFFFF00
7FFFFF00000000000000007FFFFF00
7FFFFE00000000000000003FFFFF00
7FFFFE00000000000000003FFFFF00
FFFFFC00000000000000001FFFFF80
FFFFFC00000000000000001FFFFF80
FFFFF800000000000000000FFFFF80
FFFFF800000000000000000FFFFF80
FFFFF800000000000000000FFFFF80
FFFFF800000000000000000FFFFF80
FFFFF800000000000000000FFFFF80
FFFFF800000000000000000FFFFF80
FFFFF800000000000000000FFFFF80
FFFFF800000000000000000FFFFF80
FFFFF800000000000000000FFFFF80
FFFFF800000000000000000FFFFF80
FFFFF800000000000000000FFFFF80
FFFFF800000000000000000FFFFF80
FFFFF800000000000000000FFFFF80
FFFFF800000000000000000FFFFF80
FFFFF800000000000000000FFFFF80
FFFFF800000000000000000FFFFF80
FFFFF800000000000000000FFFFF80
FFFFF800000000000000000FFFFF80
FFFFF800000000000000000FFFFF80
FFFFF800000000000000000FFFFF80
FFFFF800000000000000000FFFFF80
FFFFF800000000000000000FFFFF80
FFFFF800000000000000000FFFFF80
FFFFF800000000000000000FFFFF80
FFFFF800000000000000000FFFFF80
FFFFF800000000000000000FFFFF80
FFFFF800000000000000000FFFFF80
FFFFF800000000000000000FFFFF80
FFFFF800000000000000000FFFFF80
FFFFF800000000000000000FFFFF80
FFFFF800000000000000000FFFFF80
FFFFF800000000000000000FFFFF80
FFFFF800000000000000000FFFFF80
FFFFF800000000000000000FFFFF80
FFFFF800000000000000000FFFFF80
FFFFF800000000000000000FFFFF80
FFFFF800000000000000000FFFFF80
FFFFF800000000000000000FFFFF80
FFFFF800000000000000000FFFFF80
FFFFF800000000000000000FFFFF80
FFFFF800000000000000000FFFFF80
FFFFF800000000000000000FFFFF80
FFFFF800000000000000000FFFFF80
FFFFF800000000000000000FFFFF80
FFFFF800000000000000000FFFFF80
FFFFF800000000000000000FFFFF80
FFFFF800000000000000000FFFFF80
FFFFF800000000000000000FFFFF80
FFFFFC00000000000000001FFFFF80
FFFFFC00000000000000001FFFFF80
7FFFFC00000000000000003FFFFF00
7FFFFE00000000000000003FFFFF00
7FFFFF00000000000000007FFFFF00
7FFFFF8000000000000000FFFFFF00
7FFFFFC000000000000001FFFFFE00
3FFFFFE000000000000003FFFFFE00
3FFFFFFC0000000000001FFFFFFE00
1FFFFFFFFFFFFFFFFFFFFFFFFFFC00
1FFFFFFFFFFFFFFFFFFFFFFFFFFC00
1FFFFFFFFFFFFFFFFFFFFFFFFFF800
0FFFFFFFFFFFFFFFFFFFFFFFFFF800
07FFFFFFFFFFFFFFFFFFFFFFFFF000
07FFFFFFFFFFFFFFFFFFFFFFFFF000
03FFFFFFFFFFFFFFFFFFFFFFFFE000
01FFFFFFFFFFFFFFFFFFFFFFFFC000
01FFFFFFFFFFFFFFFFFFFFFFFF8000
00FFFFFFFFFFFFFFFFFFFFFFFF8000
007FFFFFFFFFFFFFFFFFFFFFFF0000
003FFFFFFFFFFFFFFFFFFFFFFE0000
001FFFFFFFFFFFFFFFFFFFFFFC0000
000FFFFFFFFFFFFFFFFFFFFFF00000
0003FFFFFFFFFFFFFFFFFFFFE00000
0001FFFFFFFFFFFFFFFFFFFFC00000
00007FFFFFFFFFFFFFFFFFFF000000
00003FFFFFFFFFFFFFFFFFFE000000
000007FFFFFFFFFFFFFFFFF0000000
000001FFFFFFFFFFFFFFFFC0000000
0000000FFFFFFFFFFFFFF800000000
ENDCHAR
ENDFONT
